{"glyphs":{"0":{"ha":917,"x_min":67,"x_max":850,"o":"m 458 -11 q 192 23 271 -11 q 90 153 114 57 q 67 478 67 249 q 90 803 67 707 q 192 933 114 899 q 458 967 271 967 q 724 933 646 967 q 826 803 803 899 q 850 478 850 707 q 826 153 850 249 q 724 23 803 57 q 458 -11 646 -11 m 458 203 q 534 216 515 203 q 558 279 553 229 q 563 478 563 329 q 558 676 563 626 q 534 740 553 726 q 458 753 515 753 q 383 740 401 753 q 358 676 364 726 q 353 478 353 625 q 358 280 353 331 q 383 216 364 229 q 458 203 401 203 z "},"1":{"ha":556,"x_min":15,"x_max":471,"o":"m 185 0 l 185 676 l 15 608 l 15 825 l 275 956 l 471 956 l 471 0 l 185 0 z "},"2":{"ha":851,"x_min":67,"x_max":782,"o":"m 339 217 l 782 217 l 782 0 l 67 0 l 67 139 q 75 322 67 260 q 115 426 83 383 q 217 499 146 469 q 356 554 282 526 l 418 579 q 471 605 456 594 q 491 631 486 615 q 496 681 496 647 q 485 728 496 714 q 447 748 474 743 q 361 753 419 753 q 86 732 260 753 l 86 935 q 254 958 157 949 q 432 967 351 967 q 617 947 542 967 q 737 868 692 928 q 782 694 782 808 q 743 502 782 567 q 629 410 704 438 l 507 363 q 456 342 483 353 q 401 322 429 332 q 367 306 379 313 q 350 290 356 300 q 341 265 343 279 q 339 226 339 251 l 339 217 z "},"3":{"ha":846,"x_min":67,"x_max":778,"o":"m 382 -11 q 224 -2 313 -11 q 67 19 135 7 l 67 219 q 354 203 238 203 q 442 207 417 203 q 480 228 468 211 q 492 286 492 246 q 483 347 492 328 q 452 372 474 365 q 385 378 431 378 l 232 378 l 232 588 l 385 588 q 448 594 428 588 q 476 617 468 600 q 483 671 483 633 q 474 728 483 711 q 437 749 464 744 q 340 753 410 753 q 206 747 282 753 q 72 735 129 742 l 72 936 q 226 958 138 949 q 383 967 314 967 q 614 938 529 967 q 735 855 699 910 q 771 715 771 800 q 731 563 771 614 q 604 490 690 511 l 604 485 q 702 447 665 471 q 758 377 739 422 q 778 256 778 332 q 744 109 778 167 q 625 20 711 51 q 382 -11 539 -11 z "},"4":{"ha":907,"x_min":42,"x_max":871,"o":"m 482 0 l 482 181 l 42 181 l 42 371 l 347 956 l 653 956 l 336 394 l 493 394 l 576 590 l 761 590 l 761 394 l 871 394 l 871 181 l 761 181 l 761 0 l 482 0 z "},"5":{"ha":871,"x_min":90,"x_max":804,"o":"m 90 218 q 372 203 261 203 q 467 209 439 203 q 507 235 496 215 q 518 301 518 256 q 507 367 518 347 q 467 394 496 388 q 372 400 438 400 q 101 386 238 400 l 101 956 l 733 956 l 733 739 l 346 739 l 346 600 q 511 610 429 610 q 689 576 625 610 q 778 478 753 542 q 804 318 804 415 q 771 128 804 199 q 652 24 738 58 q 407 -11 567 -11 q 249 -3 338 -11 q 90 19 161 6 l 90 218 z "},"6":{"ha":922,"x_min":67,"x_max":860,"o":"m 478 -11 q 299 1 368 -11 q 182 45 229 13 q 106 140 135 78 q 67 478 67 224 q 76 660 67 585 q 106 788 85 735 q 232 926 143 885 q 488 967 321 967 q 637 958 549 967 q 804 935 725 949 l 804 736 q 539 753 618 753 q 415 738 453 753 q 363 681 376 724 q 350 544 350 639 l 358 544 q 556 610 415 610 q 726 587 661 610 q 826 502 792 564 q 860 324 860 440 q 828 128 860 199 q 715 23 797 57 q 478 -11 632 -11 m 467 199 q 547 205 522 199 q 581 231 571 211 q 590 297 590 251 q 581 366 590 344 q 546 394 571 388 q 467 401 521 401 q 391 392 415 401 q 360 365 367 383 q 353 308 353 346 q 363 233 353 256 q 395 204 374 210 q 467 199 417 199 z "},"7":{"ha":799,"x_min":43,"x_max":756,"o":"m 122 0 l 458 739 l 43 739 l 43 956 l 756 956 l 756 758 l 433 0 l 122 0 z "},"8":{"ha":943,"x_min":65,"x_max":878,"o":"m 471 -11 q 222 20 311 -11 q 99 109 133 51 q 65 256 65 167 q 106 415 65 365 q 238 485 147 464 l 238 490 q 113 563 151 511 q 74 715 74 614 q 110 856 74 801 q 234 938 147 910 q 471 967 321 967 q 708 938 621 967 q 833 856 796 910 q 869 715 869 801 q 830 563 869 614 q 704 490 790 511 l 704 485 q 802 447 765 471 q 858 377 839 422 q 878 256 878 332 q 844 109 878 167 q 721 20 810 51 q 471 -11 632 -11 m 471 574 q 548 580 525 574 q 578 605 571 586 q 586 667 586 624 q 578 731 586 713 q 548 756 571 750 q 471 763 525 763 q 395 756 418 763 q 365 731 372 750 q 357 667 357 711 q 365 605 357 624 q 395 580 372 586 q 471 574 418 574 m 471 193 q 551 199 526 193 q 585 225 575 206 q 594 290 594 244 q 585 358 594 338 q 550 385 575 379 q 471 392 525 392 q 392 385 417 392 q 358 358 368 379 q 349 290 349 338 q 358 225 349 244 q 392 199 368 206 q 471 193 417 193 z "},"9":{"ha":922,"x_min":63,"x_max":856,"o":"m 435 -11 q 285 -2 374 -11 q 119 21 196 7 l 119 219 q 383 203 306 203 q 509 217 471 203 q 560 274 547 232 q 572 411 572 315 l 564 411 q 368 346 507 346 q 197 369 263 346 q 97 453 132 392 q 63 632 63 515 q 94 828 63 757 q 208 933 125 899 q 444 967 290 967 q 640 953 567 967 q 758 903 713 940 q 824 793 803 865 q 849 662 842 736 q 856 478 856 588 q 844 272 856 356 q 804 139 832 189 q 674 23 760 57 q 435 -11 588 -11 m 456 554 q 531 563 507 554 q 563 591 556 572 q 569 647 569 610 q 559 723 569 700 q 527 751 549 746 q 456 757 506 757 q 376 751 400 757 q 342 724 351 744 q 332 658 332 704 q 342 590 332 611 q 376 561 351 568 q 456 554 401 554 z "},"\u0000":{"ha":0,"x_min":0,"x_max":0,"o":""},"\r":{"ha":358,"x_min":0,"x_max":0,"o":""}," ":{"ha":358,"x_min":0,"x_max":0,"o":""},"A":{"ha":967,"x_min":1,"x_max":965,"o":"m 678 0 l 633 161 l 325 161 l 282 0 l 1 0 l 286 956 l 681 956 l 965 0 l 678 0 m 483 715 l 472 715 l 381 371 l 578 371 l 483 715 z "},"Á":{"ha":963,"x_min":1,"x_max":965,"o":"m 678 0 l 633 161 l 325 161 l 282 0 l 1 0 l 286 956 l 681 956 l 965 0 l 678 0 m 483 715 l 472 715 l 381 371 l 578 371 l 483 715 m 343 1042 l 343 1049 l 467 1246 l 714 1246 l 714 1239 l 526 1042 l 343 1042 z "},"Ă":{"ha":967,"x_min":1,"x_max":965,"o":"m 678 0 l 633 161 l 325 161 l 282 0 l 1 0 l 286 956 l 681 956 l 965 0 l 678 0 m 483 715 l 472 715 l 381 371 l 578 371 l 483 715 m 700 1233 q 683 1120 700 1165 q 619 1049 667 1075 q 481 1024 571 1024 q 344 1049 392 1024 q 280 1120 296 1075 q 264 1233 264 1165 l 403 1233 q 406 1191 403 1206 q 427 1167 410 1176 q 481 1157 444 1157 q 535 1167 518 1157 q 557 1192 553 1176 q 561 1233 561 1207 l 700 1233 z "},"Ắ":{"ha":967,"x_min":1,"x_max":965,"o":"m 372 1268 l 372 1275 l 496 1472 l 743 1472 l 743 1465 l 556 1268 l 372 1268 m 697 1232 q 681 1119 697 1164 q 617 1048 664 1074 q 479 1022 569 1022 q 342 1048 390 1022 q 278 1119 294 1074 q 263 1232 263 1164 l 401 1232 q 405 1190 401 1204 q 426 1165 408 1175 q 479 1156 443 1156 q 534 1165 517 1156 q 556 1190 551 1175 q 560 1232 560 1206 l 697 1232 m 678 0 l 633 161 l 325 161 l 282 0 l 1 0 l 286 956 l 681 956 l 965 0 l 678 0 m 483 715 l 472 715 l 381 371 l 578 371 l 483 715 z "},"Ặ":{"ha":967,"x_min":1,"x_max":965,"o":"m 678 0 l 633 161 l 325 161 l 282 0 l 1 0 l 286 956 l 681 956 l 965 0 l 678 0 m 483 715 l 472 715 l 381 371 l 578 371 l 483 715 m 347 -310 l 347 -86 l 619 -86 l 619 -310 l 347 -310 m 700 1233 q 683 1120 700 1165 q 619 1049 667 1075 q 481 1024 571 1024 q 344 1049 392 1024 q 280 1120 296 1075 q 264 1233 264 1165 l 403 1233 q 406 1191 403 1206 q 427 1167 410 1176 q 481 1157 444 1157 q 535 1167 518 1157 q 557 1192 553 1176 q 561 1233 561 1207 l 700 1233 z "},"Ằ":{"ha":967,"x_min":1,"x_max":965,"o":"m 410 1268 l 222 1465 l 222 1472 l 469 1472 l 593 1275 l 593 1268 l 410 1268 m 707 1232 q 690 1119 707 1164 q 626 1048 674 1074 q 489 1022 579 1022 q 352 1048 400 1022 q 288 1119 304 1074 q 272 1232 272 1164 l 411 1232 q 415 1190 411 1204 q 435 1165 418 1175 q 489 1156 453 1156 q 544 1165 526 1156 q 565 1190 561 1175 q 569 1232 569 1206 l 707 1232 m 678 0 l 633 161 l 325 161 l 282 0 l 1 0 l 286 956 l 681 956 l 965 0 l 678 0 m 483 715 l 472 715 l 381 371 l 578 371 l 483 715 z "},"Ẳ":{"ha":967,"x_min":1,"x_max":965,"o":"m 403 1247 q 415 1317 403 1299 q 471 1346 428 1336 l 493 1353 q 530 1367 522 1360 q 538 1390 538 1374 q 522 1422 538 1415 q 456 1428 507 1428 q 383 1426 422 1428 q 311 1419 343 1424 l 311 1535 q 398 1546 346 1542 q 496 1550 450 1550 q 608 1542 567 1550 q 674 1503 649 1535 q 700 1406 700 1472 q 688 1341 700 1364 q 656 1308 676 1318 q 596 1286 635 1297 l 579 1281 q 544 1265 553 1272 q 536 1243 536 1258 l 403 1243 l 403 1247 m 696 1232 q 679 1119 696 1164 q 615 1048 663 1074 q 478 1022 568 1022 q 341 1048 389 1022 q 277 1119 293 1074 q 261 1232 261 1164 l 400 1232 q 403 1190 400 1204 q 424 1165 407 1175 q 478 1156 442 1156 q 533 1165 515 1156 q 554 1190 550 1175 q 558 1232 558 1206 l 696 1232 m 678 0 l 633 161 l 325 161 l 282 0 l 1 0 l 286 956 l 681 956 l 965 0 l 678 0 m 483 715 l 472 715 l 381 371 l 578 371 l 483 715 z "},"Ẵ":{"ha":967,"x_min":1,"x_max":965,"o":"m 760 1472 q 753 1351 760 1392 q 717 1286 746 1310 q 625 1263 689 1263 q 524 1274 576 1263 q 461 1286 471 1285 q 419 1295 453 1288 q 364 1303 385 1303 q 335 1292 340 1303 q 331 1246 331 1281 l 206 1246 q 213 1367 206 1326 q 249 1432 219 1408 q 342 1456 278 1456 q 506 1432 403 1456 l 535 1426 q 603 1417 583 1417 q 631 1427 626 1417 q 636 1472 636 1438 l 760 1472 m 696 1232 q 679 1119 696 1164 q 615 1048 663 1074 q 478 1022 568 1022 q 341 1048 389 1022 q 277 1119 293 1074 q 261 1232 261 1164 l 400 1232 q 403 1190 400 1204 q 424 1165 407 1175 q 478 1156 442 1156 q 533 1165 515 1156 q 554 1190 550 1175 q 558 1232 558 1206 l 696 1232 m 678 0 l 633 161 l 325 161 l 282 0 l 1 0 l 286 956 l 681 956 l 965 0 l 678 0 m 483 715 l 472 715 l 381 371 l 578 371 l 483 715 z "},"Ǎ":{"ha":967,"x_min":1,"x_max":965,"o":"m 678 0 l 633 161 l 325 161 l 282 0 l 1 0 l 286 956 l 681 956 l 965 0 l 678 0 m 483 715 l 472 715 l 381 371 l 578 371 l 483 715 m 364 1029 l 238 1222 l 238 1233 l 404 1233 l 485 1128 l 563 1233 l 728 1233 l 728 1222 l 600 1029 l 364 1029 z "},"Â":{"ha":963,"x_min":1,"x_max":965,"o":"m 678 0 l 633 161 l 325 161 l 282 0 l 1 0 l 286 956 l 681 956 l 965 0 l 678 0 m 483 715 l 472 715 l 381 371 l 578 371 l 483 715 m 235 1042 l 235 1051 l 361 1246 l 597 1246 l 725 1051 l 725 1042 l 560 1042 l 479 1147 l 401 1042 l 235 1042 z "},"Ấ":{"ha":967,"x_min":1,"x_max":965,"o":"m 492 1269 l 492 1276 l 615 1474 l 863 1474 l 863 1467 l 675 1269 l 492 1269 m 236 1029 l 236 1039 l 363 1233 l 597 1233 l 725 1039 l 725 1029 l 561 1029 l 481 1135 l 403 1029 l 236 1029 m 678 0 l 633 161 l 325 161 l 282 0 l 1 0 l 286 956 l 681 956 l 965 0 l 678 0 m 483 715 l 472 715 l 381 371 l 578 371 l 483 715 z "},"Ậ":{"ha":967,"x_min":1,"x_max":965,"o":"m 678 0 l 633 161 l 325 161 l 282 0 l 1 0 l 286 956 l 681 956 l 965 0 l 678 0 m 483 715 l 472 715 l 381 371 l 578 371 l 483 715 m 347 -310 l 347 -86 l 619 -86 l 619 -310 l 347 -310 m 238 1029 l 238 1039 l 364 1233 l 600 1233 l 728 1039 l 728 1029 l 563 1029 l 482 1135 l 404 1029 l 238 1029 z "},"Ầ":{"ha":967,"x_min":1,"x_max":965,"o":"m 554 1269 l 367 1467 l 367 1474 l 614 1474 l 738 1276 l 738 1269 l 554 1269 m 225 1029 l 225 1039 l 351 1233 l 586 1233 l 714 1039 l 714 1029 l 550 1029 l 469 1135 l 392 1029 l 225 1029 m 678 0 l 633 161 l 325 161 l 282 0 l 1 0 l 286 956 l 681 956 l 965 0 l 678 0 m 483 715 l 472 715 l 381 371 l 578 371 l 483 715 z "},"Ẩ":{"ha":967,"x_min":1,"x_max":965,"o":"m 551 1265 q 564 1335 551 1317 q 619 1364 576 1354 l 642 1371 q 678 1385 671 1378 q 686 1408 686 1392 q 671 1440 686 1433 q 604 1446 656 1446 q 531 1444 571 1446 q 460 1438 492 1442 l 460 1553 q 547 1564 494 1560 q 644 1568 599 1568 q 756 1560 715 1568 q 823 1522 797 1553 q 849 1424 849 1490 q 837 1359 849 1382 q 804 1326 825 1336 q 744 1304 783 1315 l 728 1299 q 693 1283 701 1290 q 685 1261 685 1276 l 551 1261 l 551 1265 m 238 1028 l 238 1038 l 364 1232 l 599 1232 l 726 1038 l 726 1028 l 563 1028 l 482 1133 l 404 1028 l 238 1028 m 678 0 l 633 161 l 325 161 l 282 0 l 1 0 l 286 956 l 681 956 l 965 0 l 678 0 m 483 715 l 472 715 l 381 371 l 578 371 l 483 715 z "},"Ẫ":{"ha":967,"x_min":1,"x_max":965,"o":"m 760 1474 q 753 1352 760 1393 q 717 1288 746 1311 q 625 1264 689 1264 q 524 1275 576 1264 q 461 1288 471 1286 q 419 1297 453 1289 q 364 1304 385 1304 q 335 1293 340 1304 q 331 1247 331 1282 l 206 1247 q 213 1369 206 1328 q 249 1433 219 1410 q 342 1457 278 1457 q 506 1433 403 1457 l 535 1428 q 603 1418 583 1418 q 631 1428 626 1418 q 636 1474 636 1439 l 760 1474 m 235 1029 l 235 1039 l 361 1233 l 596 1233 l 724 1039 l 724 1029 l 560 1029 l 479 1135 l 401 1029 l 235 1029 m 678 0 l 633 161 l 325 161 l 282 0 l 1 0 l 286 956 l 681 956 l 965 0 l 678 0 m 483 715 l 472 715 l 381 371 l 578 371 l 483 715 z "},"Ȁ":{"ha":967,"x_min":1,"x_max":965,"o":"m 678 0 l 633 161 l 325 161 l 282 0 l 1 0 l 286 956 l 681 956 l 965 0 l 678 0 m 483 715 l 472 715 l 381 371 l 578 371 l 483 715 m 442 1049 l 290 1049 l 139 1210 l 139 1215 l 339 1215 l 442 1056 l 442 1049 m 704 1049 l 556 1049 l 403 1210 l 403 1215 l 604 1215 l 704 1056 l 704 1049 z "},"Ä":{"ha":963,"x_min":1,"x_max":965,"o":"m 678 0 l 633 161 l 325 161 l 282 0 l 1 0 l 286 956 l 681 956 l 965 0 l 678 0 m 483 715 l 472 715 l 381 371 l 578 371 l 483 715 m 229 1079 l 229 1243 l 436 1243 l 436 1079 l 229 1079 m 525 1079 l 525 1243 l 732 1243 l 732 1079 l 525 1079 z "},"Ạ":{"ha":967,"x_min":1,"x_max":965,"o":"m 678 0 l 633 161 l 325 161 l 282 0 l 1 0 l 286 956 l 681 956 l 965 0 l 678 0 m 483 715 l 472 715 l 381 371 l 578 371 l 483 715 m 347 -310 l 347 -86 l 619 -86 l 619 -310 l 347 -310 z "},"À":{"ha":963,"x_min":1,"x_max":965,"o":"m 678 0 l 633 161 l 325 161 l 282 0 l 1 0 l 286 956 l 681 956 l 965 0 l 678 0 m 483 715 l 472 715 l 381 371 l 578 371 l 483 715 m 411 1042 l 224 1239 l 224 1246 l 471 1246 l 594 1049 l 594 1042 l 411 1042 z "},"Ả":{"ha":967,"x_min":1,"x_max":965,"o":"m 678 0 l 633 161 l 325 161 l 282 0 l 1 0 l 286 956 l 681 956 l 965 0 l 678 0 m 483 715 l 472 715 l 381 371 l 578 371 l 483 715 m 381 1013 q 393 1082 381 1064 q 449 1111 406 1100 l 471 1118 q 507 1131 499 1125 q 515 1154 515 1138 q 500 1186 515 1181 q 433 1192 485 1192 q 289 1185 347 1192 l 289 1300 q 376 1311 324 1307 q 474 1315 428 1315 q 585 1307 544 1315 q 652 1267 626 1299 q 678 1171 678 1236 q 666 1106 678 1129 q 633 1072 654 1083 q 574 1050 613 1061 l 557 1046 q 522 1031 531 1038 q 514 1008 514 1024 l 381 1008 l 381 1013 z "},"Ȃ":{"ha":967,"x_min":1,"x_max":965,"o":"m 678 0 l 633 161 l 325 161 l 282 0 l 1 0 l 286 956 l 681 956 l 965 0 l 678 0 m 483 715 l 472 715 l 381 371 l 578 371 l 483 715 m 264 1031 q 281 1144 264 1099 q 345 1215 297 1189 q 483 1240 393 1240 q 620 1215 572 1240 q 684 1144 668 1189 q 700 1031 700 1099 l 561 1031 q 558 1073 561 1058 q 537 1097 554 1088 q 483 1107 519 1107 q 428 1097 446 1107 q 407 1072 411 1088 q 403 1031 403 1057 l 264 1031 z "},"Ā":{"ha":967,"x_min":1,"x_max":965,"o":"m 678 0 l 633 161 l 325 161 l 282 0 l 1 0 l 286 956 l 681 956 l 965 0 l 678 0 m 483 715 l 472 715 l 381 371 l 578 371 l 483 715 m 285 1029 l 285 1233 l 683 1233 l 683 1029 l 285 1029 z "},"Ą":{"ha":963,"x_min":1,"x_max":961,"o":"m 803 -99 q 817 -133 803 -121 q 868 -146 832 -146 l 892 -144 l 892 -267 q 783 -272 825 -272 q 594 -151 594 -272 q 617 -74 594 -114 q 676 1 639 -35 l 631 161 l 325 161 l 281 0 l 1 0 l 285 956 l 678 956 l 961 0 l 882 0 q 827 -47 851 -19 q 803 -99 803 -75 m 376 367 l 576 367 l 482 715 l 471 715 l 376 367 z "},"Å":{"ha":967,"x_min":1,"x_max":965,"o":"m 965 0 l 678 0 l 633 161 l 325 161 l 282 0 l 1 0 l 285 953 q 258 1006 264 974 q 251 1094 251 1038 q 266 1209 251 1171 q 329 1265 281 1247 q 482 1283 378 1283 q 636 1265 588 1283 q 700 1209 685 1247 q 715 1094 715 1171 q 708 1008 715 1040 q 682 954 701 975 l 965 0 m 482 1171 q 424 1165 442 1171 q 403 1144 407 1158 q 400 1094 400 1129 q 403 1047 400 1060 q 424 1027 407 1033 q 482 1021 442 1021 q 542 1027 525 1021 q 564 1047 560 1033 q 568 1094 568 1060 q 564 1144 568 1129 q 542 1165 560 1158 q 482 1171 525 1171 m 381 371 l 578 371 l 483 715 l 472 715 l 381 371 z "},"Ǻ":{"ha":967,"x_min":1,"x_max":965,"o":"m 965 0 l 678 0 l 633 161 l 325 161 l 282 0 l 1 0 l 285 953 q 258 1006 264 974 q 251 1094 251 1038 q 266 1209 251 1171 q 329 1265 281 1247 q 482 1283 378 1283 q 636 1265 588 1283 q 700 1209 685 1247 q 715 1094 715 1171 q 708 1008 715 1040 q 682 954 701 975 l 965 0 m 482 1171 q 424 1165 442 1171 q 403 1144 407 1158 q 400 1094 400 1129 q 403 1047 400 1060 q 424 1027 407 1033 q 482 1021 442 1021 q 542 1027 525 1021 q 564 1047 560 1033 q 568 1094 568 1060 q 564 1144 568 1129 q 542 1165 560 1158 q 482 1171 525 1171 m 381 371 l 578 371 l 483 715 l 472 715 l 381 371 m 379 1357 l 379 1364 l 503 1561 l 750 1561 l 750 1554 l 563 1357 l 379 1357 z "},"Ã":{"ha":963,"x_min":1,"x_max":965,"o":"m 678 0 l 633 161 l 325 161 l 282 0 l 1 0 l 286 956 l 681 956 l 965 0 l 678 0 m 483 715 l 472 715 l 381 371 l 578 371 l 483 715 m 760 1268 q 753 1147 760 1188 q 717 1082 746 1106 q 624 1058 688 1058 q 522 1069 575 1058 q 460 1082 469 1081 q 417 1091 451 1083 q 363 1099 383 1099 q 334 1088 339 1099 q 329 1042 329 1076 l 204 1042 q 211 1163 204 1122 q 247 1228 218 1204 q 340 1251 276 1251 q 504 1228 401 1251 l 533 1222 q 601 1213 582 1213 q 630 1223 625 1213 q 635 1268 635 1233 l 760 1268 z "},"Æ":{"ha":1364,"x_min":-29,"x_max":1292,"o":"m 651 0 l 629 164 l 321 164 l 250 0 l -29 0 l 411 956 l 1292 956 l 1292 740 l 818 740 l 839 588 l 1226 588 l 1226 376 l 865 376 l 888 215 l 1292 215 l 1292 0 l 651 0 m 564 735 l 554 735 l 404 372 l 607 372 l 564 735 z "},"Ǽ":{"ha":1363,"x_min":-29,"x_max":1290,"o":"m 651 0 l 629 164 l 321 164 l 250 0 l -29 0 l 411 956 l 1292 956 l 1292 740 l 818 740 l 839 588 l 1226 588 l 1226 376 l 865 376 l 888 215 l 1292 215 l 1292 0 l 651 0 m 564 735 l 554 735 l 404 372 l 607 372 l 564 735 m 579 1029 l 579 1036 l 703 1233 l 950 1233 l 950 1226 l 763 1029 l 579 1029 z "},"B":{"ha":929,"x_min":86,"x_max":869,"o":"m 86 956 l 583 956 q 864 715 864 956 q 823 563 864 614 q 694 490 782 511 l 694 485 q 793 447 756 471 q 850 377 831 422 q 869 256 869 332 q 801 64 869 128 q 581 0 732 0 l 86 0 l 86 956 m 475 576 q 542 583 521 576 q 570 606 563 589 q 578 660 578 622 q 571 716 578 699 q 543 740 564 733 q 475 746 522 746 l 368 746 l 368 576 l 475 576 m 479 210 q 546 216 525 210 q 574 240 567 222 q 581 297 581 257 q 574 356 581 338 q 546 382 567 375 q 479 389 525 389 l 368 389 l 368 210 l 479 210 z "},"C":{"ha":793,"x_min":67,"x_max":739,"o":"m 739 11 q 619 -5 692 1 q 481 -11 546 -11 q 210 33 297 -11 q 95 176 124 76 q 67 478 67 276 q 94 778 67 679 q 210 922 122 878 q 481 967 297 967 q 615 959 544 967 q 733 940 686 951 l 733 739 q 549 751 586 751 q 411 735 449 751 q 365 668 374 718 q 356 478 356 618 q 365 288 356 338 q 411 221 374 238 q 549 204 449 204 q 739 217 644 204 l 739 11 z "},"Ć":{"ha":793,"x_min":67,"x_max":739,"o":"m 739 11 q 619 -5 692 1 q 481 -11 546 -11 q 210 33 297 -11 q 95 176 124 76 q 67 478 67 276 q 94 778 67 679 q 210 922 122 878 q 481 967 297 967 q 615 959 544 967 q 733 940 686 951 l 733 739 q 549 751 586 751 q 411 735 449 751 q 365 668 374 718 q 356 478 356 618 q 365 288 356 338 q 411 221 374 238 q 549 204 449 204 q 739 217 644 204 l 739 11 m 294 1029 l 294 1036 l 418 1233 l 665 1233 l 665 1226 l 478 1029 l 294 1029 z "},"Č":{"ha":793,"x_min":67,"x_max":739,"o":"m 739 11 q 619 -5 692 1 q 481 -11 546 -11 q 210 33 297 -11 q 95 176 124 76 q 67 478 67 276 q 94 778 67 679 q 210 922 122 878 q 481 967 297 967 q 615 959 544 967 q 733 940 686 951 l 733 739 q 549 751 586 751 q 411 735 449 751 q 365 668 374 718 q 356 478 356 618 q 365 288 356 338 q 411 221 374 238 q 549 204 449 204 q 739 217 644 204 l 739 11 m 278 1029 l 151 1222 l 151 1233 l 318 1233 l 399 1128 l 476 1233 l 642 1233 l 642 1222 l 514 1029 l 278 1029 z "},"Ç":{"ha":793,"x_min":67,"x_max":739,"o":"m 739 11 q 619 -5 692 1 q 481 -11 546 -11 l 436 -262 l 203 -262 l 203 -256 l 310 1 q 153 74 206 21 q 84 219 101 126 q 67 478 67 313 q 94 778 67 679 q 210 922 122 878 q 481 967 297 967 q 615 959 544 967 q 733 940 686 951 l 733 739 q 549 751 586 751 q 411 735 449 751 q 365 668 374 718 q 356 478 356 618 q 365 288 356 338 q 411 221 374 238 q 549 204 449 204 q 739 217 644 204 l 739 11 z "},"Ĉ":{"ha":793,"x_min":67,"x_max":739,"o":"m 739 11 q 619 -5 692 1 q 481 -11 546 -11 q 210 33 297 -11 q 95 176 124 76 q 67 478 67 276 q 94 778 67 679 q 210 922 122 878 q 481 967 297 967 q 615 959 544 967 q 733 940 686 951 l 733 739 q 549 751 586 751 q 411 735 449 751 q 365 668 374 718 q 356 478 356 618 q 365 288 356 338 q 411 221 374 238 q 549 204 449 204 q 739 217 644 204 l 739 11 m 151 1029 l 151 1039 l 278 1233 l 514 1233 l 642 1039 l 642 1029 l 476 1029 l 396 1135 l 318 1029 l 151 1029 z "},"Ċ":{"ha":793,"x_min":67,"x_max":739,"o":"m 739 11 q 619 -5 692 1 q 481 -11 546 -11 q 210 33 297 -11 q 95 176 124 76 q 67 478 67 276 q 94 778 67 679 q 210 922 122 878 q 481 967 297 967 q 615 959 544 967 q 733 940 686 951 l 733 739 q 549 751 586 751 q 411 735 449 751 q 365 668 374 718 q 356 478 356 618 q 365 288 356 338 q 411 221 374 238 q 549 204 449 204 q 739 217 644 204 l 739 11 m 293 1051 l 293 1215 l 500 1215 l 500 1051 l 293 1051 z "},"D":{"ha":942,"x_min":86,"x_max":875,"o":"m 86 956 l 432 956 q 740 915 649 956 q 853 783 831 874 q 875 478 875 693 q 853 172 875 263 q 740 41 831 82 q 432 0 649 0 l 86 0 l 86 956 m 432 215 q 544 228 515 215 q 580 289 572 242 q 588 476 588 336 q 580 667 588 618 q 544 728 572 715 q 432 740 515 740 l 371 740 l 371 215 l 432 215 z "},"Ǳ":{"ha":1803,"x_min":86,"x_max":1747,"o":"m 86 956 l 432 956 q 740 915 649 956 q 853 783 831 874 q 875 478 875 693 q 853 172 875 263 q 740 41 831 82 q 432 0 649 0 l 86 0 l 86 956 m 432 215 q 544 228 515 215 q 580 289 572 242 q 588 476 588 336 q 580 667 588 618 q 544 728 572 715 q 432 740 515 740 l 371 740 l 371 215 l 432 215 m 999 0 l 999 207 l 1396 740 l 1014 740 l 1014 956 l 1747 956 l 1747 754 l 1344 215 l 1747 215 l 1747 0 l 999 0 z "},"Ǆ":{"ha":1801,"x_min":86,"x_max":1746,"o":"m 1246 1029 l 1119 1221 l 1119 1232 l 1286 1232 l 1367 1128 l 1444 1232 l 1610 1232 l 1610 1221 l 1482 1029 l 1246 1029 m 86 954 l 432 954 q 740 913 649 954 q 852 782 831 872 q 874 478 874 692 q 852 172 874 263 q 740 41 831 82 q 432 0 649 0 l 86 0 l 86 954 m 999 0 l 999 207 l 1396 739 l 1014 739 l 1014 954 l 1746 954 l 1746 753 l 1344 215 l 1746 215 l 1746 0 l 999 0 m 432 215 q 543 228 515 215 q 578 289 571 242 q 586 476 586 336 q 578 666 586 618 q 543 726 571 714 q 432 739 515 739 l 371 739 l 371 215 l 432 215 z "},"Ð":{"ha":942,"x_min":-3,"x_max":875,"o":"m 86 394 l -3 394 l -3 574 l 86 574 l 86 956 l 432 956 q 740 915 649 956 q 853 783 831 874 q 875 478 875 693 q 853 172 875 263 q 740 41 831 82 q 432 0 649 0 l 86 0 l 86 394 m 432 215 q 544 228 515 215 q 580 289 572 242 q 588 476 588 336 q 580 667 588 618 q 544 728 572 715 q 432 740 515 740 l 371 740 l 371 574 l 475 574 l 475 394 l 371 394 l 371 215 l 432 215 z "},"Ď":{"ha":942,"x_min":86,"x_max":875,"o":"m 86 956 l 432 956 q 740 915 649 956 q 853 783 831 874 q 875 478 875 693 q 853 172 875 263 q 740 41 831 82 q 432 0 649 0 l 86 0 l 86 956 m 432 215 q 544 228 515 215 q 580 289 572 242 q 588 476 588 336 q 580 667 588 618 q 544 728 572 715 q 432 740 515 740 l 371 740 l 371 215 l 432 215 m 351 1029 l 225 1222 l 225 1233 l 392 1233 l 472 1128 l 550 1233 l 715 1233 l 715 1222 l 588 1029 l 351 1029 z "},"Đ":{"ha":942,"x_min":-3,"x_max":875,"o":"m 86 394 l -3 394 l -3 574 l 86 574 l 86 956 l 432 956 q 740 915 649 956 q 853 783 831 874 q 875 478 875 693 q 853 172 875 263 q 740 41 831 82 q 432 0 649 0 l 86 0 l 86 394 m 432 215 q 544 228 515 215 q 580 289 572 242 q 588 476 588 336 q 580 667 588 618 q 544 728 572 715 q 432 740 515 740 l 371 740 l 371 574 l 475 574 l 475 394 l 371 394 l 371 215 l 432 215 z "},"Ḍ":{"ha":942,"x_min":86,"x_max":875,"o":"m 86 956 l 432 956 q 740 915 649 956 q 853 783 831 874 q 875 478 875 693 q 853 172 875 263 q 740 41 831 82 q 432 0 649 0 l 86 0 l 86 956 m 432 215 q 544 228 515 215 q 580 289 572 242 q 588 476 588 336 q 580 667 588 618 q 544 728 572 715 q 432 740 515 740 l 371 740 l 371 215 l 432 215 m 335 -310 l 335 -86 l 607 -86 l 607 -310 l 335 -310 z "},"ǲ":{"ha":1679,"x_min":86,"x_max":1626,"o":"m 86 956 l 432 956 q 740 915 649 956 q 853 783 831 874 q 875 478 875 693 q 853 172 875 263 q 740 41 831 82 q 432 0 649 0 l 86 0 l 86 956 m 432 215 q 544 228 515 215 q 580 289 572 242 q 588 476 588 336 q 580 667 588 618 q 544 728 572 715 q 432 740 515 740 l 371 740 l 371 215 l 432 215 m 996 0 l 996 182 l 1294 515 l 1013 515 l 1013 708 l 1624 708 l 1624 526 l 1325 193 l 1626 193 l 1626 0 l 996 0 z "},"ǅ":{"ha":1678,"x_min":86,"x_max":1625,"o":"m 1197 828 l 1071 1021 l 1071 1032 l 1238 1032 l 1318 926 l 1396 1032 l 1561 1032 l 1561 1021 l 1433 828 l 1197 828 m 86 954 l 432 954 q 740 913 649 954 q 852 782 831 872 q 874 478 874 692 q 852 172 874 263 q 740 41 831 82 q 432 0 649 0 l 86 0 l 86 954 m 432 215 q 543 228 515 215 q 578 289 571 242 q 586 476 586 336 q 578 666 586 618 q 543 726 571 714 q 432 739 515 739 l 371 739 l 371 215 l 432 215 m 996 0 l 996 182 l 1294 515 l 1013 515 l 1013 707 l 1622 707 l 1622 526 l 1325 193 l 1625 193 l 1625 0 l 996 0 z "},"E":{"ha":847,"x_min":86,"x_max":776,"o":"m 86 0 l 86 956 l 776 956 l 776 740 l 371 740 l 371 589 l 711 589 l 711 376 l 371 376 l 371 215 l 776 215 l 776 0 l 86 0 z "},"É":{"ha":839,"x_min":86,"x_max":776,"o":"m 86 0 l 86 956 l 776 956 l 776 740 l 371 740 l 371 589 l 711 589 l 711 376 l 371 376 l 371 215 l 776 215 l 776 0 l 86 0 m 328 1042 l 328 1049 l 451 1246 l 699 1246 l 699 1239 l 511 1042 l 328 1042 z "},"Ĕ":{"ha":847,"x_min":86,"x_max":776,"o":"m 86 0 l 86 956 l 776 956 l 776 740 l 371 740 l 371 589 l 711 589 l 711 376 l 371 376 l 371 215 l 776 215 l 776 0 l 86 0 m 642 1233 q 625 1120 642 1165 q 560 1049 608 1075 q 422 1024 513 1024 q 285 1049 333 1024 q 222 1120 238 1075 q 206 1233 206 1165 l 344 1233 q 348 1191 344 1206 q 369 1167 351 1176 q 422 1157 386 1157 q 477 1167 460 1157 q 499 1192 494 1176 q 503 1233 503 1207 l 642 1233 z "},"Ě":{"ha":847,"x_min":86,"x_max":776,"o":"m 86 0 l 86 956 l 776 956 l 776 740 l 371 740 l 371 589 l 711 589 l 711 376 l 371 376 l 371 215 l 776 215 l 776 0 l 86 0 m 306 1029 l 179 1222 l 179 1233 l 346 1233 l 426 1128 l 504 1233 l 669 1233 l 669 1222 l 542 1029 l 306 1029 z "},"Ê":{"ha":839,"x_min":86,"x_max":776,"o":"m 86 0 l 86 956 l 776 956 l 776 740 l 371 740 l 371 589 l 711 589 l 711 376 l 371 376 l 371 215 l 776 215 l 776 0 l 86 0 m 178 1042 l 178 1051 l 304 1246 l 540 1246 l 668 1051 l 668 1042 l 503 1042 l 422 1147 l 344 1042 l 178 1042 z "},"Ế":{"ha":847,"x_min":86,"x_max":804,"o":"m 433 1269 l 433 1276 l 557 1474 l 804 1474 l 804 1467 l 617 1269 l 433 1269 m 178 1029 l 178 1039 l 304 1233 l 539 1233 l 667 1039 l 667 1029 l 503 1029 l 422 1135 l 344 1029 l 178 1029 m 86 0 l 86 956 l 776 956 l 776 740 l 371 740 l 371 589 l 711 589 l 711 376 l 371 376 l 371 215 l 776 215 l 776 0 l 86 0 z "},"Ệ":{"ha":847,"x_min":86,"x_max":776,"o":"m 86 0 l 86 956 l 776 956 l 776 740 l 371 740 l 371 589 l 711 589 l 711 376 l 371 376 l 371 215 l 776 215 l 776 0 l 86 0 m 289 -310 l 289 -86 l 561 -86 l 561 -310 l 289 -310 m 179 1029 l 179 1039 l 306 1233 l 542 1233 l 669 1039 l 669 1029 l 504 1029 l 424 1135 l 346 1029 l 179 1029 z "},"Ề":{"ha":847,"x_min":86,"x_max":776,"o":"m 496 1269 l 308 1467 l 308 1474 l 556 1474 l 679 1276 l 679 1269 l 496 1269 m 167 1029 l 167 1039 l 293 1233 l 528 1233 l 656 1039 l 656 1029 l 492 1029 l 411 1135 l 333 1029 l 167 1029 m 86 0 l 86 956 l 776 956 l 776 740 l 371 740 l 371 589 l 711 589 l 711 376 l 371 376 l 371 215 l 776 215 l 776 0 l 86 0 z "},"Ể":{"ha":847,"x_min":86,"x_max":790,"o":"m 493 1265 q 506 1335 493 1317 q 561 1364 518 1354 l 583 1371 q 620 1385 613 1378 q 628 1408 628 1392 q 613 1440 628 1433 q 546 1446 597 1446 q 473 1444 513 1446 q 401 1438 433 1442 l 401 1553 q 488 1564 436 1560 q 586 1568 540 1568 q 698 1560 657 1568 q 765 1522 739 1553 q 790 1424 790 1490 q 778 1359 790 1382 q 746 1326 767 1336 q 686 1304 725 1315 l 669 1299 q 635 1283 643 1290 q 626 1261 626 1276 l 493 1261 l 493 1265 m 179 1028 l 179 1038 l 306 1232 l 540 1232 l 668 1038 l 668 1028 l 504 1028 l 424 1133 l 346 1028 l 179 1028 m 86 0 l 86 956 l 776 956 l 776 740 l 371 740 l 371 589 l 711 589 l 711 376 l 371 376 l 371 215 l 776 215 l 776 0 l 86 0 z "},"Ễ":{"ha":847,"x_min":86,"x_max":776,"o":"m 701 1474 q 694 1352 701 1393 q 659 1288 688 1311 q 567 1264 631 1264 q 465 1275 518 1264 q 403 1288 413 1286 q 360 1297 394 1289 q 306 1304 326 1304 q 277 1293 282 1304 q 272 1247 272 1282 l 147 1247 q 154 1369 147 1328 q 190 1433 161 1410 q 283 1457 219 1457 q 447 1433 344 1457 l 476 1428 q 544 1418 525 1418 q 573 1428 568 1418 q 578 1474 578 1439 l 701 1474 m 176 1029 l 176 1039 l 303 1233 l 538 1233 l 665 1039 l 665 1029 l 501 1029 l 421 1135 l 343 1029 l 176 1029 m 86 0 l 86 956 l 776 956 l 776 740 l 371 740 l 371 589 l 711 589 l 711 376 l 371 376 l 371 215 l 776 215 l 776 0 l 86 0 z "},"Ȅ":{"ha":847,"x_min":81,"x_max":776,"o":"m 86 0 l 86 956 l 776 956 l 776 740 l 371 740 l 371 589 l 711 589 l 711 376 l 371 376 l 371 215 l 776 215 l 776 0 l 86 0 m 383 1049 l 232 1049 l 81 1210 l 81 1215 l 281 1215 l 383 1056 l 383 1049 m 646 1049 l 497 1049 l 344 1210 l 344 1215 l 546 1215 l 646 1056 l 646 1049 z "},"Ë":{"ha":839,"x_min":86,"x_max":776,"o":"m 86 0 l 86 956 l 776 956 l 776 740 l 371 740 l 371 589 l 711 589 l 711 376 l 371 376 l 371 215 l 776 215 l 776 0 l 86 0 m 176 1050 l 176 1214 l 383 1214 l 383 1050 l 176 1050 m 472 1050 l 472 1214 l 679 1214 l 679 1050 l 472 1050 z "},"Ė":{"ha":847,"x_min":86,"x_max":776,"o":"m 86 0 l 86 956 l 776 956 l 776 740 l 371 740 l 371 589 l 711 589 l 711 376 l 371 376 l 371 215 l 776 215 l 776 0 l 86 0 m 321 1051 l 321 1215 l 528 1215 l 528 1051 l 321 1051 z "},"Ẹ":{"ha":847,"x_min":86,"x_max":776,"o":"m 86 0 l 86 956 l 776 956 l 776 740 l 371 740 l 371 589 l 711 589 l 711 376 l 371 376 l 371 215 l 776 215 l 776 0 l 86 0 m 289 -310 l 289 -86 l 561 -86 l 561 -310 l 289 -310 z "},"È":{"ha":839,"x_min":86,"x_max":776,"o":"m 86 0 l 86 956 l 776 956 l 776 740 l 371 740 l 371 589 l 711 589 l 711 376 l 371 376 l 371 215 l 776 215 l 776 0 l 86 0 m 375 1042 l 188 1239 l 188 1246 l 435 1246 l 558 1049 l 558 1042 l 375 1042 z "},"Ẻ":{"ha":847,"x_min":86,"x_max":776,"o":"m 86 0 l 86 956 l 776 956 l 776 740 l 371 740 l 371 589 l 711 589 l 711 376 l 371 376 l 371 215 l 776 215 l 776 0 l 86 0 m 322 1013 q 335 1082 322 1064 q 390 1111 347 1100 l 413 1118 q 449 1131 440 1125 q 457 1154 457 1138 q 442 1186 457 1181 q 375 1192 426 1192 q 231 1185 289 1192 l 231 1300 q 317 1311 265 1307 q 415 1315 369 1315 q 527 1307 486 1315 q 594 1267 568 1299 q 619 1171 619 1236 q 608 1106 619 1129 q 575 1072 596 1083 q 515 1050 554 1061 l 499 1046 q 464 1031 472 1038 q 456 1008 456 1024 l 322 1008 l 322 1013 z "},"Ȇ":{"ha":847,"x_min":86,"x_max":776,"o":"m 86 0 l 86 956 l 776 956 l 776 740 l 371 740 l 371 589 l 711 589 l 711 376 l 371 376 l 371 215 l 776 215 l 776 0 l 86 0 m 206 1031 q 222 1144 206 1099 q 287 1215 239 1189 q 425 1240 335 1240 q 562 1215 514 1240 q 626 1144 610 1189 q 642 1031 642 1099 l 503 1031 q 499 1073 503 1058 q 478 1097 496 1088 q 425 1107 461 1107 q 370 1097 388 1107 q 349 1072 353 1088 q 344 1031 344 1057 l 206 1031 z "},"Ē":{"ha":847,"x_min":86,"x_max":776,"o":"m 86 0 l 86 956 l 776 956 l 776 740 l 371 740 l 371 589 l 711 589 l 711 376 l 371 376 l 371 215 l 776 215 l 776 0 l 86 0 m 226 1029 l 226 1233 l 625 1233 l 625 1029 l 226 1029 z "},"Ę":{"ha":839,"x_min":83,"x_max":769,"o":"m 647 -272 q 501 -239 544 -272 q 457 -156 457 -206 q 558 0 457 -79 l 83 0 l 83 956 l 769 956 l 769 742 l 369 742 l 369 588 l 704 588 l 704 378 l 369 378 l 369 214 l 769 214 l 769 0 q 697 -46 728 -18 q 667 -103 667 -74 q 731 -146 667 -146 l 756 -144 l 756 -267 q 647 -272 708 -272 z "},"Ẽ":{"ha":847,"x_min":86,"x_max":776,"o":"m 86 0 l 86 956 l 776 956 l 776 740 l 371 740 l 371 589 l 711 589 l 711 376 l 371 376 l 371 215 l 776 215 l 776 0 l 86 0 m 703 1233 q 696 1112 703 1153 q 660 1047 689 1071 q 567 1024 631 1024 q 465 1035 518 1024 q 403 1047 413 1046 q 360 1056 394 1049 q 306 1064 326 1064 q 277 1053 282 1064 q 272 1007 272 1042 l 147 1007 q 154 1128 147 1088 q 190 1193 161 1169 q 283 1217 219 1217 q 447 1193 344 1217 l 476 1188 q 544 1178 525 1178 q 573 1188 568 1178 q 578 1233 578 1199 l 703 1233 z "},"F":{"ha":797,"x_min":86,"x_max":749,"o":"m 86 0 l 86 956 l 749 956 l 749 740 l 371 740 l 371 553 l 697 553 l 697 338 l 371 338 l 371 0 l 86 0 z "},"G":{"ha":925,"x_min":67,"x_max":846,"o":"m 479 369 l 479 568 l 846 568 l 846 19 q 674 -3 771 6 q 501 -11 576 -11 q 227 29 318 -11 q 101 172 136 69 q 67 478 67 274 q 101 778 67 676 q 228 924 136 881 q 501 967 319 967 q 687 956 589 967 q 842 933 785 944 l 842 732 q 719 744 797 738 q 597 751 642 751 q 424 738 469 751 q 364 673 378 725 q 350 478 350 621 q 360 295 350 351 q 404 219 371 239 q 514 199 438 199 l 590 201 l 590 369 l 479 369 z "},"Ǵ":{"ha":925,"x_min":67,"x_max":846,"o":"m 479 369 l 479 568 l 846 568 l 846 19 q 674 -3 771 6 q 501 -11 576 -11 q 227 29 318 -11 q 101 172 136 69 q 67 478 67 274 q 101 778 67 676 q 228 924 136 881 q 501 967 319 967 q 687 956 589 967 q 842 933 785 944 l 842 732 q 719 744 797 738 q 597 751 642 751 q 424 738 469 751 q 364 673 378 725 q 350 478 350 621 q 360 295 350 351 q 404 219 371 239 q 514 199 438 199 l 590 201 l 590 369 l 479 369 m 358 1029 l 358 1036 l 482 1233 l 729 1233 l 729 1226 l 542 1029 l 358 1029 z "},"Ğ":{"ha":925,"x_min":67,"x_max":846,"o":"m 479 369 l 479 568 l 846 568 l 846 19 q 674 -3 771 6 q 501 -11 576 -11 q 227 29 318 -11 q 101 172 136 69 q 67 478 67 274 q 101 778 67 676 q 228 924 136 881 q 501 967 319 967 q 687 956 589 967 q 842 933 785 944 l 842 732 q 719 744 797 738 q 597 751 642 751 q 424 738 469 751 q 364 673 378 725 q 350 478 350 621 q 360 295 350 351 q 404 219 371 239 q 514 199 438 199 l 590 201 l 590 369 l 479 369 m 678 1233 q 661 1120 678 1165 q 597 1049 644 1075 q 458 1024 549 1024 q 322 1049 369 1024 q 258 1120 274 1075 q 242 1233 242 1165 l 381 1233 q 384 1191 381 1206 q 405 1167 388 1176 q 458 1157 422 1157 q 513 1167 496 1157 q 535 1192 531 1176 q 539 1233 539 1207 l 678 1233 z "},"Ǧ":{"ha":925,"x_min":67,"x_max":846,"o":"m 479 369 l 479 568 l 846 568 l 846 19 q 674 -3 771 6 q 501 -11 576 -11 q 227 29 318 -11 q 101 172 136 69 q 67 478 67 274 q 101 778 67 676 q 228 924 136 881 q 501 967 319 967 q 687 956 589 967 q 842 933 785 944 l 842 732 q 719 744 797 738 q 597 751 642 751 q 424 738 469 751 q 364 673 378 725 q 350 478 350 621 q 360 295 350 351 q 404 219 371 239 q 514 199 438 199 l 590 201 l 590 369 l 479 369 m 342 1029 l 215 1222 l 215 1233 l 382 1233 l 463 1128 l 540 1233 l 706 1233 l 706 1222 l 578 1029 l 342 1029 z "},"Ĝ":{"ha":925,"x_min":67,"x_max":846,"o":"m 479 369 l 479 568 l 846 568 l 846 19 q 674 -3 771 6 q 501 -11 576 -11 q 227 29 318 -11 q 101 172 136 69 q 67 478 67 274 q 101 778 67 676 q 228 924 136 881 q 501 967 319 967 q 687 956 589 967 q 842 933 785 944 l 842 732 q 719 744 797 738 q 597 751 642 751 q 424 738 469 751 q 364 673 378 725 q 350 478 350 621 q 360 295 350 351 q 404 219 371 239 q 514 199 438 199 l 590 201 l 590 369 l 479 369 m 215 1029 l 215 1039 l 342 1233 l 578 1233 l 706 1039 l 706 1029 l 540 1029 l 460 1135 l 382 1029 l 215 1029 z "},"Ģ":{"ha":925,"x_min":67,"x_max":846,"o":"m 479 369 l 479 568 l 846 568 l 846 19 q 674 -3 771 6 q 501 -11 576 -11 q 227 29 318 -11 q 101 172 136 69 q 67 478 67 274 q 101 778 67 676 q 228 924 136 881 q 501 967 319 967 q 687 956 589 967 q 842 933 785 944 l 842 732 q 719 744 797 738 q 597 751 642 751 q 424 738 469 751 q 364 673 378 725 q 350 478 350 621 q 360 295 350 351 q 404 219 371 239 q 514 199 438 199 l 590 201 l 590 369 l 479 369 m 329 -308 q 391 -304 371 -308 q 418 -289 411 -300 q 425 -257 425 -278 l 425 -246 l 335 -246 l 335 -81 l 590 -81 l 590 -187 q 573 -322 590 -278 q 501 -383 556 -365 q 329 -401 447 -401 l 329 -308 z "},"Ġ":{"ha":925,"x_min":67,"x_max":846,"o":"m 479 369 l 479 568 l 846 568 l 846 19 q 674 -3 771 6 q 501 -11 576 -11 q 227 29 318 -11 q 101 172 136 69 q 67 478 67 274 q 101 778 67 676 q 228 924 136 881 q 501 967 319 967 q 687 956 589 967 q 842 933 785 944 l 842 732 q 719 744 797 738 q 597 751 642 751 q 424 738 469 751 q 364 673 378 725 q 350 478 350 621 q 360 295 350 351 q 404 219 371 239 q 514 199 438 199 l 590 201 l 590 369 l 479 369 m 357 1051 l 357 1215 l 564 1215 l 564 1051 l 357 1051 z "},"H":{"ha":978,"x_min":83,"x_max":894,"o":"m 608 0 l 608 361 l 369 361 l 369 0 l 83 0 l 83 956 l 369 956 l 369 597 l 608 597 l 608 956 l 894 956 l 894 0 l 608 0 z "},"Ħ":{"ha":978,"x_min":83,"x_max":894,"o":"m 608 956 l 894 956 l 894 0 l 608 0 l 608 306 l 369 306 l 369 0 l 83 0 l 83 956 l 369 956 l 369 835 l 608 835 l 608 956 m 369 542 l 608 542 l 608 658 l 369 658 l 369 542 z "},"Ĥ":{"ha":978,"x_min":83,"x_max":894,"o":"m 608 0 l 608 361 l 369 361 l 369 0 l 83 0 l 83 956 l 369 956 l 369 597 l 608 597 l 608 956 l 894 956 l 894 0 l 608 0 m 243 1029 l 243 1039 l 369 1233 l 606 1233 l 733 1039 l 733 1029 l 568 1029 l 488 1135 l 410 1029 l 243 1029 z "},"Ḥ":{"ha":978,"x_min":83,"x_max":894,"o":"m 608 0 l 608 361 l 369 361 l 369 0 l 83 0 l 83 956 l 369 956 l 369 597 l 608 597 l 608 956 l 894 956 l 894 0 l 608 0 m 353 -310 l 353 -86 l 625 -86 l 625 -310 l 353 -310 z "},"I":{"ha":454,"x_min":83,"x_max":369,"o":"m 83 0 l 83 956 l 369 956 l 369 0 l 83 0 z "},"Ĳ":{"ha":1042,"x_min":83,"x_max":958,"o":"m 83 0 l 83 956 l 369 956 l 369 0 l 83 0 m 483 201 q 619 212 583 203 q 664 252 654 221 q 674 372 674 283 l 674 956 l 958 956 l 958 444 q 934 128 958 211 q 821 23 910 46 q 483 0 732 0 l 483 201 z "},"Í":{"ha":454,"x_min":83,"x_max":458,"o":"m 83 0 l 83 956 l 369 956 l 369 0 l 83 0 m 88 1040 l 88 1047 l 211 1244 l 458 1244 l 458 1238 l 271 1040 l 88 1040 z "},"Ĭ":{"ha":454,"x_min":7,"x_max":443,"o":"m 83 0 l 83 956 l 369 956 l 369 0 l 83 0 m 443 1233 q 426 1120 443 1165 q 362 1049 410 1075 q 224 1024 314 1024 q 87 1049 135 1024 q 23 1120 39 1075 q 7 1233 7 1165 l 146 1233 q 149 1191 146 1206 q 170 1167 153 1176 q 224 1157 188 1157 q 278 1167 261 1157 q 300 1192 296 1176 q 304 1233 304 1207 l 443 1233 z "},"Ǐ":{"ha":454,"x_min":-19,"x_max":471,"o":"m 83 0 l 83 956 l 369 956 l 369 0 l 83 0 m 107 1029 l -19 1222 l -19 1233 l 147 1233 l 228 1128 l 306 1233 l 471 1233 l 471 1222 l 343 1029 l 107 1029 z "},"Î":{"ha":454,"x_min":-18,"x_max":472,"o":"m 83 0 l 83 956 l 369 956 l 369 0 l 83 0 m -18 1042 l -18 1051 l 108 1246 l 344 1246 l 472 1051 l 472 1042 l 307 1042 l 226 1147 l 149 1042 l -18 1042 z "},"Ȉ":{"ha":454,"x_min":-118,"x_max":447,"o":"m 83 0 l 83 956 l 369 956 l 369 0 l 83 0 m 185 1049 l 33 1049 l -118 1210 l -118 1215 l 82 1215 l 185 1056 l 185 1049 m 447 1049 l 299 1049 l 146 1210 l 146 1215 l 347 1215 l 447 1056 l 447 1049 z "},"Ï":{"ha":454,"x_min":-24,"x_max":479,"o":"m 83 0 l 83 956 l 369 956 l 369 0 l 83 0 m -24 1079 l -24 1243 l 183 1243 l 183 1079 l -24 1079 m 272 1079 l 272 1243 l 479 1243 l 479 1079 l 272 1079 z "},"İ":{"ha":454,"x_min":83,"x_max":369,"o":"m 83 0 l 83 956 l 369 956 l 369 0 l 83 0 m 122 1051 l 122 1215 l 329 1215 l 329 1051 l 122 1051 z "},"Ị":{"ha":454,"x_min":83,"x_max":369,"o":"m 83 0 l 83 956 l 369 956 l 369 0 l 83 0 m 90 -310 l 90 -86 l 363 -86 l 363 -310 l 90 -310 z "},"Ì":{"ha":454,"x_min":0,"x_max":371,"o":"m 83 0 l 83 956 l 369 956 l 369 0 l 83 0 m 188 1042 l 0 1239 l 0 1246 l 247 1246 l 371 1049 l 371 1042 l 188 1042 z "},"Ỉ":{"ha":454,"x_min":32,"x_max":421,"o":"m 83 0 l 83 956 l 369 956 l 369 0 l 83 0 m 124 1013 q 136 1082 124 1064 q 192 1111 149 1100 l 214 1118 q 250 1131 242 1125 q 258 1154 258 1138 q 243 1186 258 1181 q 176 1192 228 1192 q 32 1185 90 1192 l 32 1300 q 119 1311 67 1307 q 217 1315 171 1315 q 328 1307 288 1315 q 395 1267 369 1299 q 421 1171 421 1236 q 409 1106 421 1129 q 376 1072 397 1083 q 317 1050 356 1061 l 300 1046 q 265 1031 274 1038 q 257 1008 257 1024 l 124 1008 l 124 1013 z "},"Ȋ":{"ha":454,"x_min":7,"x_max":443,"o":"m 83 0 l 83 956 l 369 956 l 369 0 l 83 0 m 7 1031 q 24 1144 7 1099 q 88 1215 40 1189 q 226 1240 136 1240 q 363 1215 315 1240 q 427 1144 411 1189 q 443 1031 443 1099 l 304 1031 q 301 1073 304 1058 q 280 1097 297 1088 q 226 1107 263 1107 q 172 1097 189 1107 q 150 1072 154 1088 q 146 1031 146 1057 l 7 1031 z "},"Ī":{"ha":454,"x_min":28,"x_max":426,"o":"m 83 0 l 83 956 l 369 956 l 369 0 l 83 0 m 28 1029 l 28 1233 l 426 1233 l 426 1029 l 28 1029 z "},"Į":{"ha":454,"x_min":74,"x_max":371,"o":"m 264 -272 q 117 -239 161 -272 q 74 -153 74 -206 q 160 0 74 -79 l 83 0 l 83 956 l 369 956 l 369 0 q 309 -44 336 -17 q 282 -101 282 -72 q 347 -146 282 -146 l 371 -144 l 371 -267 q 264 -272 324 -272 z "},"Ĩ":{"ha":454,"x_min":-51,"x_max":504,"o":"m 83 0 l 83 956 l 369 956 l 369 0 l 83 0 m 504 1233 q 497 1112 504 1153 q 461 1047 490 1071 q 368 1024 432 1024 q 267 1035 319 1024 q 204 1047 214 1046 q 162 1056 196 1049 q 107 1064 128 1064 q 78 1053 83 1064 q 74 1007 74 1042 l -51 1007 q -44 1128 -51 1088 q -8 1193 -37 1169 q 85 1217 21 1217 q 249 1193 146 1217 l 278 1188 q 346 1178 326 1178 q 374 1188 369 1178 q 379 1233 379 1199 l 504 1233 z "},"J":{"ha":588,"x_min":29,"x_max":504,"o":"m 29 201 q 165 212 129 203 q 210 252 200 221 q 219 372 219 283 l 219 956 l 504 956 l 504 444 q 480 128 504 211 q 367 23 456 46 q 29 0 278 0 l 29 201 z "},"Ĵ":{"ha":588,"x_min":29,"x_max":607,"o":"m 29 201 q 165 212 129 203 q 210 252 200 221 q 219 372 219 283 l 219 956 l 504 956 l 504 444 q 480 128 504 211 q 367 23 456 46 q 29 0 278 0 l 29 201 m 117 1029 l 117 1039 l 243 1233 l 479 1233 l 607 1039 l 607 1029 l 442 1029 l 361 1135 l 283 1029 l 117 1029 z "},"K":{"ha":961,"x_min":86,"x_max":958,"o":"m 643 0 l 407 381 l 371 381 l 371 0 l 86 0 l 86 956 l 371 956 l 371 592 l 407 592 l 647 956 l 954 956 l 639 506 l 958 0 l 643 0 z "},"Ķ":{"ha":961,"x_min":86,"x_max":958,"o":"m 643 0 l 407 381 l 371 381 l 371 0 l 86 0 l 86 956 l 371 956 l 371 592 l 407 592 l 647 956 l 954 956 l 639 506 l 958 0 l 643 0 m 349 -308 q 410 -304 390 -308 q 438 -289 431 -300 q 444 -257 444 -278 l 444 -246 l 354 -246 l 354 -81 l 610 -81 l 610 -187 q 592 -322 610 -278 q 521 -383 575 -365 q 349 -401 467 -401 l 349 -308 z "},"L":{"ha":749,"x_min":86,"x_max":721,"o":"m 86 0 l 86 956 l 371 956 l 371 226 l 721 226 l 721 0 l 86 0 z "},"Ǉ":{"ha":1335,"x_min":86,"x_max":1253,"o":"m 86 0 l 86 956 l 371 956 l 371 226 l 721 226 l 721 0 l 86 0 m 778 201 q 913 212 878 203 q 958 252 949 221 q 968 372 968 283 l 968 956 l 1253 956 l 1253 444 q 1228 128 1253 211 q 1115 23 1204 46 q 778 0 1026 0 l 778 201 z "},"Ĺ":{"ha":749,"x_min":86,"x_max":721,"o":"m 86 0 l 86 956 l 371 956 l 371 226 l 721 226 l 721 0 l 86 0 m 192 1029 l 192 1036 l 315 1233 l 563 1233 l 563 1226 l 375 1029 l 192 1029 z "},"Ľ":{"ha":742,"x_min":86,"x_max":733,"o":"m 86 0 l 86 956 l 371 956 l 371 226 l 721 226 l 721 0 l 86 0 m 489 589 l 504 886 l 504 956 l 733 956 l 733 886 l 665 589 l 489 589 z "},"Ļ":{"ha":749,"x_min":86,"x_max":721,"o":"m 86 0 l 86 956 l 371 956 l 371 226 l 721 226 l 721 0 l 86 0 m 247 -308 q 309 -304 289 -308 q 336 -289 329 -300 q 343 -257 343 -278 l 343 -246 l 253 -246 l 253 -81 l 508 -81 l 508 -187 q 491 -322 508 -278 q 419 -383 474 -365 q 247 -401 365 -401 l 247 -308 z "},"Ŀ":{"ha":763,"x_min":86,"x_max":743,"o":"m 86 0 l 86 956 l 371 956 l 371 226 l 721 226 l 721 0 l 86 0 m 471 424 l 471 647 l 743 647 l 743 424 l 471 424 z "},"ǈ":{"ha":1160,"x_min":86,"x_max":1089,"o":"m 86 0 l 86 956 l 371 956 l 371 226 l 721 226 l 721 0 l 86 0 m 821 835 l 821 1032 l 1089 1032 l 1089 835 l 821 835 m 714 -100 q 786 -92 764 -100 q 815 -71 808 -85 q 821 -28 821 -57 l 821 708 l 1088 708 l 1088 31 q 1059 -176 1088 -114 q 957 -258 1031 -239 q 714 -276 883 -276 l 714 -100 z "},"Ł":{"ha":742,"x_min":8,"x_max":721,"o":"m 371 226 l 721 226 l 721 0 l 86 0 l 86 356 l 8 326 l 8 508 l 86 538 l 86 956 l 371 956 l 371 642 l 558 711 l 558 529 l 371 460 l 371 226 z "},"M":{"ha":1251,"x_min":83,"x_max":1168,"o":"m 894 0 l 894 569 l 882 569 l 717 0 l 526 0 l 363 569 l 350 569 l 350 0 l 83 0 l 83 956 l 475 956 l 621 461 l 632 461 l 778 956 l 1168 956 l 1168 0 l 894 0 z "},"N":{"ha":986,"x_min":83,"x_max":903,"o":"m 638 0 l 364 493 l 357 493 l 357 0 l 83 0 l 83 956 l 376 956 l 621 528 l 629 528 l 629 956 l 903 956 l 903 0 l 638 0 z "},"Ǌ":{"ha":1572,"x_min":83,"x_max":1490,"o":"m 638 0 l 364 493 l 357 493 l 357 0 l 83 0 l 83 956 l 376 956 l 621 528 l 629 528 l 629 956 l 903 956 l 903 0 l 638 0 m 1015 201 q 1151 212 1115 203 q 1196 252 1186 221 q 1206 372 1206 283 l 1206 956 l 1490 956 l 1490 444 q 1466 128 1490 211 q 1353 23 1442 46 q 1015 0 1264 0 l 1015 201 z "},"Ń":{"ha":986,"x_min":83,"x_max":903,"o":"m 638 0 l 364 493 l 357 493 l 357 0 l 83 0 l 83 956 l 376 956 l 621 528 l 629 528 l 629 956 l 903 956 l 903 0 l 638 0 m 390 1029 l 390 1036 l 514 1233 l 761 1233 l 761 1226 l 574 1029 l 390 1029 z "},"Ň":{"ha":986,"x_min":83,"x_max":903,"o":"m 638 0 l 364 493 l 357 493 l 357 0 l 83 0 l 83 956 l 376 956 l 621 528 l 629 528 l 629 956 l 903 956 l 903 0 l 638 0 m 374 1029 l 247 1222 l 247 1233 l 414 1233 l 494 1128 l 572 1233 l 738 1233 l 738 1222 l 610 1029 l 374 1029 z "},"Ņ":{"ha":986,"x_min":83,"x_max":903,"o":"m 638 0 l 364 493 l 357 493 l 357 0 l 83 0 l 83 956 l 376 956 l 621 528 l 629 528 l 629 956 l 903 956 l 903 0 l 638 0 m 361 -308 q 423 -304 403 -308 q 450 -289 443 -300 q 457 -257 457 -278 l 457 -246 l 367 -246 l 367 -81 l 622 -81 l 622 -187 q 605 -322 622 -278 q 533 -383 588 -365 q 361 -401 479 -401 l 361 -308 z "},"Ṅ":{"ha":986,"x_min":83,"x_max":903,"o":"m 638 0 l 364 493 l 357 493 l 357 0 l 83 0 l 83 956 l 376 956 l 621 528 l 629 528 l 629 956 l 903 956 l 903 0 l 638 0 m 389 1051 l 389 1215 l 596 1215 l 596 1051 l 389 1051 z "},"Ŋ":{"ha":986,"x_min":83,"x_max":903,"o":"m 903 956 l 903 31 q 874 -176 903 -114 q 769 -258 844 -239 q 522 -276 694 -276 l 522 -100 q 594 -92 572 -100 q 623 -71 617 -85 q 629 -28 629 -57 l 629 17 l 364 493 l 357 493 l 357 0 l 83 0 l 83 956 l 376 956 l 621 528 l 629 528 l 629 956 l 903 956 z "},"Ɲ":{"ha":986,"x_min":-22,"x_max":903,"o":"m 903 956 l 903 0 l 638 0 l 364 493 l 357 493 l 357 31 q 328 -176 357 -114 q 225 -258 300 -239 q -22 -276 150 -276 l -22 -100 q 49 -92 26 -100 q 78 -71 72 -85 q 83 -28 83 -57 l 83 956 l 376 956 l 621 528 l 629 528 l 629 956 l 903 956 z "},"ǋ":{"ha":1396,"x_min":83,"x_max":1326,"o":"m 638 0 l 364 493 l 357 493 l 357 0 l 83 0 l 83 956 l 376 956 l 621 528 l 629 528 l 629 956 l 903 956 l 903 0 l 638 0 m 1058 835 l 1058 1032 l 1326 1032 l 1326 835 l 1058 835 m 951 -100 q 1024 -92 1001 -100 q 1052 -71 1046 -85 q 1058 -28 1058 -57 l 1058 708 l 1325 708 l 1325 31 q 1297 -176 1325 -114 q 1194 -258 1268 -239 q 951 -276 1121 -276 l 951 -100 z "},"Ñ":{"ha":986,"x_min":83,"x_max":903,"o":"m 638 0 l 364 493 l 357 493 l 357 0 l 83 0 l 83 956 l 376 956 l 621 528 l 629 528 l 629 956 l 903 956 l 903 0 l 638 0 m 771 1269 q 764 1148 771 1189 q 728 1083 757 1107 q 635 1060 699 1060 q 533 1071 586 1060 q 471 1083 481 1082 q 428 1092 463 1085 q 374 1100 394 1100 q 345 1089 350 1100 q 340 1043 340 1078 l 215 1043 q 222 1165 215 1124 q 258 1229 229 1206 q 351 1253 288 1253 q 515 1229 413 1253 l 544 1224 q 613 1214 593 1214 q 641 1224 636 1214 q 646 1269 646 1235 l 771 1269 z "},"O":{"ha":975,"x_min":67,"x_max":908,"o":"m 488 -11 q 195 31 282 -11 q 88 166 108 74 q 67 478 67 258 q 88 790 67 697 q 195 924 108 882 q 488 967 282 967 q 780 924 693 967 q 888 790 867 882 q 908 478 908 697 q 888 166 908 258 q 780 31 867 74 q 488 -11 693 -11 m 488 204 q 583 217 558 204 q 613 281 607 231 q 619 478 619 332 q 613 674 619 624 q 583 738 607 725 q 488 751 558 751 q 392 738 417 751 q 362 675 368 725 q 356 478 356 625 q 362 281 356 331 q 392 217 368 231 q 488 204 417 204 z "},"Ó":{"ha":969,"x_min":67,"x_max":908,"o":"m 488 -11 q 195 31 282 -11 q 88 166 108 74 q 67 478 67 258 q 88 790 67 697 q 195 924 108 882 q 488 967 282 967 q 780 924 693 967 q 888 790 867 882 q 908 478 908 697 q 888 166 908 258 q 780 31 867 74 q 488 -11 693 -11 m 488 204 q 583 217 558 204 q 613 281 607 231 q 619 478 619 332 q 613 674 619 624 q 583 738 607 725 q 488 751 558 751 q 392 738 417 751 q 362 675 368 725 q 356 478 356 625 q 362 281 356 331 q 392 217 368 231 q 488 204 417 204 m 378 1042 l 378 1049 l 501 1246 l 749 1246 l 749 1239 l 561 1042 l 378 1042 z "},"Ŏ":{"ha":975,"x_min":67,"x_max":908,"o":"m 488 -11 q 195 31 282 -11 q 88 166 108 74 q 67 478 67 258 q 88 790 67 697 q 195 924 108 882 q 488 967 282 967 q 780 924 693 967 q 888 790 867 882 q 908 478 908 697 q 888 166 908 258 q 780 31 867 74 q 488 -11 693 -11 m 488 204 q 583 217 558 204 q 613 281 607 231 q 619 478 619 332 q 613 674 619 624 q 583 738 607 725 q 488 751 558 751 q 392 738 417 751 q 362 675 368 725 q 356 478 356 625 q 362 281 356 331 q 392 217 368 231 q 488 204 417 204 m 704 1233 q 688 1120 704 1165 q 623 1049 671 1075 q 485 1024 575 1024 q 348 1049 396 1024 q 284 1120 300 1075 q 268 1233 268 1165 l 407 1233 q 410 1191 407 1206 q 431 1167 414 1176 q 485 1157 449 1157 q 540 1167 522 1157 q 561 1192 557 1176 q 565 1233 565 1207 l 704 1233 z "},"Ǒ":{"ha":975,"x_min":67,"x_max":908,"o":"m 488 -11 q 195 31 282 -11 q 88 166 108 74 q 67 478 67 258 q 88 790 67 697 q 195 924 108 882 q 488 967 282 967 q 780 924 693 967 q 888 790 867 882 q 908 478 908 697 q 888 166 908 258 q 780 31 867 74 q 488 -11 693 -11 m 488 204 q 583 217 558 204 q 613 281 607 231 q 619 478 619 332 q 613 674 619 624 q 583 738 607 725 q 488 751 558 751 q 392 738 417 751 q 362 675 368 725 q 356 478 356 625 q 362 281 356 331 q 392 217 368 231 q 488 204 417 204 m 368 1029 l 242 1222 l 242 1233 l 408 1233 l 489 1128 l 567 1233 l 732 1233 l 732 1222 l 604 1029 l 368 1029 z "},"Ô":{"ha":969,"x_min":67,"x_max":908,"o":"m 488 -11 q 195 31 282 -11 q 88 166 108 74 q 67 478 67 258 q 88 790 67 697 q 195 924 108 882 q 488 967 282 967 q 780 924 693 967 q 888 790 867 882 q 908 478 908 697 q 888 166 908 258 q 780 31 867 74 q 488 -11 693 -11 m 488 204 q 583 217 558 204 q 613 281 607 231 q 619 478 619 332 q 613 674 619 624 q 583 738 607 725 q 488 751 558 751 q 392 738 417 751 q 362 675 368 725 q 356 478 356 625 q 362 281 356 331 q 392 217 368 231 q 488 204 417 204 m 239 1042 l 239 1051 l 365 1246 l 601 1246 l 729 1051 l 729 1042 l 564 1042 l 483 1147 l 406 1042 l 239 1042 z "},"Ố":{"ha":975,"x_min":67,"x_max":908,"o":"m 496 1269 l 496 1276 l 619 1474 l 867 1474 l 867 1467 l 679 1269 l 496 1269 m 240 1029 l 240 1039 l 367 1233 l 601 1233 l 729 1039 l 729 1029 l 565 1029 l 485 1135 l 407 1029 l 240 1029 m 488 -11 q 195 31 282 -11 q 88 166 108 74 q 67 478 67 258 q 88 790 67 697 q 195 924 108 882 q 488 967 282 967 q 780 924 693 967 q 888 790 867 882 q 908 478 908 697 q 888 166 908 258 q 780 31 867 74 q 488 -11 693 -11 m 488 204 q 583 217 558 204 q 613 281 607 231 q 619 478 619 332 q 613 674 619 624 q 583 738 607 725 q 488 751 558 751 q 392 738 417 751 q 362 675 368 725 q 356 478 356 625 q 362 281 356 331 q 392 217 368 231 q 488 204 417 204 z "},"Ộ":{"ha":975,"x_min":67,"x_max":908,"o":"m 488 -11 q 195 31 282 -11 q 88 166 108 74 q 67 478 67 258 q 88 790 67 697 q 195 924 108 882 q 488 967 282 967 q 780 924 693 967 q 888 790 867 882 q 908 478 908 697 q 888 166 908 258 q 780 31 867 74 q 488 -11 693 -11 m 488 204 q 583 217 558 204 q 613 281 607 231 q 619 478 619 332 q 613 674 619 624 q 583 738 607 725 q 488 751 558 751 q 392 738 417 751 q 362 675 368 725 q 356 478 356 625 q 362 281 356 331 q 392 217 368 231 q 488 204 417 204 m 351 -310 l 351 -86 l 624 -86 l 624 -310 l 351 -310 m 242 1029 l 242 1039 l 368 1233 l 604 1233 l 732 1039 l 732 1029 l 567 1029 l 486 1135 l 408 1029 l 242 1029 z "},"Ồ":{"ha":975,"x_min":67,"x_max":908,"o":"m 558 1269 l 371 1467 l 371 1474 l 618 1474 l 742 1276 l 742 1269 l 558 1269 m 229 1029 l 229 1039 l 356 1233 l 590 1233 l 718 1039 l 718 1029 l 554 1029 l 474 1135 l 396 1029 l 229 1029 m 488 -11 q 195 31 282 -11 q 88 166 108 74 q 67 478 67 258 q 88 790 67 697 q 195 924 108 882 q 488 967 282 967 q 780 924 693 967 q 888 790 867 882 q 908 478 908 697 q 888 166 908 258 q 780 31 867 74 q 488 -11 693 -11 m 488 204 q 583 217 558 204 q 613 281 607 231 q 619 478 619 332 q 613 674 619 624 q 583 738 607 725 q 488 751 558 751 q 392 738 417 751 q 362 675 368 725 q 356 478 356 625 q 362 281 356 331 q 392 217 368 231 q 488 204 417 204 z "},"Ổ":{"ha":975,"x_min":67,"x_max":908,"o":"m 556 1265 q 568 1335 556 1317 q 624 1364 581 1354 l 646 1371 q 683 1385 675 1378 q 690 1408 690 1392 q 675 1440 690 1433 q 608 1446 660 1446 q 535 1444 575 1446 q 464 1438 496 1442 l 464 1553 q 551 1564 499 1560 q 649 1568 603 1568 q 760 1560 719 1568 q 827 1522 801 1553 q 853 1424 853 1490 q 841 1359 853 1382 q 808 1326 829 1336 q 749 1304 788 1315 l 732 1299 q 697 1283 706 1290 q 689 1261 689 1276 l 556 1261 l 556 1265 m 242 1028 l 242 1038 l 368 1232 l 603 1232 l 731 1038 l 731 1028 l 567 1028 l 486 1133 l 408 1028 l 242 1028 m 488 -11 q 195 31 282 -11 q 88 166 108 74 q 67 478 67 258 q 88 790 67 697 q 195 924 108 882 q 488 967 282 967 q 780 924 693 967 q 888 790 867 882 q 908 478 908 697 q 888 166 908 258 q 780 31 867 74 q 488 -11 693 -11 m 488 204 q 583 217 558 204 q 613 281 607 231 q 619 478 619 332 q 613 674 619 624 q 583 738 607 725 q 488 751 558 751 q 392 738 417 751 q 362 675 368 725 q 356 478 356 625 q 362 281 356 331 q 392 217 368 231 q 488 204 417 204 z "},"Ỗ":{"ha":975,"x_min":67,"x_max":908,"o":"m 764 1474 q 757 1352 764 1393 q 722 1288 750 1311 q 629 1264 693 1264 q 528 1275 581 1264 q 465 1288 475 1286 q 423 1297 457 1289 q 368 1304 389 1304 q 340 1293 344 1304 q 335 1247 335 1282 l 210 1247 q 217 1369 210 1328 q 253 1433 224 1410 q 346 1457 282 1457 q 510 1433 407 1457 l 539 1428 q 607 1418 588 1418 q 635 1428 631 1418 q 640 1474 640 1439 l 764 1474 m 239 1029 l 239 1039 l 365 1233 l 600 1233 l 728 1039 l 728 1029 l 564 1029 l 483 1135 l 406 1029 l 239 1029 m 488 -11 q 195 31 282 -11 q 88 166 108 74 q 67 478 67 258 q 88 790 67 697 q 195 924 108 882 q 488 967 282 967 q 780 924 693 967 q 888 790 867 882 q 908 478 908 697 q 888 166 908 258 q 780 31 867 74 q 488 -11 693 -11 m 488 204 q 583 217 558 204 q 613 281 607 231 q 619 478 619 332 q 613 674 619 624 q 583 738 607 725 q 488 751 558 751 q 392 738 417 751 q 362 675 368 725 q 356 478 356 625 q 362 281 356 331 q 392 217 368 231 q 488 204 417 204 z "},"Ȍ":{"ha":975,"x_min":67,"x_max":908,"o":"m 488 -11 q 195 31 282 -11 q 88 166 108 74 q 67 478 67 258 q 88 790 67 697 q 195 924 108 882 q 488 967 282 967 q 780 924 693 967 q 888 790 867 882 q 908 478 908 697 q 888 166 908 258 q 780 31 867 74 q 488 -11 693 -11 m 488 204 q 583 217 558 204 q 613 281 607 231 q 619 478 619 332 q 613 674 619 624 q 583 738 607 725 q 488 751 558 751 q 392 738 417 751 q 362 675 368 725 q 356 478 356 625 q 362 281 356 331 q 392 217 368 231 q 488 204 417 204 m 446 1049 l 294 1049 l 143 1210 l 143 1215 l 343 1215 l 446 1056 l 446 1049 m 708 1049 l 560 1049 l 407 1210 l 407 1215 l 608 1215 l 708 1056 l 708 1049 z "},"Ö":{"ha":969,"x_min":67,"x_max":908,"o":"m 488 -11 q 195 31 282 -11 q 88 166 108 74 q 67 478 67 258 q 88 790 67 697 q 195 924 108 882 q 488 967 282 967 q 780 924 693 967 q 888 790 867 882 q 908 478 908 697 q 888 166 908 258 q 780 31 867 74 q 488 -11 693 -11 m 488 204 q 583 217 558 204 q 613 281 607 231 q 619 478 619 332 q 613 674 619 624 q 583 738 607 725 q 488 751 558 751 q 392 738 417 751 q 362 675 368 725 q 356 478 356 625 q 362 281 356 331 q 392 217 368 231 q 488 204 417 204 m 233 1079 l 233 1243 l 440 1243 l 440 1079 l 233 1079 m 529 1079 l 529 1243 l 736 1243 l 736 1079 l 529 1079 z "},"Ọ":{"ha":975,"x_min":67,"x_max":908,"o":"m 488 -11 q 195 31 282 -11 q 88 166 108 74 q 67 478 67 258 q 88 790 67 697 q 195 924 108 882 q 488 967 282 967 q 780 924 693 967 q 888 790 867 882 q 908 478 908 697 q 888 166 908 258 q 780 31 867 74 q 488 -11 693 -11 m 488 204 q 583 217 558 204 q 613 281 607 231 q 619 478 619 332 q 613 674 619 624 q 583 738 607 725 q 488 751 558 751 q 392 738 417 751 q 362 675 368 725 q 356 478 356 625 q 362 281 356 331 q 392 217 368 231 q 488 204 417 204 m 351 -310 l 351 -86 l 624 -86 l 624 -310 l 351 -310 z "},"Ò":{"ha":969,"x_min":67,"x_max":908,"o":"m 488 -11 q 195 31 282 -11 q 88 166 108 74 q 67 478 67 258 q 88 790 67 697 q 195 924 108 882 q 488 967 282 967 q 780 924 693 967 q 888 790 867 882 q 908 478 908 697 q 888 166 908 258 q 780 31 867 74 q 488 -11 693 -11 m 488 204 q 583 217 558 204 q 613 281 607 231 q 619 478 619 332 q 613 674 619 624 q 583 738 607 725 q 488 751 558 751 q 392 738 417 751 q 362 675 368 725 q 356 478 356 625 q 362 281 356 331 q 392 217 368 231 q 488 204 417 204 m 411 1042 l 224 1239 l 224 1246 l 471 1246 l 594 1049 l 594 1042 l 411 1042 z "},"Ỏ":{"ha":975,"x_min":67,"x_max":908,"o":"m 488 -11 q 195 31 282 -11 q 88 166 108 74 q 67 478 67 258 q 88 790 67 697 q 195 924 108 882 q 488 967 282 967 q 780 924 693 967 q 888 790 867 882 q 908 478 908 697 q 888 166 908 258 q 780 31 867 74 q 488 -11 693 -11 m 488 204 q 583 217 558 204 q 613 281 607 231 q 619 478 619 332 q 613 674 619 624 q 583 738 607 725 q 488 751 558 751 q 392 738 417 751 q 362 675 368 725 q 356 478 356 625 q 362 281 356 331 q 392 217 368 231 q 488 204 417 204 m 385 1013 q 397 1082 385 1064 q 453 1111 410 1100 l 475 1118 q 511 1131 503 1125 q 519 1154 519 1138 q 504 1186 519 1181 q 438 1192 489 1192 q 293 1185 351 1192 l 293 1300 q 380 1311 328 1307 q 478 1315 432 1315 q 590 1307 549 1315 q 656 1267 631 1299 q 682 1171 682 1236 q 670 1106 682 1129 q 638 1072 658 1083 q 578 1050 617 1061 l 561 1046 q 526 1031 535 1038 q 518 1008 518 1024 l 385 1008 l 385 1013 z "},"Ơ":{"ha":975,"x_min":67,"x_max":997,"o":"m 997 1079 l 997 1058 q 987 955 997 992 q 944 897 976 918 q 850 868 913 875 q 899 733 889 817 q 908 478 908 650 q 888 166 908 258 q 780 31 867 74 q 488 -11 693 -11 q 195 31 282 -11 q 88 166 108 74 q 67 478 67 258 q 88 790 67 697 q 195 924 108 882 q 488 967 282 967 q 683 953 608 967 l 683 956 l 736 956 q 798 964 778 956 q 824 990 818 972 q 831 1046 831 1008 l 831 1079 l 997 1079 m 488 204 q 583 217 558 204 q 613 281 607 231 q 619 478 619 332 q 613 674 619 624 q 583 738 607 725 q 488 751 558 751 q 392 738 417 751 q 362 675 368 725 q 356 478 356 625 q 362 281 356 331 q 392 217 368 231 q 488 204 417 204 z "},"Ớ":{"ha":975,"x_min":67,"x_max":997,"o":"m 997 1079 l 997 1058 q 987 955 997 992 q 944 897 976 918 q 850 868 913 875 q 899 733 889 817 q 908 478 908 650 q 888 166 908 258 q 780 31 867 74 q 488 -11 693 -11 q 195 31 282 -11 q 88 166 108 74 q 67 478 67 258 q 88 790 67 697 q 195 924 108 882 q 488 967 282 967 q 683 953 608 967 l 683 956 l 736 956 q 798 964 778 956 q 824 990 818 972 q 831 1046 831 1008 l 831 1079 l 997 1079 m 488 204 q 583 217 558 204 q 613 281 607 231 q 619 478 619 332 q 613 674 619 624 q 583 738 607 725 q 488 751 558 751 q 392 738 417 751 q 362 675 368 725 q 356 478 356 625 q 362 281 356 331 q 392 217 368 231 q 488 204 417 204 m 385 1029 l 385 1036 l 508 1233 l 756 1233 l 756 1226 l 568 1029 l 385 1029 z "},"Ợ":{"ha":975,"x_min":67,"x_max":997,"o":"m 997 1079 l 997 1058 q 987 955 997 992 q 944 897 976 918 q 850 868 913 875 q 899 733 889 817 q 908 478 908 650 q 888 166 908 258 q 780 31 867 74 q 488 -11 693 -11 q 195 31 282 -11 q 88 166 108 74 q 67 478 67 258 q 88 790 67 697 q 195 924 108 882 q 488 967 282 967 q 683 953 608 967 l 683 956 l 736 956 q 798 964 778 956 q 824 990 818 972 q 831 1046 831 1008 l 831 1079 l 997 1079 m 488 204 q 583 217 558 204 q 613 281 607 231 q 619 478 619 332 q 613 674 619 624 q 583 738 607 725 q 488 751 558 751 q 392 738 417 751 q 362 675 368 725 q 356 478 356 625 q 362 281 356 331 q 392 217 368 231 q 488 204 417 204 m 351 -310 l 351 -86 l 624 -86 l 624 -310 l 351 -310 z "},"Ờ":{"ha":975,"x_min":67,"x_max":997,"o":"m 997 1079 l 997 1058 q 987 955 997 992 q 944 897 976 918 q 850 868 913 875 q 899 733 889 817 q 908 478 908 650 q 888 166 908 258 q 780 31 867 74 q 488 -11 693 -11 q 195 31 282 -11 q 88 166 108 74 q 67 478 67 258 q 88 790 67 697 q 195 924 108 882 q 488 967 282 967 q 683 953 608 967 l 683 956 l 736 956 q 798 964 778 956 q 824 990 818 972 q 831 1046 831 1008 l 831 1079 l 997 1079 m 488 204 q 583 217 558 204 q 613 281 607 231 q 619 478 619 332 q 613 674 619 624 q 583 738 607 725 q 488 751 558 751 q 392 738 417 751 q 362 675 368 725 q 356 478 356 625 q 362 281 356 331 q 392 217 368 231 q 488 204 417 204 m 410 1029 l 222 1226 l 222 1233 l 469 1233 l 593 1036 l 593 1029 l 410 1029 z "},"Ở":{"ha":975,"x_min":67,"x_max":997,"o":"m 997 1079 l 997 1058 q 987 955 997 992 q 944 897 976 918 q 850 868 913 875 q 899 733 889 817 q 908 478 908 650 q 888 166 908 258 q 780 31 867 74 q 488 -11 693 -11 q 195 31 282 -11 q 88 166 108 74 q 67 478 67 258 q 88 790 67 697 q 195 924 108 882 q 488 967 282 967 q 683 953 608 967 l 683 956 l 736 956 q 798 964 778 956 q 824 990 818 972 q 831 1046 831 1008 l 831 1079 l 997 1079 m 488 204 q 583 217 558 204 q 613 281 607 231 q 619 478 619 332 q 613 674 619 624 q 583 738 607 725 q 488 751 558 751 q 392 738 417 751 q 362 675 368 725 q 356 478 356 625 q 362 281 356 331 q 392 217 368 231 q 488 204 417 204 m 385 1013 q 397 1082 385 1064 q 453 1111 410 1100 l 475 1118 q 511 1131 503 1125 q 519 1154 519 1138 q 504 1186 519 1181 q 438 1192 489 1192 q 293 1185 351 1192 l 293 1300 q 380 1311 328 1307 q 478 1315 432 1315 q 590 1307 549 1315 q 656 1267 631 1299 q 682 1171 682 1236 q 670 1106 682 1129 q 638 1072 658 1083 q 578 1050 617 1061 l 561 1046 q 526 1031 535 1038 q 518 1008 518 1024 l 385 1008 l 385 1013 z "},"Ỡ":{"ha":975,"x_min":67,"x_max":997,"o":"m 997 1079 l 997 1058 q 987 955 997 992 q 944 897 976 918 q 850 868 913 875 q 899 733 889 817 q 908 478 908 650 q 888 166 908 258 q 780 31 867 74 q 488 -11 693 -11 q 195 31 282 -11 q 88 166 108 74 q 67 478 67 258 q 88 790 67 697 q 195 924 108 882 q 488 967 282 967 q 683 953 608 967 l 683 956 l 736 956 q 798 964 778 956 q 824 990 818 972 q 831 1046 831 1008 l 831 1079 l 997 1079 m 488 204 q 583 217 558 204 q 613 281 607 231 q 619 478 619 332 q 613 674 619 624 q 583 738 607 725 q 488 751 558 751 q 392 738 417 751 q 362 675 368 725 q 356 478 356 625 q 362 281 356 331 q 392 217 368 231 q 488 204 417 204 m 765 1233 q 758 1112 765 1153 q 722 1047 751 1071 q 629 1024 693 1024 q 528 1035 581 1024 q 465 1047 475 1046 q 423 1056 457 1049 q 368 1064 389 1064 q 340 1053 344 1064 q 335 1007 335 1042 l 210 1007 q 217 1128 210 1088 q 253 1193 224 1169 q 346 1217 282 1217 q 510 1193 407 1217 l 539 1188 q 607 1178 588 1178 q 635 1188 631 1178 q 640 1233 640 1199 l 765 1233 z "},"Ő":{"ha":975,"x_min":67,"x_max":908,"o":"m 488 -11 q 195 31 282 -11 q 88 166 108 74 q 67 478 67 258 q 88 790 67 697 q 195 924 108 882 q 488 967 282 967 q 780 924 693 967 q 888 790 867 882 q 908 478 908 697 q 888 166 908 258 q 780 31 867 74 q 488 -11 693 -11 m 488 204 q 583 217 558 204 q 613 281 607 231 q 619 478 619 332 q 613 674 619 624 q 583 738 607 725 q 488 751 558 751 q 392 738 417 751 q 362 675 368 725 q 356 478 356 625 q 362 281 356 331 q 392 217 368 231 q 488 204 417 204 m 282 1049 l 282 1056 l 382 1215 l 583 1215 l 583 1210 l 431 1049 l 282 1049 m 544 1049 l 544 1056 l 647 1215 l 847 1215 l 847 1210 l 696 1049 l 544 1049 z "},"Ȏ":{"ha":975,"x_min":67,"x_max":908,"o":"m 488 -11 q 195 31 282 -11 q 88 166 108 74 q 67 478 67 258 q 88 790 67 697 q 195 924 108 882 q 488 967 282 967 q 780 924 693 967 q 888 790 867 882 q 908 478 908 697 q 888 166 908 258 q 780 31 867 74 q 488 -11 693 -11 m 488 204 q 583 217 558 204 q 613 281 607 231 q 619 478 619 332 q 613 674 619 624 q 583 738 607 725 q 488 751 558 751 q 392 738 417 751 q 362 675 368 725 q 356 478 356 625 q 362 281 356 331 q 392 217 368 231 q 488 204 417 204 m 268 1031 q 285 1144 268 1099 q 349 1215 301 1189 q 488 1240 397 1240 q 624 1215 576 1240 q 688 1144 672 1189 q 704 1031 704 1099 l 565 1031 q 562 1073 565 1058 q 541 1097 558 1088 q 488 1107 524 1107 q 433 1097 450 1107 q 411 1072 415 1088 q 407 1031 407 1057 l 268 1031 z "},"Ō":{"ha":975,"x_min":67,"x_max":908,"o":"m 488 -11 q 195 31 282 -11 q 88 166 108 74 q 67 478 67 258 q 88 790 67 697 q 195 924 108 882 q 488 967 282 967 q 780 924 693 967 q 888 790 867 882 q 908 478 908 697 q 888 166 908 258 q 780 31 867 74 q 488 -11 693 -11 m 488 204 q 583 217 558 204 q 613 281 607 231 q 619 478 619 332 q 613 674 619 624 q 583 738 607 725 q 488 751 558 751 q 392 738 417 751 q 362 675 368 725 q 356 478 356 625 q 362 281 356 331 q 392 217 368 231 q 488 204 417 204 m 289 1029 l 289 1233 l 688 1233 l 688 1029 l 289 1029 z "},"Ǫ":{"ha":969,"x_min":67,"x_max":903,"o":"m 647 -272 q 501 -239 544 -272 q 457 -153 457 -206 q 524 -11 457 -82 l 485 -11 q 194 31 281 -11 q 88 166 108 74 q 67 478 67 258 q 88 790 67 697 q 194 924 108 882 q 485 967 281 967 q 775 924 689 967 q 882 790 861 882 q 903 478 903 697 q 896 249 903 328 q 862 115 889 169 q 775 32 835 61 q 667 -101 667 -21 q 731 -146 667 -146 l 756 -144 l 756 -267 q 647 -272 689 -272 m 485 203 q 579 216 556 203 q 610 280 603 229 q 617 478 617 331 q 610 676 617 625 q 579 740 603 726 q 485 753 556 753 q 390 740 414 753 q 360 676 367 726 q 354 478 354 626 q 360 279 354 329 q 390 216 367 229 q 485 203 414 203 z "},"Ø":{"ha":969,"x_min":67,"x_max":908,"o":"m 825 894 q 881 807 864 861 q 903 681 899 753 q 908 478 908 608 q 888 166 908 258 q 780 31 867 74 q 488 -11 693 -11 q 324 -3 393 -11 l 282 -76 l 67 -76 l 146 64 q 92 152 110 97 q 71 278 75 207 q 67 478 67 350 q 88 790 67 697 q 195 924 108 882 q 488 967 282 967 q 644 960 571 967 l 686 1032 l 903 1032 l 825 894 m 488 204 q 583 217 558 204 q 613 281 607 231 q 619 478 619 332 q 613 674 619 624 q 583 738 607 725 q 488 751 558 751 q 392 738 417 751 q 362 675 368 725 q 356 478 356 625 q 362 281 356 331 q 392 217 368 231 q 488 204 417 204 z "},"Ǿ":{"ha":969,"x_min":67,"x_max":908,"o":"m 825 894 q 881 807 864 861 q 903 681 899 753 q 908 478 908 608 q 888 166 908 258 q 780 31 867 74 q 488 -11 693 -11 q 324 -3 393 -11 l 282 -76 l 67 -76 l 146 64 q 92 152 110 97 q 71 278 75 207 q 67 478 67 350 q 88 790 67 697 q 195 924 108 882 q 488 967 282 967 q 644 960 571 967 l 686 1032 l 903 1032 l 825 894 m 488 204 q 583 217 558 204 q 613 281 607 231 q 619 478 619 332 q 613 674 619 624 q 583 738 607 725 q 488 751 558 751 q 392 738 417 751 q 362 675 368 725 q 356 478 356 625 q 362 281 356 331 q 392 217 368 231 q 488 204 417 204 m 383 1029 l 383 1036 l 507 1233 l 754 1233 l 754 1226 l 567 1029 l 383 1029 z "},"Õ":{"ha":969,"x_min":67,"x_max":908,"o":"m 488 -11 q 195 31 282 -11 q 88 166 108 74 q 67 478 67 258 q 88 790 67 697 q 195 924 108 882 q 488 967 282 967 q 780 924 693 967 q 888 790 867 882 q 908 478 908 697 q 888 166 908 258 q 780 31 867 74 q 488 -11 693 -11 m 488 204 q 583 217 558 204 q 613 281 607 231 q 619 478 619 332 q 613 674 619 624 q 583 738 607 725 q 488 751 558 751 q 392 738 417 751 q 362 675 368 725 q 356 478 356 625 q 362 281 356 331 q 392 217 368 231 q 488 204 417 204 m 765 1268 q 758 1147 765 1188 q 722 1082 751 1106 q 629 1058 693 1058 q 528 1069 581 1058 q 465 1082 475 1081 q 423 1091 457 1083 q 368 1099 389 1099 q 340 1088 344 1099 q 335 1042 335 1076 l 210 1042 q 217 1163 210 1122 q 253 1228 224 1204 q 346 1251 282 1251 q 510 1228 407 1251 l 539 1222 q 607 1213 588 1213 q 635 1223 631 1213 q 640 1268 640 1233 l 765 1268 z "},"Œ":{"ha":1379,"x_min":67,"x_max":1308,"o":"m 488 0 q 195 42 282 0 q 88 174 108 83 q 67 478 67 264 q 88 782 67 692 q 195 914 108 872 q 488 956 282 956 l 1308 956 l 1308 740 l 979 740 q 881 751 914 740 q 907 589 900 693 l 1243 589 l 1243 376 l 907 376 q 881 204 904 268 q 979 215 914 215 l 1308 215 l 1308 0 l 488 0 m 488 215 q 583 228 558 215 q 613 290 607 242 q 619 478 619 338 q 613 666 619 618 q 583 727 607 714 q 488 740 558 740 q 392 727 417 740 q 362 667 368 714 q 356 478 356 619 q 362 289 356 336 q 392 228 368 242 q 488 215 417 215 z "},"P":{"ha":894,"x_min":86,"x_max":857,"o":"m 86 956 l 560 956 q 749 919 685 956 q 835 814 814 883 q 857 626 857 744 q 837 447 857 515 q 752 338 817 378 q 560 299 688 299 l 371 299 l 371 0 l 86 0 l 86 956 m 447 510 q 530 517 506 510 q 562 548 554 525 q 569 626 569 571 q 562 706 569 683 q 531 736 554 729 q 447 743 507 743 l 371 743 l 371 510 l 447 510 z "},"Þ":{"ha":894,"x_min":86,"x_max":857,"o":"m 86 956 l 371 956 l 371 818 l 560 818 q 749 781 685 818 q 835 676 814 744 q 857 489 857 607 q 837 308 857 376 q 752 199 817 239 q 560 160 688 160 l 371 160 l 371 0 l 86 0 l 86 956 m 447 371 q 530 378 506 371 q 562 409 554 386 q 569 489 569 432 q 562 567 569 544 q 530 598 554 590 q 447 606 506 606 l 371 606 l 371 371 l 447 371 z "},"Q":{"ha":969,"x_min":67,"x_max":960,"o":"m 564 -8 q 485 -11 514 -11 q 194 31 281 -11 q 88 166 108 74 q 67 478 67 258 q 88 790 67 697 q 194 924 108 882 q 485 967 281 967 q 775 924 689 967 q 882 790 861 882 q 903 478 903 697 q 884 202 903 294 q 810 65 865 110 l 960 -150 l 960 -160 l 664 -160 l 564 -8 m 485 203 q 579 216 556 203 q 610 280 603 229 q 617 478 617 331 q 610 676 617 625 q 579 740 603 726 q 485 753 556 753 q 390 740 414 753 q 360 676 367 726 q 354 478 354 626 q 360 279 354 329 q 390 216 367 229 q 485 203 414 203 z "},"R":{"ha":935,"x_min":86,"x_max":892,"o":"m 596 0 l 486 326 l 371 326 l 371 0 l 86 0 l 86 956 l 568 956 q 763 920 697 956 q 849 819 828 885 q 871 640 871 753 q 847 465 871 535 q 753 361 824 396 l 892 0 l 596 0 m 461 531 q 545 538 521 531 q 577 565 569 544 q 585 636 585 586 q 578 708 585 688 q 547 735 571 728 q 463 743 522 743 l 371 743 l 371 531 l 461 531 z "},"Ŕ":{"ha":935,"x_min":86,"x_max":892,"o":"m 596 0 l 486 326 l 371 326 l 371 0 l 86 0 l 86 956 l 568 956 q 763 920 697 956 q 849 819 828 885 q 871 640 871 753 q 847 465 871 535 q 753 361 824 396 l 892 0 l 596 0 m 461 531 q 545 538 521 531 q 577 565 569 544 q 585 636 585 586 q 578 708 585 688 q 547 735 571 728 q 463 743 522 743 l 371 743 l 371 531 l 461 531 m 365 1029 l 365 1036 l 489 1233 l 736 1233 l 736 1226 l 549 1029 l 365 1029 z "},"Ř":{"ha":935,"x_min":86,"x_max":892,"o":"m 596 0 l 486 326 l 371 326 l 371 0 l 86 0 l 86 956 l 568 956 q 763 920 697 956 q 849 819 828 885 q 871 640 871 753 q 847 465 871 535 q 753 361 824 396 l 892 0 l 596 0 m 461 531 q 545 538 521 531 q 577 565 569 544 q 585 636 585 586 q 578 708 585 688 q 547 735 571 728 q 463 743 522 743 l 371 743 l 371 531 l 461 531 m 349 1029 l 222 1222 l 222 1233 l 389 1233 l 469 1128 l 547 1233 l 713 1233 l 713 1222 l 585 1029 l 349 1029 z "},"Ŗ":{"ha":935,"x_min":86,"x_max":892,"o":"m 596 0 l 486 326 l 371 326 l 371 0 l 86 0 l 86 956 l 568 956 q 763 920 697 956 q 849 819 828 885 q 871 640 871 753 q 847 465 871 535 q 753 361 824 396 l 892 0 l 596 0 m 461 531 q 545 538 521 531 q 577 565 569 544 q 585 636 585 586 q 578 708 585 688 q 547 735 571 728 q 463 743 522 743 l 371 743 l 371 531 l 461 531 m 336 -308 q 398 -304 378 -308 q 425 -289 418 -300 q 432 -257 432 -278 l 432 -246 l 342 -246 l 342 -81 l 597 -81 l 597 -187 q 580 -322 597 -278 q 508 -383 563 -365 q 336 -401 454 -401 l 336 -308 z "},"Ȑ":{"ha":935,"x_min":86,"x_max":892,"o":"m 596 0 l 486 326 l 371 326 l 371 0 l 86 0 l 86 956 l 568 956 q 763 920 697 956 q 849 819 828 885 q 871 640 871 753 q 847 465 871 535 q 753 361 824 396 l 892 0 l 596 0 m 461 531 q 545 538 521 531 q 577 565 569 544 q 585 636 585 586 q 578 708 585 688 q 547 735 571 728 q 463 743 522 743 l 371 743 l 371 531 l 461 531 m 426 1049 l 275 1049 l 124 1210 l 124 1215 l 324 1215 l 426 1056 l 426 1049 m 689 1049 l 540 1049 l 388 1210 l 388 1215 l 589 1215 l 689 1056 l 689 1049 z "},"Ṛ":{"ha":935,"x_min":86,"x_max":892,"o":"m 596 0 l 486 326 l 371 326 l 371 0 l 86 0 l 86 956 l 568 956 q 763 920 697 956 q 849 819 828 885 q 871 640 871 753 q 847 465 871 535 q 753 361 824 396 l 892 0 l 596 0 m 461 531 q 545 538 521 531 q 577 565 569 544 q 585 636 585 586 q 578 708 585 688 q 547 735 571 728 q 463 743 522 743 l 371 743 l 371 531 l 461 531 m 332 -310 l 332 -86 l 604 -86 l 604 -310 l 332 -310 z "},"Ȓ":{"ha":935,"x_min":86,"x_max":892,"o":"m 596 0 l 486 326 l 371 326 l 371 0 l 86 0 l 86 956 l 568 956 q 763 920 697 956 q 849 819 828 885 q 871 640 871 753 q 847 465 871 535 q 753 361 824 396 l 892 0 l 596 0 m 461 531 q 545 538 521 531 q 577 565 569 544 q 585 636 585 586 q 578 708 585 688 q 547 735 571 728 q 463 743 522 743 l 371 743 l 371 531 l 461 531 m 249 1031 q 265 1144 249 1099 q 330 1215 282 1189 q 468 1240 378 1240 q 605 1215 557 1240 q 669 1144 653 1189 q 685 1031 685 1099 l 546 1031 q 542 1073 546 1058 q 522 1097 539 1088 q 468 1107 504 1107 q 413 1097 431 1107 q 392 1072 396 1088 q 388 1031 388 1057 l 249 1031 z "},"S":{"ha":854,"x_min":54,"x_max":800,"o":"m 449 -11 q 82 14 243 -11 l 82 219 q 360 204 268 204 q 453 208 422 204 q 497 221 485 211 q 511 242 508 229 q 514 282 514 256 q 508 326 514 313 q 481 345 501 339 q 408 358 460 351 l 239 379 q 92 464 131 392 q 54 674 54 536 q 101 859 54 794 q 228 945 149 924 q 428 967 308 967 q 751 938 601 967 l 751 735 q 478 751 604 751 q 364 739 388 751 q 345 719 350 731 q 340 685 340 707 q 344 642 340 654 q 365 624 349 629 q 419 613 381 618 l 593 592 q 697 564 657 583 q 765 496 738 544 q 800 307 800 436 q 756 101 800 169 q 639 10 713 32 q 449 -11 565 -11 z "},"Ś":{"ha":854,"x_min":54,"x_max":800,"o":"m 449 -11 q 82 14 243 -11 l 82 219 q 360 204 268 204 q 453 208 422 204 q 497 221 485 211 q 511 242 508 229 q 514 282 514 256 q 508 326 514 313 q 481 345 501 339 q 408 358 460 351 l 239 379 q 92 464 131 392 q 54 674 54 536 q 101 859 54 794 q 228 945 149 924 q 428 967 308 967 q 751 938 601 967 l 751 735 q 478 751 604 751 q 364 739 388 751 q 345 719 350 731 q 340 685 340 707 q 344 642 340 654 q 365 624 349 629 q 419 613 381 618 l 593 592 q 697 564 657 583 q 765 496 738 544 q 800 307 800 436 q 756 101 800 169 q 639 10 713 32 q 449 -11 565 -11 m 325 1029 l 325 1036 l 449 1233 l 696 1233 l 696 1226 l 508 1029 l 325 1029 z "},"Ꞌ":{"ha":321,"x_min":46,"x_max":275,"o":"m 46 367 l 46 956 l 275 956 l 275 721 l 222 367 l 46 367 z "},"Š":{"ha":850,"x_min":54,"x_max":800,"o":"m 449 -11 q 82 14 243 -11 l 82 219 q 360 204 268 204 q 453 208 422 204 q 497 221 485 211 q 511 242 508 229 q 514 282 514 256 q 508 326 514 313 q 481 345 501 339 q 408 358 460 351 l 239 379 q 92 464 131 392 q 54 674 54 536 q 101 859 54 794 q 228 945 149 924 q 428 967 308 967 q 751 938 601 967 l 751 735 q 478 751 604 751 q 364 739 388 751 q 345 719 350 731 q 340 685 340 707 q 344 642 340 654 q 365 624 349 629 q 419 613 381 618 l 593 592 q 697 564 657 583 q 765 496 738 544 q 800 307 800 436 q 756 101 800 169 q 639 10 713 32 q 449 -11 565 -11 m 311 1042 l 185 1235 l 185 1246 l 351 1246 l 432 1140 l 510 1246 l 675 1246 l 675 1235 l 547 1042 l 311 1042 z "},"Ş":{"ha":854,"x_min":54,"x_max":800,"o":"m 800 307 q 765 117 800 185 q 667 22 729 49 q 511 -10 604 -6 l 467 -262 l 233 -262 l 233 -256 l 336 -8 q 82 14 197 -4 l 82 219 q 360 204 268 204 q 453 208 422 204 q 497 221 485 211 q 511 242 508 229 q 514 282 514 256 q 508 326 514 313 q 481 345 501 339 q 408 358 460 351 l 239 379 q 92 464 131 392 q 54 674 54 536 q 101 859 54 794 q 228 945 149 924 q 428 967 308 967 q 751 938 601 967 l 751 735 q 478 751 604 751 q 364 739 388 751 q 345 719 350 731 q 340 685 340 707 q 344 642 340 654 q 365 624 349 629 q 419 613 381 618 l 593 592 q 697 564 657 583 q 765 496 738 544 q 800 307 800 436 z "},"Ŝ":{"ha":854,"x_min":54,"x_max":800,"o":"m 449 -11 q 82 14 243 -11 l 82 219 q 360 204 268 204 q 453 208 422 204 q 497 221 485 211 q 511 242 508 229 q 514 282 514 256 q 508 326 514 313 q 481 345 501 339 q 408 358 460 351 l 239 379 q 92 464 131 392 q 54 674 54 536 q 101 859 54 794 q 228 945 149 924 q 428 967 308 967 q 751 938 601 967 l 751 735 q 478 751 604 751 q 364 739 388 751 q 345 719 350 731 q 340 685 340 707 q 344 642 340 654 q 365 624 349 629 q 419 613 381 618 l 593 592 q 697 564 657 583 q 765 496 738 544 q 800 307 800 436 q 756 101 800 169 q 639 10 713 32 q 449 -11 565 -11 m 182 1029 l 182 1039 l 308 1233 l 544 1233 l 672 1039 l 672 1029 l 507 1029 l 426 1135 l 349 1029 l 182 1029 z "},"Ș":{"ha":854,"x_min":54,"x_max":800,"o":"m 449 -11 q 82 14 243 -11 l 82 219 q 360 204 268 204 q 453 208 422 204 q 497 221 485 211 q 511 242 508 229 q 514 282 514 256 q 508 326 514 313 q 481 345 501 339 q 408 358 460 351 l 239 379 q 92 464 131 392 q 54 674 54 536 q 101 859 54 794 q 228 945 149 924 q 428 967 308 967 q 751 938 601 967 l 751 735 q 478 751 604 751 q 364 739 388 751 q 345 719 350 731 q 340 685 340 707 q 344 642 340 654 q 365 624 349 629 q 419 613 381 618 l 593 592 q 697 564 657 583 q 765 496 738 544 q 800 307 800 436 q 756 101 800 169 q 639 10 713 32 q 449 -11 565 -11 m 296 -308 q 358 -304 338 -308 q 385 -289 378 -300 q 392 -257 392 -278 l 392 -246 l 301 -246 l 301 -81 l 557 -81 l 557 -187 q 540 -322 557 -278 q 468 -383 522 -365 q 296 -401 414 -401 l 296 -308 z "},"Ṣ":{"ha":854,"x_min":54,"x_max":800,"o":"m 449 -11 q 82 14 243 -11 l 82 219 q 360 204 268 204 q 453 208 422 204 q 497 221 485 211 q 511 242 508 229 q 514 282 514 256 q 508 326 514 313 q 481 345 501 339 q 408 358 460 351 l 239 379 q 92 464 131 392 q 54 674 54 536 q 101 859 54 794 q 228 945 149 924 q 428 967 308 967 q 751 938 601 967 l 751 735 q 478 751 604 751 q 364 739 388 751 q 345 719 350 731 q 340 685 340 707 q 344 642 340 654 q 365 624 349 629 q 419 613 381 618 l 593 592 q 697 564 657 583 q 765 496 738 544 q 800 307 800 436 q 756 101 800 169 q 639 10 713 32 q 449 -11 565 -11 m 292 -310 l 292 -86 l 564 -86 l 564 -310 l 292 -310 z "},"ẞ":{"ha":1069,"x_min":82,"x_max":1008,"o":"m 771 524 q 906 488 854 515 q 983 404 957 460 q 1008 256 1008 349 q 976 108 1008 165 q 865 19 944 50 q 646 -11 785 -11 q 546 -2 601 -11 q 450 19 490 7 l 450 219 q 596 203 536 203 q 679 208 654 203 q 713 229 704 213 q 722 286 722 246 q 713 347 722 328 q 681 372 704 365 q 611 378 658 378 l 483 378 l 483 560 l 651 749 q 549 753 604 753 q 420 734 456 753 q 376 660 385 715 q 367 456 367 604 l 367 0 l 82 0 l 82 456 q 110 777 82 674 q 226 924 139 881 q 499 967 313 967 q 961 918 696 967 l 961 738 l 771 524 z "},"Ə":{"ha":958,"x_min":67,"x_max":883,"o":"m 447 967 q 733 923 642 967 q 853 780 824 879 q 883 478 883 681 q 863 167 883 260 q 757 31 842 74 q 471 -11 672 -11 q 190 31 274 -11 q 87 167 107 74 q 67 478 67 260 l 67 589 l 596 589 q 576 698 593 665 q 517 741 560 731 q 379 751 475 751 q 178 739 281 751 l 178 944 q 304 960 228 954 q 447 967 381 967 m 471 201 q 558 210 533 201 q 593 254 583 219 q 606 376 603 289 l 346 376 q 356 254 347 289 q 389 210 365 219 q 471 201 413 201 z "},"T":{"ha":824,"x_min":19,"x_max":804,"o":"m 268 0 l 268 729 l 19 729 l 19 956 l 804 956 l 804 729 l 554 729 l 554 0 l 268 0 z "},"Ŧ":{"ha":822,"x_min":19,"x_max":804,"o":"m 804 729 l 554 729 l 554 533 l 772 533 l 772 356 l 554 356 l 554 0 l 268 0 l 268 356 l 49 356 l 49 533 l 268 533 l 268 729 l 19 729 l 19 956 l 804 956 l 804 729 z "},"Ť":{"ha":824,"x_min":19,"x_max":804,"o":"m 268 0 l 268 729 l 19 729 l 19 956 l 804 956 l 804 729 l 554 729 l 554 0 l 268 0 m 293 1029 l 167 1222 l 167 1233 l 333 1233 l 414 1128 l 492 1233 l 657 1233 l 657 1222 l 529 1029 l 293 1029 z "},"Ţ":{"ha":824,"x_min":19,"x_max":804,"o":"m 19 956 l 804 956 l 804 729 l 554 729 l 554 0 l 497 0 l 451 -262 l 218 -262 l 218 -256 l 325 0 l 268 0 l 268 729 l 19 729 l 19 956 z "},"Ț":{"ha":824,"x_min":19,"x_max":804,"o":"m 268 0 l 268 729 l 19 729 l 19 956 l 804 956 l 804 729 l 554 729 l 554 0 l 268 0 m 281 -308 q 342 -304 322 -308 q 369 -289 363 -300 q 376 -257 376 -278 l 376 -246 l 286 -246 l 286 -81 l 542 -81 l 542 -187 q 524 -322 542 -278 q 453 -383 507 -365 q 281 -401 399 -401 l 281 -308 z "},"Ṭ":{"ha":824,"x_min":19,"x_max":804,"o":"m 268 0 l 268 729 l 19 729 l 19 956 l 804 956 l 804 729 l 554 729 l 554 0 l 268 0 m 276 -310 l 276 -86 l 549 -86 l 549 -310 l 276 -310 z "},"U":{"ha":946,"x_min":82,"x_max":864,"o":"m 864 956 l 864 436 q 842 154 864 240 q 740 28 821 68 q 472 -11 660 -11 q 205 28 286 -11 q 103 154 124 68 q 82 436 82 240 l 82 956 l 367 956 l 367 383 q 372 260 367 293 q 398 216 378 226 q 472 206 418 206 q 548 216 528 206 q 574 260 568 226 q 579 383 579 293 l 579 956 l 864 956 z "},"Ú":{"ha":946,"x_min":82,"x_max":864,"o":"m 864 956 l 864 436 q 842 154 864 240 q 740 28 821 68 q 472 -11 660 -11 q 205 28 286 -11 q 103 154 124 68 q 82 436 82 240 l 82 956 l 367 956 l 367 383 q 372 260 367 293 q 398 216 378 226 q 472 206 418 206 q 548 216 528 206 q 574 260 568 226 q 579 383 579 293 l 579 956 l 864 956 m 375 1042 l 375 1049 l 499 1246 l 746 1246 l 746 1239 l 558 1042 l 375 1042 z "},"Ŭ":{"ha":946,"x_min":82,"x_max":864,"o":"m 864 956 l 864 436 q 842 154 864 240 q 740 28 821 68 q 472 -11 660 -11 q 205 28 286 -11 q 103 154 124 68 q 82 436 82 240 l 82 956 l 367 956 l 367 383 q 372 260 367 293 q 398 216 378 226 q 472 206 418 206 q 548 216 528 206 q 574 260 568 226 q 579 383 579 293 l 579 956 l 864 956 m 690 1233 q 674 1120 690 1165 q 609 1049 657 1075 q 471 1024 561 1024 q 334 1049 382 1024 q 270 1120 286 1075 q 254 1233 254 1165 l 393 1233 q 397 1191 393 1206 q 417 1167 400 1176 q 471 1157 435 1157 q 526 1167 508 1157 q 547 1192 543 1176 q 551 1233 551 1207 l 690 1233 z "},"Ǔ":{"ha":946,"x_min":82,"x_max":864,"o":"m 864 956 l 864 436 q 842 154 864 240 q 740 28 821 68 q 472 -11 660 -11 q 205 28 286 -11 q 103 154 124 68 q 82 436 82 240 l 82 956 l 367 956 l 367 383 q 372 260 367 293 q 398 216 378 226 q 472 206 418 206 q 548 216 528 206 q 574 260 568 226 q 579 383 579 293 l 579 956 l 864 956 m 354 1029 l 228 1222 l 228 1233 l 394 1233 l 475 1128 l 553 1233 l 718 1233 l 718 1222 l 590 1029 l 354 1029 z "},"Û":{"ha":946,"x_min":82,"x_max":864,"o":"m 864 956 l 864 436 q 842 154 864 240 q 740 28 821 68 q 472 -11 660 -11 q 205 28 286 -11 q 103 154 124 68 q 82 436 82 240 l 82 956 l 367 956 l 367 383 q 372 260 367 293 q 398 216 378 226 q 472 206 418 206 q 548 216 528 206 q 574 260 568 226 q 579 383 579 293 l 579 956 l 864 956 m 229 1042 l 229 1051 l 356 1246 l 592 1246 l 719 1051 l 719 1042 l 554 1042 l 474 1147 l 396 1042 l 229 1042 z "},"Ȕ":{"ha":946,"x_min":82,"x_max":864,"o":"m 864 956 l 864 436 q 842 154 864 240 q 740 28 821 68 q 472 -11 660 -11 q 205 28 286 -11 q 103 154 124 68 q 82 436 82 240 l 82 956 l 367 956 l 367 383 q 372 260 367 293 q 398 216 378 226 q 472 206 418 206 q 548 216 528 206 q 574 260 568 226 q 579 383 579 293 l 579 956 l 864 956 m 432 1049 l 281 1049 l 129 1210 l 129 1215 l 329 1215 l 432 1056 l 432 1049 m 694 1049 l 546 1049 l 393 1210 l 393 1215 l 594 1215 l 694 1056 l 694 1049 z "},"Ü":{"ha":946,"x_min":82,"x_max":864,"o":"m 864 956 l 864 436 q 842 154 864 240 q 740 28 821 68 q 472 -11 660 -11 q 205 28 286 -11 q 103 154 124 68 q 82 436 82 240 l 82 956 l 367 956 l 367 383 q 372 260 367 293 q 398 216 378 226 q 472 206 418 206 q 548 216 528 206 q 574 260 568 226 q 579 383 579 293 l 579 956 l 864 956 m 221 1079 l 221 1243 l 428 1243 l 428 1079 l 221 1079 m 517 1079 l 517 1243 l 724 1243 l 724 1079 l 517 1079 z "},"Ǘ":{"ha":946,"x_min":82,"x_max":864,"o":"m 429 1206 l 429 1050 l 222 1050 l 222 1214 l 375 1214 l 497 1408 l 744 1408 l 744 1401 l 565 1214 l 725 1214 l 725 1050 l 518 1050 l 518 1206 l 429 1206 m 864 956 l 864 436 q 842 154 864 240 q 740 28 821 68 q 472 -11 660 -11 q 205 28 286 -11 q 103 154 124 68 q 82 436 82 240 l 82 956 l 367 956 l 367 383 q 372 260 367 293 q 398 216 378 226 q 472 206 418 206 q 548 216 528 206 q 574 260 568 226 q 579 383 579 293 l 579 956 l 864 956 z "},"Ǚ":{"ha":946,"x_min":82,"x_max":864,"o":"m 429 1206 l 429 1050 l 222 1050 l 222 1214 l 351 1214 l 231 1397 l 231 1408 l 397 1408 l 478 1304 l 556 1408 l 721 1408 l 721 1397 l 599 1214 l 725 1214 l 725 1050 l 518 1050 l 518 1206 l 429 1206 m 864 956 l 864 436 q 842 154 864 240 q 740 28 821 68 q 472 -11 660 -11 q 205 28 286 -11 q 103 154 124 68 q 82 436 82 240 l 82 956 l 367 956 l 367 383 q 372 260 367 293 q 398 216 378 226 q 472 206 418 206 q 548 216 528 206 q 574 260 568 226 q 579 383 579 293 l 579 956 l 864 956 z "},"Ǜ":{"ha":946,"x_min":82,"x_max":864,"o":"m 222 1214 l 390 1214 l 211 1401 l 211 1408 l 458 1408 l 581 1214 l 725 1214 l 725 1050 l 518 1050 l 518 1206 l 429 1206 l 429 1050 l 222 1050 l 222 1214 m 864 956 l 864 436 q 842 154 864 240 q 740 28 821 68 q 472 -11 660 -11 q 205 28 286 -11 q 103 154 124 68 q 82 436 82 240 l 82 956 l 367 956 l 367 383 q 372 260 367 293 q 398 216 378 226 q 472 206 418 206 q 548 216 528 206 q 574 260 568 226 q 579 383 579 293 l 579 956 l 864 956 z "},"Ǖ":{"ha":946,"x_min":82,"x_max":864,"o":"m 278 1267 l 278 1426 l 676 1426 l 676 1267 l 278 1267 m 222 1050 l 222 1214 l 429 1214 l 429 1050 l 222 1050 m 518 1050 l 518 1214 l 725 1214 l 725 1050 l 518 1050 m 864 956 l 864 436 q 842 154 864 240 q 740 28 821 68 q 472 -11 660 -11 q 205 28 286 -11 q 103 154 124 68 q 82 436 82 240 l 82 956 l 367 956 l 367 383 q 372 260 367 293 q 398 216 378 226 q 472 206 418 206 q 548 216 528 206 q 574 260 568 226 q 579 383 579 293 l 579 956 l 864 956 z "},"Ụ":{"ha":946,"x_min":82,"x_max":864,"o":"m 864 956 l 864 436 q 842 154 864 240 q 740 28 821 68 q 472 -11 660 -11 q 205 28 286 -11 q 103 154 124 68 q 82 436 82 240 l 82 956 l 367 956 l 367 383 q 372 260 367 293 q 398 216 378 226 q 472 206 418 206 q 548 216 528 206 q 574 260 568 226 q 579 383 579 293 l 579 956 l 864 956 m 338 -310 l 338 -86 l 610 -86 l 610 -310 l 338 -310 z "},"Ù":{"ha":946,"x_min":82,"x_max":864,"o":"m 864 956 l 864 436 q 842 154 864 240 q 740 28 821 68 q 472 -11 660 -11 q 205 28 286 -11 q 103 154 124 68 q 82 436 82 240 l 82 956 l 367 956 l 367 383 q 372 260 367 293 q 398 216 378 226 q 472 206 418 206 q 548 216 528 206 q 574 260 568 226 q 579 383 579 293 l 579 956 l 864 956 m 396 1042 l 208 1239 l 208 1246 l 456 1246 l 579 1049 l 579 1042 l 396 1042 z "},"Ủ":{"ha":946,"x_min":82,"x_max":864,"o":"m 864 956 l 864 436 q 842 154 864 240 q 740 28 821 68 q 472 -11 660 -11 q 205 28 286 -11 q 103 154 124 68 q 82 436 82 240 l 82 956 l 367 956 l 367 383 q 372 260 367 293 q 398 216 378 226 q 472 206 418 206 q 548 216 528 206 q 574 260 568 226 q 579 383 579 293 l 579 956 l 864 956 m 371 1013 q 383 1082 371 1064 q 439 1111 396 1100 l 461 1118 q 497 1131 489 1125 q 506 1154 506 1138 q 490 1186 506 1181 q 424 1192 475 1192 q 279 1185 338 1192 l 279 1300 q 366 1311 314 1307 q 464 1315 418 1315 q 576 1307 535 1315 q 642 1267 617 1299 q 668 1171 668 1236 q 656 1106 668 1129 q 624 1072 644 1083 q 564 1050 603 1061 l 547 1046 q 513 1031 521 1038 q 504 1008 504 1024 l 371 1008 l 371 1013 z "},"Ư":{"ha":946,"x_min":82,"x_max":983,"o":"m 983 1079 l 983 1058 q 974 962 983 997 q 940 904 965 926 q 864 872 914 882 l 864 436 q 842 154 864 240 q 740 28 821 68 q 472 -11 660 -11 q 205 28 286 -11 q 103 154 124 68 q 82 436 82 240 l 82 956 l 367 956 l 367 383 q 372 260 367 293 q 398 216 378 226 q 472 206 418 206 q 548 216 528 206 q 574 260 568 226 q 579 383 579 293 l 579 956 l 722 956 q 784 964 764 956 q 810 990 804 972 q 817 1046 817 1008 l 817 1079 l 983 1079 z "},"Ứ":{"ha":946,"x_min":82,"x_max":983,"o":"m 983 1079 l 983 1058 q 974 962 983 997 q 940 904 965 926 q 864 872 914 882 l 864 436 q 842 154 864 240 q 740 28 821 68 q 472 -11 660 -11 q 205 28 286 -11 q 103 154 124 68 q 82 436 82 240 l 82 956 l 367 956 l 367 383 q 372 260 367 293 q 398 216 378 226 q 472 206 418 206 q 548 216 528 206 q 574 260 568 226 q 579 383 579 293 l 579 956 l 722 956 q 784 964 764 956 q 810 990 804 972 q 817 1046 817 1008 l 817 1079 l 983 1079 m 371 1029 l 371 1036 l 494 1233 l 742 1233 l 742 1226 l 554 1029 l 371 1029 z "},"Ự":{"ha":946,"x_min":82,"x_max":983,"o":"m 983 1079 l 983 1058 q 974 962 983 997 q 940 904 965 926 q 864 872 914 882 l 864 436 q 842 154 864 240 q 740 28 821 68 q 472 -11 660 -11 q 205 28 286 -11 q 103 154 124 68 q 82 436 82 240 l 82 956 l 367 956 l 367 383 q 372 260 367 293 q 398 216 378 226 q 472 206 418 206 q 548 216 528 206 q 574 260 568 226 q 579 383 579 293 l 579 956 l 722 956 q 784 964 764 956 q 810 990 804 972 q 817 1046 817 1008 l 817 1079 l 983 1079 m 338 -310 l 338 -86 l 610 -86 l 610 -310 l 338 -310 z "},"Ừ":{"ha":946,"x_min":82,"x_max":983,"o":"m 983 1079 l 983 1058 q 974 962 983 997 q 940 904 965 926 q 864 872 914 882 l 864 436 q 842 154 864 240 q 740 28 821 68 q 472 -11 660 -11 q 205 28 286 -11 q 103 154 124 68 q 82 436 82 240 l 82 956 l 367 956 l 367 383 q 372 260 367 293 q 398 216 378 226 q 472 206 418 206 q 548 216 528 206 q 574 260 568 226 q 579 383 579 293 l 579 956 l 722 956 q 784 964 764 956 q 810 990 804 972 q 817 1046 817 1008 l 817 1079 l 983 1079 m 396 1029 l 208 1226 l 208 1233 l 456 1233 l 579 1036 l 579 1029 l 396 1029 z "},"Ử":{"ha":946,"x_min":82,"x_max":983,"o":"m 983 1079 l 983 1058 q 974 962 983 997 q 940 904 965 926 q 864 872 914 882 l 864 436 q 842 154 864 240 q 740 28 821 68 q 472 -11 660 -11 q 205 28 286 -11 q 103 154 124 68 q 82 436 82 240 l 82 956 l 367 956 l 367 383 q 372 260 367 293 q 398 216 378 226 q 472 206 418 206 q 548 216 528 206 q 574 260 568 226 q 579 383 579 293 l 579 956 l 722 956 q 784 964 764 956 q 810 990 804 972 q 817 1046 817 1008 l 817 1079 l 983 1079 m 371 1013 q 383 1082 371 1064 q 439 1111 396 1100 l 461 1118 q 497 1131 489 1125 q 506 1154 506 1138 q 490 1186 506 1181 q 424 1192 475 1192 q 279 1185 338 1192 l 279 1300 q 366 1311 314 1307 q 464 1315 418 1315 q 576 1307 535 1315 q 642 1267 617 1299 q 668 1171 668 1236 q 656 1106 668 1129 q 624 1072 644 1083 q 564 1050 603 1061 l 547 1046 q 513 1031 521 1038 q 504 1008 504 1024 l 371 1008 l 371 1013 z "},"Ữ":{"ha":946,"x_min":82,"x_max":983,"o":"m 983 1079 l 983 1058 q 974 962 983 997 q 940 904 965 926 q 864 872 914 882 l 864 436 q 842 154 864 240 q 740 28 821 68 q 472 -11 660 -11 q 205 28 286 -11 q 103 154 124 68 q 82 436 82 240 l 82 956 l 367 956 l 367 383 q 372 260 367 293 q 398 216 378 226 q 472 206 418 206 q 548 216 528 206 q 574 260 568 226 q 579 383 579 293 l 579 956 l 722 956 q 784 964 764 956 q 810 990 804 972 q 817 1046 817 1008 l 817 1079 l 983 1079 m 751 1233 q 744 1112 751 1153 q 708 1047 738 1071 q 615 1024 679 1024 q 514 1035 567 1024 q 451 1047 461 1046 q 409 1056 443 1049 q 354 1064 375 1064 q 326 1053 331 1064 q 321 1007 321 1042 l 196 1007 q 203 1128 196 1088 q 239 1193 210 1169 q 332 1217 268 1217 q 496 1193 393 1217 l 525 1188 q 593 1178 574 1178 q 622 1188 617 1178 q 626 1233 626 1199 l 751 1233 z "},"Ű":{"ha":946,"x_min":82,"x_max":864,"o":"m 864 956 l 864 436 q 842 154 864 240 q 740 28 821 68 q 472 -11 660 -11 q 205 28 286 -11 q 103 154 124 68 q 82 436 82 240 l 82 956 l 367 956 l 367 383 q 372 260 367 293 q 398 216 378 226 q 472 206 418 206 q 548 216 528 206 q 574 260 568 226 q 579 383 579 293 l 579 956 l 864 956 m 268 1049 l 268 1056 l 368 1215 l 569 1215 l 569 1210 l 417 1049 l 268 1049 m 531 1049 l 531 1056 l 633 1215 l 833 1215 l 833 1210 l 682 1049 l 531 1049 z "},"Ȗ":{"ha":946,"x_min":82,"x_max":864,"o":"m 864 956 l 864 436 q 842 154 864 240 q 740 28 821 68 q 472 -11 660 -11 q 205 28 286 -11 q 103 154 124 68 q 82 436 82 240 l 82 956 l 367 956 l 367 383 q 372 260 367 293 q 398 216 378 226 q 472 206 418 206 q 548 216 528 206 q 574 260 568 226 q 579 383 579 293 l 579 956 l 864 956 m 254 1031 q 271 1144 254 1099 q 335 1215 288 1189 q 474 1240 383 1240 q 610 1215 563 1240 q 674 1144 658 1189 q 690 1031 690 1099 l 551 1031 q 548 1073 551 1058 q 527 1097 544 1088 q 474 1107 510 1107 q 419 1097 436 1107 q 397 1072 401 1088 q 393 1031 393 1057 l 254 1031 z "},"Ū":{"ha":946,"x_min":82,"x_max":864,"o":"m 864 956 l 864 436 q 842 154 864 240 q 740 28 821 68 q 472 -11 660 -11 q 205 28 286 -11 q 103 154 124 68 q 82 436 82 240 l 82 956 l 367 956 l 367 383 q 372 260 367 293 q 398 216 378 226 q 472 206 418 206 q 548 216 528 206 q 574 260 568 226 q 579 383 579 293 l 579 956 l 864 956 m 275 1029 l 275 1233 l 674 1233 l 674 1029 l 275 1029 z "},"Ų":{"ha":946,"x_min":82,"x_max":864,"o":"m 864 956 l 864 436 q 857 226 864 300 q 823 103 850 153 q 738 26 796 53 q 657 -26 686 3 q 628 -99 628 -56 q 642 -133 628 -121 q 693 -146 657 -146 l 717 -144 l 717 -267 q 608 -272 653 -272 q 419 -151 419 -272 q 438 -81 419 -117 q 490 -11 457 -44 l 471 -11 q 204 28 285 -11 q 103 154 124 68 q 82 436 82 240 l 82 956 l 367 956 l 367 383 q 372 260 367 293 q 398 216 378 226 q 472 206 418 206 q 548 216 528 206 q 574 260 568 226 q 579 383 579 293 l 579 956 l 864 956 z "},"Ů":{"ha":946,"x_min":82,"x_max":864,"o":"m 864 956 l 864 436 q 842 154 864 240 q 740 28 821 68 q 472 -11 660 -11 q 205 28 286 -11 q 103 154 124 68 q 82 436 82 240 l 82 956 l 367 956 l 367 383 q 372 260 367 293 q 398 216 378 226 q 472 206 418 206 q 548 216 528 206 q 574 260 568 226 q 579 383 579 293 l 579 956 l 864 956 m 471 982 q 333 997 378 982 q 276 1047 289 1013 q 263 1149 263 1081 q 276 1252 263 1218 q 333 1302 289 1286 q 471 1318 378 1318 q 610 1302 565 1318 q 668 1251 654 1286 q 682 1149 682 1217 q 668 1047 682 1081 q 610 997 654 1013 q 471 982 565 982 m 471 1082 q 526 1088 510 1082 q 547 1106 543 1093 q 550 1149 550 1118 q 547 1193 550 1181 q 526 1212 543 1206 q 471 1218 510 1218 q 417 1212 433 1218 q 398 1193 401 1206 q 394 1149 394 1181 q 398 1106 394 1118 q 417 1088 401 1093 q 471 1082 433 1082 z "},"Ũ":{"ha":946,"x_min":82,"x_max":864,"o":"m 864 956 l 864 436 q 842 154 864 240 q 740 28 821 68 q 472 -11 660 -11 q 205 28 286 -11 q 103 154 124 68 q 82 436 82 240 l 82 956 l 367 956 l 367 383 q 372 260 367 293 q 398 216 378 226 q 472 206 418 206 q 548 216 528 206 q 574 260 568 226 q 579 383 579 293 l 579 956 l 864 956 m 751 1233 q 744 1112 751 1153 q 708 1047 738 1071 q 615 1024 679 1024 q 514 1035 567 1024 q 451 1047 461 1046 q 409 1056 443 1049 q 354 1064 375 1064 q 326 1053 331 1064 q 321 1007 321 1042 l 196 1007 q 203 1128 196 1088 q 239 1193 210 1169 q 332 1217 268 1217 q 496 1193 393 1217 l 525 1188 q 593 1178 574 1178 q 622 1188 617 1178 q 626 1233 626 1199 l 751 1233 z "},"V":{"ha":921,"x_min":4,"x_max":915,"o":"m 271 0 l 4 956 l 296 956 l 457 308 l 469 308 l 629 956 l 915 956 l 649 0 l 271 0 z "},"W":{"ha":1363,"x_min":10,"x_max":1368,"o":"m 811 0 l 694 524 l 683 524 l 568 0 l 207 0 l 10 956 l 294 956 l 404 324 l 417 324 l 546 956 l 839 956 l 971 324 l 983 324 l 1083 956 l 1368 956 l 1171 0 l 811 0 z "},"Ẃ":{"ha":1361,"x_min":10,"x_max":1367,"o":"m 811 0 l 694 524 l 683 524 l 568 0 l 207 0 l 10 956 l 294 956 l 404 324 l 417 324 l 546 956 l 839 956 l 971 324 l 983 324 l 1083 956 l 1368 956 l 1171 0 l 811 0 m 579 1029 l 579 1036 l 703 1233 l 950 1233 l 950 1226 l 763 1029 l 579 1029 z "},"Ŵ":{"ha":1361,"x_min":10,"x_max":1367,"o":"m 811 0 l 694 524 l 683 524 l 568 0 l 207 0 l 10 956 l 294 956 l 404 324 l 417 324 l 546 956 l 839 956 l 971 324 l 983 324 l 1083 956 l 1368 956 l 1171 0 l 811 0 m 436 1029 l 436 1039 l 563 1233 l 799 1233 l 926 1039 l 926 1029 l 761 1029 l 681 1135 l 603 1029 l 436 1029 z "},"Ẅ":{"ha":1361,"x_min":10,"x_max":1367,"o":"m 811 0 l 694 524 l 683 524 l 568 0 l 207 0 l 10 956 l 294 956 l 404 324 l 417 324 l 546 956 l 839 956 l 971 324 l 983 324 l 1083 956 l 1368 956 l 1171 0 l 811 0 m 431 1051 l 431 1215 l 638 1215 l 638 1051 l 431 1051 m 726 1051 l 726 1215 l 933 1215 l 933 1051 l 726 1051 z "},"Ẁ":{"ha":1361,"x_min":10,"x_max":1367,"o":"m 811 0 l 694 524 l 683 524 l 568 0 l 207 0 l 10 956 l 294 956 l 404 324 l 417 324 l 546 956 l 839 956 l 971 324 l 983 324 l 1083 956 l 1368 956 l 1171 0 l 811 0 m 604 1029 l 417 1226 l 417 1233 l 664 1233 l 788 1036 l 788 1029 l 604 1029 z "},"X":{"ha":964,"x_min":13,"x_max":951,"o":"m 632 0 l 483 264 l 469 264 l 321 0 l 13 0 l 303 481 l 18 956 l 338 956 l 481 697 l 493 697 l 639 956 l 947 956 l 663 486 l 951 0 l 632 0 z "},"Y":{"ha":903,"x_min":-1,"x_max":903,"o":"m 308 0 l 308 317 l -1 956 l 292 956 l 450 582 l 460 582 l 618 956 l 903 956 l 594 317 l 594 0 l 308 0 z "},"Ý":{"ha":903,"x_min":-1,"x_max":903,"o":"m 308 0 l 308 317 l -1 956 l 292 956 l 450 582 l 460 582 l 618 956 l 903 956 l 594 317 l 594 0 l 308 0 m 363 1042 l 363 1049 l 486 1246 l 733 1246 l 733 1239 l 546 1042 l 363 1042 z "},"Ŷ":{"ha":903,"x_min":-1,"x_max":903,"o":"m 308 0 l 308 317 l -1 956 l 292 956 l 450 582 l 460 582 l 618 956 l 903 956 l 594 317 l 594 0 l 308 0 m 206 1029 l 206 1039 l 332 1233 l 568 1233 l 696 1039 l 696 1029 l 531 1029 l 450 1135 l 372 1029 l 206 1029 z "},"Ÿ":{"ha":903,"x_min":-1,"x_max":903,"o":"m 308 0 l 308 317 l -1 956 l 292 956 l 450 582 l 460 582 l 618 956 l 903 956 l 594 317 l 594 0 l 308 0 m 206 1079 l 206 1243 l 413 1243 l 413 1079 l 206 1079 m 501 1079 l 501 1243 l 708 1243 l 708 1079 l 501 1079 z "},"Ỵ":{"ha":903,"x_min":-1,"x_max":903,"o":"m 308 0 l 308 317 l -1 956 l 292 956 l 450 582 l 460 582 l 618 956 l 903 956 l 594 317 l 594 0 l 308 0 m 315 -310 l 315 -86 l 588 -86 l 588 -310 l 315 -310 z "},"Ỳ":{"ha":903,"x_min":-1,"x_max":903,"o":"m 308 0 l 308 317 l -1 956 l 292 956 l 450 582 l 460 582 l 618 956 l 903 956 l 594 317 l 594 0 l 308 0 m 374 1029 l 186 1226 l 186 1233 l 433 1233 l 557 1036 l 557 1029 l 374 1029 z "},"Ỷ":{"ha":903,"x_min":-1,"x_max":903,"o":"m 308 0 l 308 317 l -1 956 l 292 956 l 450 582 l 460 582 l 618 956 l 903 956 l 594 317 l 594 0 l 308 0 m 349 1013 q 361 1082 349 1064 q 417 1111 374 1100 l 439 1118 q 475 1131 467 1125 q 483 1154 483 1138 q 468 1186 483 1181 q 401 1192 453 1192 q 257 1185 315 1192 l 257 1300 q 344 1311 292 1307 q 442 1315 396 1315 q 553 1307 513 1315 q 620 1267 594 1299 q 646 1171 646 1236 q 634 1106 646 1129 q 601 1072 622 1083 q 542 1050 581 1061 l 525 1046 q 490 1031 499 1038 q 482 1008 482 1024 l 349 1008 l 349 1013 z "},"Ȳ":{"ha":903,"x_min":-1,"x_max":903,"o":"m 308 0 l 308 317 l -1 956 l 292 956 l 450 582 l 460 582 l 618 956 l 903 956 l 594 317 l 594 0 l 308 0 m 253 1029 l 253 1233 l 651 1233 l 651 1029 l 253 1029 z "},"Ỹ":{"ha":903,"x_min":-1,"x_max":903,"o":"m 308 0 l 308 317 l -1 956 l 292 956 l 450 582 l 460 582 l 618 956 l 903 956 l 594 317 l 594 0 l 308 0 m 729 1233 q 722 1112 729 1153 q 686 1047 715 1071 q 593 1024 657 1024 q 492 1035 544 1024 q 429 1047 439 1046 q 387 1056 421 1049 q 332 1064 353 1064 q 303 1053 308 1064 q 299 1007 299 1042 l 174 1007 q 181 1128 174 1088 q 217 1193 188 1169 q 310 1217 246 1217 q 474 1193 371 1217 l 503 1188 q 571 1178 551 1178 q 599 1188 594 1178 q 604 1233 604 1199 l 729 1233 z "},"Z":{"ha":863,"x_min":57,"x_max":806,"o":"m 57 0 l 57 207 l 454 740 l 72 740 l 72 956 l 806 956 l 806 754 l 403 215 l 806 215 l 806 0 l 57 0 z "},"Ź":{"ha":863,"x_min":57,"x_max":806,"o":"m 57 0 l 57 207 l 454 740 l 72 740 l 72 956 l 806 956 l 806 754 l 403 215 l 806 215 l 806 0 l 57 0 m 328 1029 l 328 1036 l 451 1233 l 699 1233 l 699 1226 l 511 1029 l 328 1029 z "},"Ž":{"ha":857,"x_min":57,"x_max":806,"o":"m 57 0 l 57 207 l 454 740 l 72 740 l 72 956 l 806 956 l 806 754 l 403 215 l 806 215 l 806 0 l 57 0 m 321 1043 l 194 1236 l 194 1247 l 361 1247 l 442 1142 l 519 1247 l 685 1247 l 685 1236 l 557 1043 l 321 1043 z "},"Ż":{"ha":863,"x_min":57,"x_max":806,"o":"m 57 0 l 57 207 l 454 740 l 72 740 l 72 956 l 806 956 l 806 754 l 403 215 l 806 215 l 806 0 l 57 0 m 326 1051 l 326 1215 l 533 1215 l 533 1051 l 326 1051 z "},"Ẓ":{"ha":863,"x_min":57,"x_max":806,"o":"m 57 0 l 57 207 l 454 740 l 72 740 l 72 956 l 806 956 l 806 754 l 403 215 l 806 215 l 806 0 l 57 0 m 294 -310 l 294 -86 l 567 -86 l 567 -310 l 294 -310 z "},"a":{"ha":786,"x_min":46,"x_max":714,"o":"m 243 -11 q 95 40 144 -11 q 46 204 46 92 q 65 333 46 288 q 132 399 83 379 q 272 419 181 419 q 451 414 335 419 l 451 439 q 441 501 451 483 q 401 522 431 518 q 292 526 371 526 q 85 518 199 526 l 85 696 q 374 719 224 719 q 600 688 528 719 q 693 596 672 656 q 714 422 714 536 l 714 0 l 460 0 l 454 81 l 442 81 q 356 6 403 24 q 243 -11 310 -11 m 367 167 q 415 174 397 167 q 440 199 432 181 q 451 268 451 219 l 451 300 l 361 300 q 314 295 328 300 q 295 276 300 290 q 290 229 290 263 q 295 190 290 203 q 315 172 300 178 q 367 167 331 167 z "},"á":{"ha":786,"x_min":46,"x_max":714,"o":"m 243 -11 q 95 40 144 -11 q 46 204 46 92 q 65 333 46 288 q 132 399 83 379 q 272 419 181 419 q 451 414 335 419 l 451 439 q 441 501 451 483 q 401 522 431 518 q 292 526 371 526 q 85 518 199 526 l 85 696 q 374 719 224 719 q 600 688 528 719 q 693 596 672 656 q 714 422 714 536 l 714 0 l 460 0 l 454 81 l 442 81 q 356 6 403 24 q 243 -11 310 -11 m 367 167 q 415 174 397 167 q 440 199 432 181 q 451 268 451 219 l 451 300 l 361 300 q 314 295 328 300 q 295 276 300 290 q 290 229 290 263 q 295 190 290 203 q 315 172 300 178 q 367 167 331 167 m 293 828 l 293 835 l 417 1032 l 664 1032 l 664 1025 l 476 828 l 293 828 z "},"ă":{"ha":786,"x_min":46,"x_max":714,"o":"m 243 -11 q 95 40 144 -11 q 46 204 46 92 q 65 333 46 288 q 132 399 83 379 q 272 419 181 419 q 451 414 335 419 l 451 439 q 441 501 451 483 q 401 522 431 518 q 292 526 371 526 q 85 518 199 526 l 85 696 q 374 719 224 719 q 600 688 528 719 q 693 596 672 656 q 714 422 714 536 l 714 0 l 460 0 l 454 81 l 442 81 q 356 6 403 24 q 243 -11 310 -11 m 367 167 q 415 174 397 167 q 440 199 432 181 q 451 268 451 219 l 451 300 l 361 300 q 314 295 328 300 q 295 276 300 290 q 290 229 290 263 q 295 190 290 203 q 315 172 300 178 q 367 167 331 167 m 611 1032 q 594 919 611 964 q 530 848 578 874 q 392 822 482 822 q 255 848 303 822 q 191 919 207 874 q 175 1032 175 964 l 314 1032 q 317 990 314 1004 q 338 965 321 975 q 392 956 356 956 q 447 965 429 956 q 468 990 464 975 q 472 1032 472 1006 l 611 1032 z "},"ắ":{"ha":786,"x_min":46,"x_max":714,"o":"m 264 1067 l 264 1074 l 388 1271 l 635 1271 l 635 1264 l 447 1067 l 264 1067 m 590 1031 q 574 917 590 963 q 509 847 557 872 q 371 821 461 821 q 234 847 282 821 q 170 917 186 872 q 154 1031 154 963 l 293 1031 q 297 988 293 1003 q 317 964 300 974 q 371 954 335 954 q 426 964 408 954 q 447 989 443 974 q 451 1031 451 1004 l 590 1031 m 243 -11 q 95 40 144 -11 q 46 204 46 92 q 65 333 46 288 q 132 399 83 379 q 272 419 181 419 q 451 414 335 419 l 451 439 q 441 501 451 483 q 401 522 431 518 q 292 526 371 526 q 85 518 199 526 l 85 696 q 374 719 224 719 q 600 688 528 719 q 693 596 672 656 q 714 422 714 536 l 714 0 l 460 0 l 454 81 l 442 81 q 356 6 403 24 q 243 -11 310 -11 m 367 167 q 415 174 397 167 q 440 199 432 181 q 451 268 451 219 l 451 300 l 361 300 q 314 295 328 300 q 295 276 300 290 q 290 229 290 263 q 295 190 290 203 q 315 172 300 178 q 367 167 331 167 z "},"ặ":{"ha":786,"x_min":46,"x_max":714,"o":"m 243 -11 q 95 40 144 -11 q 46 204 46 92 q 65 333 46 288 q 132 399 83 379 q 272 419 181 419 q 451 414 335 419 l 451 439 q 441 501 451 483 q 401 522 431 518 q 292 526 371 526 q 85 518 199 526 l 85 696 q 374 719 224 719 q 600 688 528 719 q 693 596 672 656 q 714 422 714 536 l 714 0 l 460 0 l 454 81 l 442 81 q 356 6 403 24 q 243 -11 310 -11 m 367 167 q 415 174 397 167 q 440 199 432 181 q 451 268 451 219 l 451 300 l 361 300 q 314 295 328 300 q 295 276 300 290 q 290 229 290 263 q 295 190 290 203 q 315 172 300 178 q 367 167 331 167 m 258 -310 l 258 -86 l 531 -86 l 531 -310 l 258 -310 m 611 1032 q 594 919 611 964 q 530 848 578 874 q 392 822 482 822 q 255 848 303 822 q 191 919 207 874 q 175 1032 175 964 l 314 1032 q 317 990 314 1004 q 338 965 321 975 q 392 956 356 956 q 447 965 429 956 q 468 990 464 975 q 472 1032 472 1006 l 611 1032 z "},"ằ":{"ha":786,"x_min":46,"x_max":714,"o":"m 339 1067 l 151 1264 l 151 1271 l 399 1271 l 522 1074 l 522 1067 l 339 1067 m 638 1031 q 621 917 638 963 q 556 847 604 872 q 418 821 508 821 q 281 847 329 821 q 217 917 233 872 q 201 1031 201 963 l 340 1031 q 344 988 340 1003 q 365 964 347 974 q 418 954 382 954 q 473 964 456 954 q 494 989 490 974 q 499 1031 499 1004 l 638 1031 m 243 -11 q 95 40 144 -11 q 46 204 46 92 q 65 333 46 288 q 132 399 83 379 q 272 419 181 419 q 451 414 335 419 l 451 439 q 441 501 451 483 q 401 522 431 518 q 292 526 371 526 q 85 518 199 526 l 85 696 q 374 719 224 719 q 600 688 528 719 q 693 596 672 656 q 714 422 714 536 l 714 0 l 460 0 l 454 81 l 442 81 q 356 6 403 24 q 243 -11 310 -11 m 367 167 q 415 174 397 167 q 440 199 432 181 q 451 268 451 219 l 451 300 l 361 300 q 314 295 328 300 q 295 276 300 290 q 290 229 290 263 q 295 190 290 203 q 315 172 300 178 q 367 167 331 167 z "},"ẳ":{"ha":786,"x_min":46,"x_max":714,"o":"m 314 1046 q 326 1116 314 1097 q 382 1144 339 1135 l 404 1151 q 441 1165 433 1158 q 449 1189 449 1172 q 433 1220 449 1214 q 367 1226 418 1226 q 294 1224 333 1226 q 222 1218 254 1222 l 222 1333 q 309 1344 257 1340 q 407 1349 361 1349 q 519 1341 478 1349 q 585 1302 560 1333 q 611 1204 611 1271 q 599 1140 611 1163 q 567 1106 588 1117 q 507 1085 546 1096 l 490 1079 q 456 1064 464 1071 q 447 1042 447 1057 l 314 1042 l 314 1046 m 608 1031 q 592 917 608 963 q 527 847 575 872 q 389 821 479 821 q 252 847 300 821 q 188 917 204 872 q 172 1031 172 963 l 311 1031 q 315 988 311 1003 q 335 964 318 974 q 389 954 353 954 q 444 964 426 954 q 465 989 461 974 q 469 1031 469 1004 l 608 1031 m 243 -11 q 95 40 144 -11 q 46 204 46 92 q 65 333 46 288 q 132 399 83 379 q 272 419 181 419 q 451 414 335 419 l 451 439 q 441 501 451 483 q 401 522 431 518 q 292 526 371 526 q 85 518 199 526 l 85 696 q 374 719 224 719 q 600 688 528 719 q 693 596 672 656 q 714 422 714 536 l 714 0 l 460 0 l 454 81 l 442 81 q 356 6 403 24 q 243 -11 310 -11 m 367 167 q 415 174 397 167 q 440 199 432 181 q 451 268 451 219 l 451 300 l 361 300 q 314 295 328 300 q 295 276 300 290 q 290 229 290 263 q 295 190 290 203 q 315 172 300 178 q 367 167 331 167 z "},"ẵ":{"ha":786,"x_min":46,"x_max":714,"o":"m 671 1271 q 664 1149 671 1190 q 628 1085 657 1108 q 536 1061 600 1061 q 435 1072 488 1061 q 372 1085 382 1083 q 330 1094 364 1086 q 275 1101 296 1101 q 247 1090 251 1101 q 242 1044 242 1079 l 117 1044 q 124 1166 117 1125 q 160 1231 131 1207 q 253 1254 189 1254 q 417 1231 314 1254 l 446 1225 q 514 1215 494 1215 q 542 1226 538 1215 q 547 1271 547 1236 l 671 1271 m 608 1031 q 592 917 608 963 q 527 847 575 872 q 389 821 479 821 q 252 847 300 821 q 188 917 204 872 q 172 1031 172 963 l 311 1031 q 315 988 311 1003 q 335 964 318 974 q 389 954 353 954 q 444 964 426 954 q 465 989 461 974 q 469 1031 469 1004 l 608 1031 m 243 -11 q 95 40 144 -11 q 46 204 46 92 q 65 333 46 288 q 132 399 83 379 q 272 419 181 419 q 451 414 335 419 l 451 439 q 441 501 451 483 q 401 522 431 518 q 292 526 371 526 q 85 518 199 526 l 85 696 q 374 719 224 719 q 600 688 528 719 q 693 596 672 656 q 714 422 714 536 l 714 0 l 460 0 l 454 81 l 442 81 q 356 6 403 24 q 243 -11 310 -11 m 367 167 q 415 174 397 167 q 440 199 432 181 q 451 268 451 219 l 451 300 l 361 300 q 314 295 328 300 q 295 276 300 290 q 290 229 290 263 q 295 190 290 203 q 315 172 300 178 q 367 167 331 167 z "},"ǎ":{"ha":786,"x_min":46,"x_max":714,"o":"m 243 -11 q 95 40 144 -11 q 46 204 46 92 q 65 333 46 288 q 132 399 83 379 q 272 419 181 419 q 451 414 335 419 l 451 439 q 441 501 451 483 q 401 522 431 518 q 292 526 371 526 q 85 518 199 526 l 85 696 q 374 719 224 719 q 600 688 528 719 q 693 596 672 656 q 714 422 714 536 l 714 0 l 460 0 l 454 81 l 442 81 q 356 6 403 24 q 243 -11 310 -11 m 367 167 q 415 174 397 167 q 440 199 432 181 q 451 268 451 219 l 451 300 l 361 300 q 314 295 328 300 q 295 276 300 290 q 290 229 290 263 q 295 190 290 203 q 315 172 300 178 q 367 167 331 167 m 275 828 l 149 1021 l 149 1032 l 315 1032 l 396 926 l 474 1032 l 639 1032 l 639 1021 l 511 828 l 275 828 z "},"â":{"ha":786,"x_min":46,"x_max":714,"o":"m 243 -11 q 95 40 144 -11 q 46 204 46 92 q 65 333 46 288 q 132 399 83 379 q 272 419 181 419 q 451 414 335 419 l 451 439 q 441 501 451 483 q 401 522 431 518 q 292 526 371 526 q 85 518 199 526 l 85 696 q 374 719 224 719 q 600 688 528 719 q 693 596 672 656 q 714 422 714 536 l 714 0 l 460 0 l 454 81 l 442 81 q 356 6 403 24 q 243 -11 310 -11 m 367 167 q 415 174 397 167 q 440 199 432 181 q 451 268 451 219 l 451 300 l 361 300 q 314 295 328 300 q 295 276 300 290 q 290 229 290 263 q 295 190 290 203 q 315 172 300 178 q 367 167 331 167 m 151 828 l 151 838 l 278 1032 l 514 1032 l 642 838 l 642 828 l 476 828 l 396 933 l 318 828 l 151 828 z "},"ấ":{"ha":786,"x_min":46,"x_max":774,"o":"m 403 1067 l 403 1074 l 526 1271 l 774 1271 l 774 1264 l 586 1067 l 403 1067 m 147 826 l 147 836 l 274 1031 l 508 1031 l 636 836 l 636 826 l 472 826 l 392 932 l 314 826 l 147 826 m 243 -11 q 95 40 144 -11 q 46 204 46 92 q 65 333 46 288 q 132 399 83 379 q 272 419 181 419 q 451 414 335 419 l 451 439 q 441 501 451 483 q 401 522 431 518 q 292 526 371 526 q 85 518 199 526 l 85 696 q 374 719 224 719 q 600 688 528 719 q 693 596 672 656 q 714 422 714 536 l 714 0 l 460 0 l 454 81 l 442 81 q 356 6 403 24 q 243 -11 310 -11 m 367 167 q 415 174 397 167 q 440 199 432 181 q 451 268 451 219 l 451 300 l 361 300 q 314 295 328 300 q 295 276 300 290 q 290 229 290 263 q 295 190 290 203 q 315 172 300 178 q 367 167 331 167 z "},"ậ":{"ha":786,"x_min":46,"x_max":714,"o":"m 243 -11 q 95 40 144 -11 q 46 204 46 92 q 65 333 46 288 q 132 399 83 379 q 272 419 181 419 q 451 414 335 419 l 451 439 q 441 501 451 483 q 401 522 431 518 q 292 526 371 526 q 85 518 199 526 l 85 696 q 374 719 224 719 q 600 688 528 719 q 693 596 672 656 q 714 422 714 536 l 714 0 l 460 0 l 454 81 l 442 81 q 356 6 403 24 q 243 -11 310 -11 m 367 167 q 415 174 397 167 q 440 199 432 181 q 451 268 451 219 l 451 300 l 361 300 q 314 295 328 300 q 295 276 300 290 q 290 229 290 263 q 295 190 290 203 q 315 172 300 178 q 367 167 331 167 m 258 -310 l 258 -86 l 531 -86 l 531 -310 l 258 -310 m 149 828 l 149 838 l 275 1032 l 511 1032 l 639 838 l 639 828 l 474 828 l 393 933 l 315 828 l 149 828 z "},"ầ":{"ha":786,"x_min":46,"x_max":714,"o":"m 465 1067 l 278 1264 l 278 1271 l 525 1271 l 649 1074 l 649 1067 l 465 1067 m 136 826 l 136 836 l 263 1031 l 499 1031 l 626 836 l 626 826 l 461 826 l 381 932 l 303 826 l 136 826 m 243 -11 q 95 40 144 -11 q 46 204 46 92 q 65 333 46 288 q 132 399 83 379 q 272 419 181 419 q 451 414 335 419 l 451 439 q 441 501 451 483 q 401 522 431 518 q 292 526 371 526 q 85 518 199 526 l 85 696 q 374 719 224 719 q 600 688 528 719 q 693 596 672 656 q 714 422 714 536 l 714 0 l 460 0 l 454 81 l 442 81 q 356 6 403 24 q 243 -11 310 -11 m 367 167 q 415 174 397 167 q 440 199 432 181 q 451 268 451 219 l 451 300 l 361 300 q 314 295 328 300 q 295 276 300 290 q 290 229 290 263 q 295 190 290 203 q 315 172 300 178 q 367 167 331 167 z "},"ẩ":{"ha":786,"x_min":46,"x_max":760,"o":"m 463 1063 q 475 1133 463 1114 q 531 1161 488 1151 l 553 1168 q 590 1182 582 1175 q 597 1206 597 1189 q 582 1237 597 1231 q 515 1243 567 1243 q 442 1241 482 1243 q 371 1235 403 1239 l 371 1350 q 458 1361 406 1357 q 556 1365 510 1365 q 667 1358 626 1365 q 734 1319 708 1350 q 760 1221 760 1288 q 748 1156 760 1179 q 715 1123 736 1133 q 656 1101 694 1113 l 639 1096 q 604 1081 613 1088 q 596 1058 596 1074 l 463 1058 l 463 1063 m 149 826 l 149 836 l 275 1031 l 511 1031 l 639 836 l 639 826 l 474 826 l 393 932 l 315 826 l 149 826 m 243 -11 q 95 40 144 -11 q 46 204 46 92 q 65 333 46 288 q 132 399 83 379 q 272 419 181 419 q 451 414 335 419 l 451 439 q 441 501 451 483 q 401 522 431 518 q 292 526 371 526 q 85 518 199 526 l 85 696 q 374 719 224 719 q 600 688 528 719 q 693 596 672 656 q 714 422 714 536 l 714 0 l 460 0 l 454 81 l 442 81 q 356 6 403 24 q 243 -11 310 -11 m 367 167 q 415 174 397 167 q 440 199 432 181 q 451 268 451 219 l 451 300 l 361 300 q 314 295 328 300 q 295 276 300 290 q 290 229 290 263 q 295 190 290 203 q 315 172 300 178 q 367 167 331 167 z "},"ẫ":{"ha":786,"x_min":46,"x_max":714,"o":"m 671 1271 q 664 1149 671 1190 q 628 1085 657 1108 q 536 1061 600 1061 q 435 1072 488 1061 q 372 1085 382 1083 q 330 1094 364 1086 q 275 1101 296 1101 q 247 1090 251 1101 q 242 1044 242 1079 l 117 1044 q 124 1166 117 1125 q 160 1231 131 1207 q 253 1254 189 1254 q 417 1231 314 1254 l 446 1225 q 514 1215 494 1215 q 542 1226 538 1215 q 547 1271 547 1236 l 671 1271 m 146 826 l 146 836 l 272 1031 l 508 1031 l 636 836 l 636 826 l 471 826 l 390 932 l 313 826 l 146 826 m 243 -11 q 95 40 144 -11 q 46 204 46 92 q 65 333 46 288 q 132 399 83 379 q 272 419 181 419 q 451 414 335 419 l 451 439 q 441 501 451 483 q 401 522 431 518 q 292 526 371 526 q 85 518 199 526 l 85 696 q 374 719 224 719 q 600 688 528 719 q 693 596 672 656 q 714 422 714 536 l 714 0 l 460 0 l 454 81 l 442 81 q 356 6 403 24 q 243 -11 310 -11 m 367 167 q 415 174 397 167 q 440 199 432 181 q 451 268 451 219 l 451 300 l 361 300 q 314 295 328 300 q 295 276 300 290 q 290 229 290 263 q 295 190 290 203 q 315 172 300 178 q 367 167 331 167 z "},"ȁ":{"ha":786,"x_min":46,"x_max":714,"o":"m 243 -11 q 95 40 144 -11 q 46 204 46 92 q 65 333 46 288 q 132 399 83 379 q 272 419 181 419 q 451 414 335 419 l 451 439 q 441 501 451 483 q 401 522 431 518 q 292 526 371 526 q 85 518 199 526 l 85 696 q 374 719 224 719 q 600 688 528 719 q 693 596 672 656 q 714 422 714 536 l 714 0 l 460 0 l 454 81 l 442 81 q 356 6 403 24 q 243 -11 310 -11 m 367 167 q 415 174 397 167 q 440 199 432 181 q 451 268 451 219 l 451 300 l 361 300 q 314 295 328 300 q 295 276 300 290 q 290 229 290 263 q 295 190 290 203 q 315 172 300 178 q 367 167 331 167 m 353 847 l 201 847 l 50 1008 l 50 1014 l 250 1014 l 353 854 l 353 847 m 615 847 l 467 847 l 314 1008 l 314 1014 l 515 1014 l 615 854 l 615 847 z "},"ä":{"ha":786,"x_min":46,"x_max":714,"o":"m 243 -11 q 95 40 144 -11 q 46 204 46 92 q 65 333 46 288 q 132 399 83 379 q 272 419 181 419 q 451 414 335 419 l 451 439 q 441 501 451 483 q 401 522 431 518 q 292 526 371 526 q 85 518 199 526 l 85 696 q 374 719 224 719 q 600 688 528 719 q 693 596 672 656 q 714 422 714 536 l 714 0 l 460 0 l 454 81 l 442 81 q 356 6 403 24 q 243 -11 310 -11 m 367 167 q 415 174 397 167 q 440 199 432 181 q 451 268 451 219 l 451 300 l 361 300 q 314 295 328 300 q 295 276 300 290 q 290 229 290 263 q 295 190 290 203 q 315 172 300 178 q 367 167 331 167 m 146 850 l 146 1014 l 353 1014 l 353 850 l 146 850 m 442 850 l 442 1014 l 649 1014 l 649 850 l 442 850 z "},"ạ":{"ha":786,"x_min":46,"x_max":714,"o":"m 243 -11 q 95 40 144 -11 q 46 204 46 92 q 65 333 46 288 q 132 399 83 379 q 272 419 181 419 q 451 414 335 419 l 451 439 q 441 501 451 483 q 401 522 431 518 q 292 526 371 526 q 85 518 199 526 l 85 696 q 374 719 224 719 q 600 688 528 719 q 693 596 672 656 q 714 422 714 536 l 714 0 l 460 0 l 454 81 l 442 81 q 356 6 403 24 q 243 -11 310 -11 m 367 167 q 415 174 397 167 q 440 199 432 181 q 451 268 451 219 l 451 300 l 361 300 q 314 295 328 300 q 295 276 300 290 q 290 229 290 263 q 295 190 290 203 q 315 172 300 178 q 367 167 331 167 m 258 -310 l 258 -86 l 531 -86 l 531 -310 l 258 -310 z "},"à":{"ha":786,"x_min":46,"x_max":714,"o":"m 243 -11 q 95 40 144 -11 q 46 204 46 92 q 65 333 46 288 q 132 399 83 379 q 272 419 181 419 q 451 414 335 419 l 451 439 q 441 501 451 483 q 401 522 431 518 q 292 526 371 526 q 85 518 199 526 l 85 696 q 374 719 224 719 q 600 688 528 719 q 693 596 672 656 q 714 422 714 536 l 714 0 l 460 0 l 454 81 l 442 81 q 356 6 403 24 q 243 -11 310 -11 m 367 167 q 415 174 397 167 q 440 199 432 181 q 451 268 451 219 l 451 300 l 361 300 q 314 295 328 300 q 295 276 300 290 q 290 229 290 263 q 295 190 290 203 q 315 172 300 178 q 367 167 331 167 m 313 828 l 125 1025 l 125 1032 l 372 1032 l 496 835 l 496 828 l 313 828 z "},"ả":{"ha":786,"x_min":46,"x_max":714,"o":"m 243 -11 q 95 40 144 -11 q 46 204 46 92 q 65 333 46 288 q 132 399 83 379 q 272 419 181 419 q 451 414 335 419 l 451 439 q 441 501 451 483 q 401 522 431 518 q 292 526 371 526 q 85 518 199 526 l 85 696 q 374 719 224 719 q 600 688 528 719 q 693 596 672 656 q 714 422 714 536 l 714 0 l 460 0 l 454 81 l 442 81 q 356 6 403 24 q 243 -11 310 -11 m 367 167 q 415 174 397 167 q 440 199 432 181 q 451 268 451 219 l 451 300 l 361 300 q 314 295 328 300 q 295 276 300 290 q 290 229 290 263 q 295 190 290 203 q 315 172 300 178 q 367 167 331 167 m 292 851 q 304 922 292 903 q 360 950 317 940 l 382 957 q 419 971 411 964 q 426 994 426 978 q 411 1026 426 1019 q 344 1032 396 1032 q 272 1030 311 1032 q 200 1024 232 1028 l 200 1139 q 287 1150 235 1146 q 385 1154 339 1154 q 497 1147 456 1154 q 563 1108 538 1139 q 589 1010 589 1076 q 577 945 589 968 q 544 912 565 922 q 485 890 524 901 l 468 885 q 433 869 442 876 q 425 847 425 863 l 292 847 l 292 851 z "},"ȃ":{"ha":786,"x_min":46,"x_max":714,"o":"m 243 -11 q 95 40 144 -11 q 46 204 46 92 q 65 333 46 288 q 132 399 83 379 q 272 419 181 419 q 451 414 335 419 l 451 439 q 441 501 451 483 q 401 522 431 518 q 292 526 371 526 q 85 518 199 526 l 85 696 q 374 719 224 719 q 600 688 528 719 q 693 596 672 656 q 714 422 714 536 l 714 0 l 460 0 l 454 81 l 442 81 q 356 6 403 24 q 243 -11 310 -11 m 367 167 q 415 174 397 167 q 440 199 432 181 q 451 268 451 219 l 451 300 l 361 300 q 314 295 328 300 q 295 276 300 290 q 290 229 290 263 q 295 190 290 203 q 315 172 300 178 q 367 167 331 167 m 175 829 q 192 942 175 897 q 256 1013 208 988 q 394 1039 304 1039 q 531 1013 483 1039 q 595 942 579 988 q 611 829 611 897 l 472 829 q 469 872 472 857 q 448 896 465 886 q 394 906 431 906 q 340 896 357 906 q 318 871 322 886 q 314 829 314 856 l 175 829 z "},"ā":{"ha":786,"x_min":46,"x_max":714,"o":"m 243 -11 q 95 40 144 -11 q 46 204 46 92 q 65 333 46 288 q 132 399 83 379 q 272 419 181 419 q 451 414 335 419 l 451 439 q 441 501 451 483 q 401 522 431 518 q 292 526 371 526 q 85 518 199 526 l 85 696 q 374 719 224 719 q 600 688 528 719 q 693 596 672 656 q 714 422 714 536 l 714 0 l 460 0 l 454 81 l 442 81 q 356 6 403 24 q 243 -11 310 -11 m 367 167 q 415 174 397 167 q 440 199 432 181 q 451 268 451 219 l 451 300 l 361 300 q 314 295 328 300 q 295 276 300 290 q 290 229 290 263 q 295 190 290 203 q 315 172 300 178 q 367 167 331 167 m 196 828 l 196 1032 l 594 1032 l 594 828 l 196 828 z "},"ą":{"ha":786,"x_min":46,"x_max":714,"o":"m 714 0 q 650 -43 676 -14 q 624 -103 624 -72 q 688 -146 624 -146 l 713 -144 l 713 -267 q 604 -272 646 -272 q 458 -239 501 -272 q 414 -154 414 -206 q 503 0 414 -78 l 460 0 l 454 81 l 442 81 q 356 6 403 24 q 243 -11 310 -11 q 95 40 144 -11 q 46 204 46 92 q 65 333 46 288 q 132 399 83 379 q 272 419 181 419 q 451 414 335 419 l 451 439 q 441 501 451 483 q 401 522 431 518 q 292 526 371 526 q 129 519 247 526 l 85 518 l 85 696 q 374 719 224 719 q 600 688 528 719 q 693 596 672 656 q 714 422 714 536 l 714 0 m 451 300 l 361 300 q 314 295 328 300 q 295 276 300 290 q 290 229 290 263 q 295 190 290 203 q 315 172 300 178 q 367 167 331 167 q 415 174 397 167 q 440 199 432 181 q 451 268 451 219 l 451 300 z "},"å":{"ha":786,"x_min":46,"x_max":714,"o":"m 243 -11 q 95 40 144 -11 q 46 204 46 92 q 65 333 46 288 q 132 399 83 379 q 272 419 181 419 q 451 414 335 419 l 451 439 q 441 501 451 483 q 401 522 431 518 q 292 526 371 526 q 85 518 199 526 l 85 696 q 374 719 224 719 q 600 688 528 719 q 693 596 672 656 q 714 422 714 536 l 714 0 l 460 0 l 454 81 l 442 81 q 356 6 403 24 q 243 -11 310 -11 m 367 167 q 415 174 397 167 q 440 199 432 181 q 451 268 451 219 l 451 300 l 361 300 q 314 295 328 300 q 295 276 300 290 q 290 229 290 263 q 295 190 290 203 q 315 172 300 178 q 367 167 331 167 m 400 803 q 263 818 307 803 q 205 867 218 833 q 192 969 192 901 q 205 1073 192 1039 q 263 1123 218 1107 q 400 1139 307 1139 q 539 1123 494 1139 q 597 1072 583 1107 q 611 969 611 1038 q 597 867 611 901 q 539 818 583 833 q 400 803 494 803 m 400 903 q 456 908 439 903 q 476 926 472 914 q 479 969 479 939 q 476 1014 479 1001 q 456 1033 472 1026 q 400 1039 439 1039 q 347 1033 363 1039 q 327 1014 331 1026 q 324 969 324 1001 q 327 926 324 939 q 347 908 331 914 q 400 903 363 903 z "},"ǻ":{"ha":786,"x_min":46,"x_max":714,"o":"m 243 -11 q 95 40 144 -11 q 46 204 46 92 q 65 333 46 288 q 132 399 83 379 q 272 419 181 419 q 451 414 335 419 l 451 439 q 441 501 451 483 q 401 522 431 518 q 292 526 371 526 q 85 518 199 526 l 85 696 q 374 719 224 719 q 600 688 528 719 q 693 596 672 656 q 714 422 714 536 l 714 0 l 460 0 l 454 81 l 442 81 q 356 6 403 24 q 243 -11 310 -11 m 367 167 q 415 174 397 167 q 440 199 432 181 q 451 268 451 219 l 451 300 l 361 300 q 314 295 328 300 q 295 276 300 290 q 290 229 290 263 q 295 190 290 203 q 315 172 300 178 q 367 167 331 167 m 392 822 q 254 838 299 822 q 197 887 210 853 q 183 989 183 921 q 197 1092 183 1058 q 254 1142 210 1126 q 392 1158 299 1158 q 531 1142 486 1158 q 589 1092 575 1126 q 603 989 603 1057 q 589 887 603 921 q 531 838 575 853 q 392 822 486 822 m 392 922 q 447 928 431 922 q 467 946 464 933 q 471 989 471 958 q 467 1033 471 1021 q 447 1052 464 1046 q 392 1058 431 1058 q 338 1052 354 1058 q 319 1033 322 1046 q 315 989 315 1021 q 319 946 315 958 q 338 928 322 933 q 392 922 354 922 m 303 1194 l 303 1201 l 426 1399 l 674 1399 l 674 1392 l 486 1194 l 303 1194 z "},"ã":{"ha":786,"x_min":46,"x_max":714,"o":"m 243 -11 q 95 40 144 -11 q 46 204 46 92 q 65 333 46 288 q 132 399 83 379 q 272 419 181 419 q 451 414 335 419 l 451 439 q 441 501 451 483 q 401 522 431 518 q 292 526 371 526 q 85 518 199 526 l 85 696 q 374 719 224 719 q 600 688 528 719 q 693 596 672 656 q 714 422 714 536 l 714 0 l 460 0 l 454 81 l 442 81 q 356 6 403 24 q 243 -11 310 -11 m 367 167 q 415 174 397 167 q 440 199 432 181 q 451 268 451 219 l 451 300 l 361 300 q 314 295 328 300 q 295 276 300 290 q 290 229 290 263 q 295 190 290 203 q 315 172 300 178 q 367 167 331 167 m 671 1032 q 664 910 671 951 q 628 846 657 869 q 535 822 599 822 q 433 833 486 822 q 371 846 381 844 q 328 855 363 847 q 274 863 294 863 q 245 851 250 863 q 240 806 240 840 l 115 806 q 122 927 115 886 q 158 992 129 968 q 251 1015 188 1015 q 415 992 313 1015 l 444 986 q 513 976 493 976 q 541 987 536 976 q 546 1032 546 997 l 671 1032 z "},"æ":{"ha":1181,"x_min":46,"x_max":1124,"o":"m 1124 300 l 714 300 q 724 217 714 240 q 766 188 733 194 q 886 181 799 181 q 1096 192 949 181 l 1096 15 q 975 -3 1051 4 q 824 -11 899 -11 q 655 3 719 -11 q 554 49 590 18 q 445 0 504 11 q 301 -11 386 -11 q 144 10 199 -11 q 67 78 89 32 q 46 204 46 124 q 65 333 46 288 q 132 399 83 379 q 272 419 181 419 q 451 414 296 419 l 451 439 q 441 501 451 483 q 401 522 431 518 q 292 526 371 526 q 85 518 182 526 l 85 696 q 353 719 221 719 q 588 664 510 719 q 818 719 668 719 q 1030 685 967 719 q 1108 582 1093 651 q 1124 353 1124 513 l 1124 300 m 797 543 q 741 535 757 543 q 719 503 725 528 q 714 415 714 478 l 879 415 q 873 503 879 478 q 851 536 867 529 q 797 543 836 543 m 451 300 l 361 300 q 314 295 328 300 q 295 276 300 290 q 290 229 290 263 q 295 190 290 203 q 315 172 300 178 q 367 167 331 167 q 421 177 403 167 q 446 211 439 188 q 451 268 451 233 l 451 300 z "},"ǽ":{"ha":1179,"x_min":46,"x_max":1124,"o":"m 1124 300 l 714 300 q 724 217 714 240 q 766 188 733 194 q 886 181 799 181 q 1096 192 949 181 l 1096 15 q 975 -3 1051 4 q 824 -11 899 -11 q 655 3 719 -11 q 554 49 590 18 q 445 0 504 11 q 301 -11 386 -11 q 144 10 199 -11 q 67 78 89 32 q 46 204 46 124 q 65 333 46 288 q 132 399 83 379 q 272 419 181 419 q 451 414 296 419 l 451 439 q 441 501 451 483 q 401 522 431 518 q 292 526 371 526 q 85 518 182 526 l 85 696 q 353 719 221 719 q 588 664 510 719 q 818 719 668 719 q 1030 685 967 719 q 1108 582 1093 651 q 1124 353 1124 513 l 1124 300 m 797 543 q 741 535 757 543 q 719 503 725 528 q 714 415 714 478 l 879 415 q 873 503 879 478 q 851 536 867 529 q 797 543 836 543 m 451 300 l 361 300 q 314 295 328 300 q 295 276 300 290 q 290 229 290 263 q 295 190 290 203 q 315 172 300 178 q 367 167 331 167 q 421 177 403 167 q 446 211 439 188 q 451 268 451 233 l 451 300 m 496 828 l 496 835 l 619 1032 l 867 1032 l 867 1025 l 679 828 l 496 828 z "},"b":{"ha":811,"x_min":72,"x_max":760,"o":"m 538 -11 q 422 8 471 -11 q 344 82 374 28 l 331 82 l 325 0 l 72 0 l 72 1032 l 335 1032 l 335 636 l 347 636 q 425 701 379 685 q 536 718 471 718 q 666 685 618 718 q 737 574 714 653 q 760 351 760 494 q 737 130 760 208 q 666 20 714 51 q 538 -11 618 -11 m 415 200 q 474 208 458 200 q 493 245 489 217 q 497 354 497 274 q 493 463 497 435 q 474 500 489 492 q 415 508 458 508 q 368 502 383 508 q 346 475 353 496 q 337 430 339 457 q 335 354 335 403 q 337 278 335 306 q 346 233 339 251 q 368 207 353 214 q 415 200 383 200 z "},"c":{"ha":644,"x_min":51,"x_max":594,"o":"m 594 14 q 368 -11 481 -11 q 154 31 222 -11 q 69 147 86 74 q 51 353 51 219 q 69 560 51 486 q 156 676 88 633 q 368 719 224 719 q 589 696 486 719 l 589 518 q 440 526 517 526 q 357 514 382 526 q 324 467 332 501 q 317 354 317 433 q 324 240 317 274 q 356 194 331 207 q 440 182 381 182 q 594 192 510 182 l 594 14 z "},"ć":{"ha":644,"x_min":51,"x_max":599,"o":"m 594 14 q 368 -11 481 -11 q 154 31 222 -11 q 69 147 86 74 q 51 353 51 219 q 69 560 51 486 q 156 676 88 633 q 368 719 224 719 q 589 696 486 719 l 589 518 q 440 526 517 526 q 357 514 382 526 q 324 467 332 501 q 317 354 317 433 q 324 240 317 274 q 356 194 331 207 q 440 182 381 182 q 594 192 510 182 l 594 14 m 228 828 l 228 835 l 351 1032 l 599 1032 l 599 1025 l 411 828 l 228 828 z "},"č":{"ha":644,"x_min":51,"x_max":594,"o":"m 594 14 q 368 -11 481 -11 q 154 31 222 -11 q 69 147 86 74 q 51 353 51 219 q 69 560 51 486 q 156 676 88 633 q 368 719 224 719 q 589 696 486 719 l 589 518 q 440 526 517 526 q 357 514 382 526 q 324 467 332 501 q 317 354 317 433 q 324 240 317 274 q 356 194 331 207 q 440 182 381 182 q 594 192 510 182 l 594 14 m 203 828 l 76 1021 l 76 1032 l 243 1032 l 324 926 l 401 1032 l 567 1032 l 567 1021 l 439 828 l 203 828 z "},"ç":{"ha":644,"x_min":51,"x_max":594,"o":"m 594 14 q 406 -10 493 -8 l 361 -262 l 128 -262 l 128 -256 l 235 1 q 112 66 151 19 q 62 177 72 113 q 51 353 51 242 q 69 560 51 486 q 156 676 88 633 q 368 719 224 719 q 589 696 486 719 l 589 518 q 440 526 517 526 q 357 514 382 526 q 324 467 332 501 q 317 354 317 433 q 324 240 317 274 q 356 194 331 207 q 440 182 381 182 q 594 192 510 182 l 594 14 z "},"ĉ":{"ha":644,"x_min":51,"x_max":594,"o":"m 594 14 q 368 -11 481 -11 q 154 31 222 -11 q 69 147 86 74 q 51 353 51 219 q 69 560 51 486 q 156 676 88 633 q 368 719 224 719 q 589 696 486 719 l 589 518 q 440 526 517 526 q 357 514 382 526 q 324 467 332 501 q 317 354 317 433 q 324 240 317 274 q 356 194 331 207 q 440 182 381 182 q 594 192 510 182 l 594 14 m 76 828 l 76 838 l 203 1032 l 439 1032 l 567 838 l 567 828 l 401 828 l 321 933 l 243 828 l 76 828 z "},"ċ":{"ha":644,"x_min":51,"x_max":594,"o":"m 594 14 q 368 -11 481 -11 q 154 31 222 -11 q 69 147 86 74 q 51 353 51 219 q 69 560 51 486 q 156 676 88 633 q 368 719 224 719 q 589 696 486 719 l 589 518 q 440 526 517 526 q 357 514 382 526 q 324 467 332 501 q 317 354 317 433 q 324 240 317 274 q 356 194 331 207 q 440 182 381 182 q 594 192 510 182 l 594 14 m 218 850 l 218 1014 l 425 1014 l 425 850 l 218 850 z "},"d":{"ha":811,"x_min":51,"x_max":739,"o":"m 274 -11 q 144 20 192 -11 q 74 130 97 51 q 51 351 51 208 q 74 574 51 494 q 145 685 97 653 q 275 718 193 718 q 386 701 340 718 q 464 636 432 685 l 476 636 l 476 1032 l 739 1032 l 739 0 l 486 0 l 481 82 l 467 82 q 389 8 438 28 q 274 -11 340 -11 m 396 200 q 447 208 431 200 q 468 240 463 217 q 476 354 476 275 q 469 463 476 432 q 448 499 464 490 q 396 508 432 508 q 338 500 353 508 q 317 463 322 492 q 313 354 313 433 q 317 246 313 275 q 338 208 322 217 q 396 200 353 200 z "},"ð":{"ha":794,"x_min":51,"x_max":743,"o":"m 396 -11 q 161 21 232 -11 q 71 124 90 53 q 51 354 51 194 q 68 574 51 500 q 139 684 85 649 q 307 719 193 719 q 428 704 364 719 l 435 711 q 393 803 419 758 l 214 779 l 214 922 l 304 933 q 206 1026 260 982 l 206 1032 l 486 1032 q 550 968 521 1004 l 731 993 l 731 851 l 647 838 q 726 592 703 736 q 743 358 743 478 q 724 124 743 196 q 633 20 704 51 q 396 -11 561 -11 m 396 181 q 457 190 440 181 q 477 231 474 200 q 481 354 481 263 q 476 474 481 443 q 456 516 472 506 q 396 526 440 526 q 335 517 351 526 q 316 476 319 507 q 313 354 313 444 q 316 231 313 263 q 335 190 319 200 q 396 181 351 181 z "},"ď":{"ha":938,"x_min":51,"x_max":1024,"o":"m 274 -11 q 144 20 192 -11 q 74 130 97 51 q 51 351 51 208 q 74 574 51 494 q 145 685 97 653 q 275 718 193 718 q 386 701 340 718 q 464 636 432 685 l 476 636 l 476 1032 l 739 1032 l 739 0 l 486 0 l 481 82 l 467 82 q 389 8 438 28 q 274 -11 340 -11 m 396 200 q 447 208 431 200 q 468 240 463 217 q 476 354 476 275 q 469 463 476 432 q 448 499 464 490 q 396 508 432 508 q 338 500 353 508 q 317 463 322 492 q 313 354 313 433 q 317 246 313 275 q 338 208 322 217 q 396 200 353 200 m 779 589 l 794 886 l 794 956 l 1024 956 l 1024 886 l 956 589 l 779 589 z "},"đ":{"ha":811,"x_min":51,"x_max":817,"o":"m 817 778 l 739 778 l 739 0 l 486 0 l 481 82 l 467 82 q 389 8 438 28 q 274 -11 340 -11 q 144 20 192 -11 q 74 130 97 51 q 51 351 51 208 q 74 574 51 494 q 145 685 97 653 q 275 718 193 718 q 386 701 340 718 q 464 636 432 685 l 476 636 l 476 778 l 308 778 l 308 956 l 476 956 l 476 1032 l 739 1032 l 739 956 l 817 956 l 817 778 m 468 240 q 476 354 476 275 q 469 463 476 432 q 448 499 464 490 q 396 508 432 508 q 338 500 353 508 q 317 463 322 492 q 313 354 313 433 q 317 246 313 275 q 338 208 322 217 q 396 200 353 200 q 447 208 431 200 q 468 240 463 217 z "},"ḍ":{"ha":811,"x_min":51,"x_max":739,"o":"m 274 -11 q 144 20 192 -11 q 74 130 97 51 q 51 351 51 208 q 74 574 51 494 q 145 685 97 653 q 275 718 193 718 q 386 701 340 718 q 464 636 432 685 l 476 636 l 476 1032 l 739 1032 l 739 0 l 486 0 l 481 82 l 467 82 q 389 8 438 28 q 274 -11 340 -11 m 396 200 q 447 208 431 200 q 468 240 463 217 q 476 354 476 275 q 469 463 476 432 q 448 499 464 490 q 396 508 432 508 q 338 500 353 508 q 317 463 322 492 q 313 354 313 433 q 317 246 313 275 q 338 208 322 217 q 396 200 353 200 m 269 -310 l 269 -86 l 542 -86 l 542 -310 l 269 -310 z "},"ǳ":{"ha":1549,"x_min":51,"x_max":1496,"o":"m 274 -11 q 144 20 192 -11 q 74 130 97 51 q 51 351 51 208 q 74 574 51 494 q 145 685 97 653 q 275 718 193 718 q 386 701 340 718 q 464 636 432 685 l 476 636 l 476 1032 l 739 1032 l 739 0 l 486 0 l 481 82 l 467 82 q 389 8 438 28 q 274 -11 340 -11 m 396 200 q 447 208 431 200 q 468 240 463 217 q 476 354 476 275 q 469 463 476 432 q 448 499 464 490 q 396 508 432 508 q 338 500 353 508 q 317 463 322 492 q 313 354 313 433 q 317 246 313 275 q 338 208 322 217 q 396 200 353 200 m 865 0 l 865 182 l 1164 515 l 882 515 l 882 708 l 1493 708 l 1493 526 l 1194 193 l 1496 193 l 1496 0 l 865 0 z "},"ǆ":{"ha":1547,"x_min":51,"x_max":1494,"o":"m 1060 828 l 933 1021 l 933 1032 l 1100 1032 l 1181 926 l 1258 1032 l 1424 1032 l 1424 1021 l 1296 828 l 1060 828 m 274 -11 q 144 20 192 -11 q 74 130 97 51 q 51 351 51 208 q 74 572 51 493 q 145 684 97 651 q 275 717 193 717 q 386 700 340 717 q 464 635 432 683 l 476 635 l 476 1031 l 738 1031 l 738 0 l 486 0 l 481 82 l 467 82 q 389 8 438 28 q 274 -11 340 -11 m 865 0 l 865 182 l 1164 515 l 882 515 l 882 707 l 1492 707 l 1492 526 l 1194 193 l 1494 193 l 1494 0 l 865 0 m 396 200 q 447 208 431 200 q 468 240 463 217 q 476 354 476 275 q 469 463 476 432 q 448 499 464 490 q 396 508 432 508 q 338 500 353 508 q 317 463 322 492 q 313 354 313 433 q 317 246 313 275 q 338 208 322 217 q 396 200 353 200 z "},"e":{"ha":774,"x_min":51,"x_max":718,"o":"m 718 299 l 308 299 q 318 217 308 239 q 360 188 328 194 q 481 181 393 181 q 690 192 543 181 l 690 15 q 570 -3 647 4 q 418 -11 493 -11 q 170 24 247 -11 q 72 131 93 60 q 51 353 51 203 q 72 574 51 501 q 163 683 92 647 q 392 719 235 719 q 618 685 550 719 q 702 582 686 651 q 718 353 718 513 l 718 299 m 392 543 q 337 535 353 543 q 315 503 321 528 q 308 415 310 478 l 474 415 q 468 503 474 478 q 447 536 463 529 q 392 543 431 543 z "},"é":{"ha":774,"x_min":51,"x_max":718,"o":"m 718 299 l 308 299 q 318 217 308 239 q 360 188 328 194 q 481 181 393 181 q 690 192 543 181 l 690 15 q 570 -3 647 4 q 418 -11 493 -11 q 170 24 247 -11 q 72 131 93 60 q 51 353 51 203 q 72 574 51 501 q 163 683 92 647 q 392 719 235 719 q 618 685 550 719 q 702 582 686 651 q 718 353 718 513 l 718 299 m 392 543 q 337 535 353 543 q 315 503 321 528 q 308 415 310 478 l 474 415 q 468 503 474 478 q 447 536 463 529 q 392 543 431 543 m 299 828 l 299 835 l 422 1032 l 669 1032 l 669 1025 l 482 828 l 299 828 z "},"ĕ":{"ha":774,"x_min":51,"x_max":718,"o":"m 718 299 l 308 299 q 318 217 308 239 q 360 188 328 194 q 481 181 393 181 q 690 192 543 181 l 690 15 q 570 -3 647 4 q 418 -11 493 -11 q 170 24 247 -11 q 72 131 93 60 q 51 353 51 203 q 72 574 51 501 q 163 683 92 647 q 392 719 235 719 q 618 685 550 719 q 702 582 686 651 q 718 353 718 513 l 718 299 m 392 543 q 337 535 353 543 q 315 503 321 528 q 308 415 310 478 l 474 415 q 468 503 474 478 q 447 536 463 529 q 392 543 431 543 m 604 1032 q 588 919 604 964 q 523 848 571 874 q 385 822 475 822 q 248 848 296 822 q 184 919 200 874 q 168 1032 168 964 l 307 1032 q 310 990 307 1004 q 331 965 314 975 q 385 956 349 956 q 440 965 422 956 q 461 990 457 975 q 465 1032 465 1006 l 604 1032 z "},"ě":{"ha":774,"x_min":51,"x_max":718,"o":"m 718 299 l 308 299 q 318 217 308 239 q 360 188 328 194 q 481 181 393 181 q 690 192 543 181 l 690 15 q 570 -3 647 4 q 418 -11 493 -11 q 170 24 247 -11 q 72 131 93 60 q 51 353 51 203 q 72 574 51 501 q 163 683 92 647 q 392 719 235 719 q 618 685 550 719 q 702 582 686 651 q 718 353 718 513 l 718 299 m 392 543 q 337 535 353 543 q 315 503 321 528 q 308 415 310 478 l 474 415 q 468 503 474 478 q 447 536 463 529 q 392 543 431 543 m 268 828 l 142 1021 l 142 1032 l 308 1032 l 389 926 l 467 1032 l 632 1032 l 632 1021 l 504 828 l 268 828 z "},"ê":{"ha":774,"x_min":51,"x_max":718,"o":"m 718 299 l 308 299 q 318 217 308 239 q 360 188 328 194 q 481 181 393 181 q 690 192 543 181 l 690 15 q 570 -3 647 4 q 418 -11 493 -11 q 170 24 247 -11 q 72 131 93 60 q 51 353 51 203 q 72 574 51 501 q 163 683 92 647 q 392 719 235 719 q 618 685 550 719 q 702 582 686 651 q 718 353 718 513 l 718 299 m 392 543 q 337 535 353 543 q 315 503 321 528 q 308 415 310 478 l 474 415 q 468 503 474 478 q 447 536 463 529 q 392 543 431 543 m 153 828 l 153 838 l 279 1032 l 515 1032 l 643 838 l 643 828 l 478 828 l 397 933 l 319 828 l 153 828 z "},"ế":{"ha":774,"x_min":51,"x_max":767,"o":"m 519 1271 l 767 1271 l 767 1264 l 579 1067 l 396 1067 l 396 1074 l 519 1271 m 385 932 l 307 826 l 140 826 l 140 836 l 267 1031 l 503 1031 l 631 836 l 631 826 l 465 826 l 385 932 m 392 719 q 618 685 550 719 q 702 582 686 651 q 718 353 718 513 l 718 299 l 308 299 q 318 217 308 239 q 360 188 328 194 q 481 181 393 181 q 690 192 543 181 l 690 15 q 570 -3 647 4 q 418 -11 493 -11 q 170 24 247 -11 q 72 131 93 60 q 51 353 51 203 q 72 574 51 501 q 163 683 92 647 q 392 719 235 719 m 392 543 q 337 535 353 543 q 315 503 321 528 q 308 415 310 478 l 474 415 q 468 503 474 478 q 447 536 463 529 q 392 543 431 543 z "},"ệ":{"ha":774,"x_min":51,"x_max":718,"o":"m 718 299 l 308 299 q 318 217 308 239 q 360 188 328 194 q 481 181 393 181 q 690 192 543 181 l 690 15 q 570 -3 647 4 q 418 -11 493 -11 q 170 24 247 -11 q 72 131 93 60 q 51 353 51 203 q 72 574 51 501 q 163 683 92 647 q 392 719 235 719 q 618 685 550 719 q 702 582 686 651 q 718 353 718 513 l 718 299 m 392 543 q 337 535 353 543 q 315 503 321 528 q 308 415 310 478 l 474 415 q 468 503 474 478 q 447 536 463 529 q 392 543 431 543 m 251 -310 l 251 -86 l 524 -86 l 524 -310 l 251 -310 m 142 828 l 142 838 l 268 1032 l 504 1032 l 632 838 l 632 828 l 467 828 l 386 933 l 308 828 l 142 828 z "},"ề":{"ha":774,"x_min":51,"x_max":718,"o":"m 642 1067 l 458 1067 l 271 1264 l 271 1271 l 518 1271 l 642 1074 l 642 1067 m 374 932 l 296 826 l 129 826 l 129 836 l 256 1031 l 492 1031 l 619 836 l 619 826 l 454 826 l 374 932 m 718 299 l 308 299 q 318 217 308 239 q 360 188 328 194 q 481 181 393 181 q 690 192 543 181 l 690 15 q 570 -3 647 4 q 418 -11 493 -11 q 170 24 247 -11 q 72 131 93 60 q 51 353 51 203 q 72 574 51 501 q 163 683 92 647 q 392 719 235 719 q 618 685 550 719 q 702 582 686 651 q 718 353 718 513 l 718 299 m 392 543 q 337 535 353 543 q 315 503 321 528 q 308 415 310 478 l 474 415 q 468 503 474 478 q 447 536 463 529 q 392 543 431 543 z "},"ể":{"ha":774,"x_min":51,"x_max":753,"o":"m 549 1365 q 660 1358 619 1365 q 727 1319 701 1350 q 753 1221 753 1288 q 741 1156 753 1179 q 708 1123 729 1133 q 649 1101 688 1113 l 632 1096 q 597 1081 606 1088 q 589 1058 589 1074 l 456 1058 l 456 1063 q 468 1133 456 1114 q 524 1161 481 1151 l 546 1168 q 583 1182 575 1175 q 590 1206 590 1189 q 575 1237 590 1231 q 508 1243 560 1243 q 435 1241 475 1243 q 364 1235 396 1239 l 364 1350 q 451 1361 399 1357 q 549 1365 503 1365 m 386 932 l 308 826 l 142 826 l 142 836 l 268 1031 l 504 1031 l 632 836 l 632 826 l 467 826 l 386 932 m 392 719 q 618 685 550 719 q 702 582 686 651 q 718 353 718 513 l 718 299 l 308 299 q 318 217 308 239 q 360 188 328 194 q 481 181 393 181 q 690 192 543 181 l 690 15 q 570 -3 647 4 q 418 -11 493 -11 q 170 24 247 -11 q 72 131 93 60 q 51 353 51 203 q 72 574 51 501 q 163 683 92 647 q 392 719 235 719 m 392 543 q 337 535 353 543 q 315 503 321 528 q 308 415 310 478 l 474 415 q 468 503 474 478 q 447 536 463 529 q 392 543 431 543 z "},"ễ":{"ha":774,"x_min":51,"x_max":718,"o":"m 268 1101 q 240 1090 244 1101 q 235 1044 235 1079 l 110 1044 q 117 1166 110 1125 q 153 1231 124 1207 q 246 1254 182 1254 q 410 1231 307 1254 l 439 1225 q 507 1215 488 1215 q 535 1226 531 1215 q 540 1271 540 1236 l 664 1271 q 657 1149 664 1190 q 622 1085 650 1108 q 529 1061 593 1061 q 428 1072 481 1061 q 365 1085 375 1083 q 323 1094 357 1086 q 268 1101 289 1101 m 265 1031 l 501 1031 l 629 836 l 629 826 l 464 826 l 383 932 l 306 826 l 139 826 l 139 836 l 265 1031 m 718 299 l 308 299 q 318 217 308 239 q 360 188 328 194 q 481 181 393 181 q 690 192 543 181 l 690 15 q 570 -3 647 4 q 418 -11 493 -11 q 170 24 247 -11 q 72 131 93 60 q 51 353 51 203 q 72 574 51 501 q 163 683 92 647 q 392 719 235 719 q 618 685 550 719 q 702 582 686 651 q 718 353 718 513 l 718 299 m 392 543 q 337 535 353 543 q 315 503 321 528 q 308 415 310 478 l 474 415 q 468 503 474 478 q 447 536 463 529 q 392 543 431 543 z "},"ȅ":{"ha":774,"x_min":43,"x_max":718,"o":"m 718 299 l 308 299 q 318 217 308 239 q 360 188 328 194 q 481 181 393 181 q 690 192 543 181 l 690 15 q 570 -3 647 4 q 418 -11 493 -11 q 170 24 247 -11 q 72 131 93 60 q 51 353 51 203 q 72 574 51 501 q 163 683 92 647 q 392 719 235 719 q 618 685 550 719 q 702 582 686 651 q 718 353 718 513 l 718 299 m 392 543 q 337 535 353 543 q 315 503 321 528 q 308 415 310 478 l 474 415 q 468 503 474 478 q 447 536 463 529 q 392 543 431 543 m 346 847 l 194 847 l 43 1008 l 43 1014 l 243 1014 l 346 854 l 346 847 m 608 847 l 460 847 l 307 1008 l 307 1014 l 508 1014 l 608 854 l 608 847 z "},"ë":{"ha":774,"x_min":51,"x_max":718,"o":"m 718 299 l 308 299 q 318 217 308 239 q 360 188 328 194 q 481 181 393 181 q 690 192 543 181 l 690 15 q 570 -3 647 4 q 418 -11 493 -11 q 170 24 247 -11 q 72 131 93 60 q 51 353 51 203 q 72 574 51 501 q 163 683 92 647 q 392 719 235 719 q 618 685 550 719 q 702 582 686 651 q 718 353 718 513 l 718 299 m 392 543 q 337 535 353 543 q 315 503 321 528 q 308 415 310 478 l 474 415 q 468 503 474 478 q 447 536 463 529 q 392 543 431 543 m 147 850 l 147 1014 l 354 1014 l 354 850 l 147 850 m 443 850 l 443 1014 l 650 1014 l 650 850 l 443 850 z "},"ė":{"ha":774,"x_min":51,"x_max":718,"o":"m 718 299 l 308 299 q 318 217 308 239 q 360 188 328 194 q 481 181 393 181 q 690 192 543 181 l 690 15 q 570 -3 647 4 q 418 -11 493 -11 q 170 24 247 -11 q 72 131 93 60 q 51 353 51 203 q 72 574 51 501 q 163 683 92 647 q 392 719 235 719 q 618 685 550 719 q 702 582 686 651 q 718 353 718 513 l 718 299 m 392 543 q 337 535 353 543 q 315 503 321 528 q 308 415 310 478 l 474 415 q 468 503 474 478 q 447 536 463 529 q 392 543 431 543 m 283 850 l 283 1014 l 490 1014 l 490 850 l 283 850 z "},"ẹ":{"ha":774,"x_min":51,"x_max":718,"o":"m 718 299 l 308 299 q 318 217 308 239 q 360 188 328 194 q 481 181 393 181 q 690 192 543 181 l 690 15 q 570 -3 647 4 q 418 -11 493 -11 q 170 24 247 -11 q 72 131 93 60 q 51 353 51 203 q 72 574 51 501 q 163 683 92 647 q 392 719 235 719 q 618 685 550 719 q 702 582 686 651 q 718 353 718 513 l 718 299 m 392 543 q 337 535 353 543 q 315 503 321 528 q 308 415 310 478 l 474 415 q 468 503 474 478 q 447 536 463 529 q 392 543 431 543 m 251 -310 l 251 -86 l 524 -86 l 524 -310 l 251 -310 z "},"è":{"ha":774,"x_min":51,"x_max":718,"o":"m 718 299 l 308 299 q 318 217 308 239 q 360 188 328 194 q 481 181 393 181 q 690 192 543 181 l 690 15 q 570 -3 647 4 q 418 -11 493 -11 q 170 24 247 -11 q 72 131 93 60 q 51 353 51 203 q 72 574 51 501 q 163 683 92 647 q 392 719 235 719 q 618 685 550 719 q 702 582 686 651 q 718 353 718 513 l 718 299 m 392 543 q 337 535 353 543 q 315 503 321 528 q 308 415 310 478 l 474 415 q 468 503 474 478 q 447 536 463 529 q 392 543 431 543 m 317 828 l 129 1025 l 129 1032 l 376 1032 l 500 835 l 500 828 l 317 828 z "},"ẻ":{"ha":774,"x_min":51,"x_max":718,"o":"m 718 299 l 308 299 q 318 217 308 239 q 360 188 328 194 q 481 181 393 181 q 690 192 543 181 l 690 15 q 570 -3 647 4 q 418 -11 493 -11 q 170 24 247 -11 q 72 131 93 60 q 51 353 51 203 q 72 574 51 501 q 163 683 92 647 q 392 719 235 719 q 618 685 550 719 q 702 582 686 651 q 718 353 718 513 l 718 299 m 392 543 q 337 535 353 543 q 315 503 321 528 q 308 415 310 478 l 474 415 q 468 503 474 478 q 447 536 463 529 q 392 543 431 543 m 285 851 q 297 922 285 903 q 353 950 310 940 l 375 957 q 412 971 404 964 q 419 994 419 978 q 404 1026 419 1019 q 338 1032 389 1032 q 265 1030 304 1032 q 193 1024 225 1028 l 193 1139 q 280 1150 228 1146 q 378 1154 332 1154 q 490 1147 449 1154 q 556 1108 531 1139 q 582 1010 582 1076 q 570 945 582 968 q 538 912 558 922 q 478 890 517 901 l 461 885 q 426 869 435 876 q 418 847 418 863 l 285 847 l 285 851 z "},"ȇ":{"ha":774,"x_min":51,"x_max":718,"o":"m 718 299 l 308 299 q 318 217 308 239 q 360 188 328 194 q 481 181 393 181 q 690 192 543 181 l 690 15 q 570 -3 647 4 q 418 -11 493 -11 q 170 24 247 -11 q 72 131 93 60 q 51 353 51 203 q 72 574 51 501 q 163 683 92 647 q 392 719 235 719 q 618 685 550 719 q 702 582 686 651 q 718 353 718 513 l 718 299 m 392 543 q 337 535 353 543 q 315 503 321 528 q 308 415 310 478 l 474 415 q 468 503 474 478 q 447 536 463 529 q 392 543 431 543 m 168 829 q 185 942 168 897 q 249 1013 201 988 q 388 1039 297 1039 q 524 1013 476 1039 q 588 942 572 988 q 604 829 604 897 l 465 829 q 462 872 465 857 q 441 896 458 886 q 388 906 424 906 q 333 896 350 906 q 311 871 315 886 q 307 829 307 856 l 168 829 z "},"ē":{"ha":774,"x_min":51,"x_max":718,"o":"m 718 299 l 308 299 q 318 217 308 239 q 360 188 328 194 q 481 181 393 181 q 690 192 543 181 l 690 15 q 570 -3 647 4 q 418 -11 493 -11 q 170 24 247 -11 q 72 131 93 60 q 51 353 51 203 q 72 574 51 501 q 163 683 92 647 q 392 719 235 719 q 618 685 550 719 q 702 582 686 651 q 718 353 718 513 l 718 299 m 392 543 q 337 535 353 543 q 315 503 321 528 q 308 415 310 478 l 474 415 q 468 503 474 478 q 447 536 463 529 q 392 543 431 543 m 189 828 l 189 1032 l 588 1032 l 588 828 l 189 828 z "},"ę":{"ha":774,"x_min":51,"x_max":718,"o":"m 718 299 l 308 299 q 318 217 308 239 q 360 188 328 194 q 481 181 393 181 q 690 192 543 181 l 690 15 q 600 -37 642 -4 q 558 -104 558 -69 q 624 -146 558 -146 l 647 -144 l 647 -267 q 540 -272 600 -272 q 394 -240 438 -272 q 350 -157 350 -207 q 442 -11 350 -81 l 418 -11 q 170 24 247 -11 q 72 131 93 60 q 51 353 51 203 q 72 574 51 501 q 163 683 92 647 q 392 719 235 719 q 618 685 550 719 q 702 582 686 651 q 718 353 718 513 l 718 299 m 392 543 q 337 535 353 543 q 315 503 321 528 q 308 415 310 478 l 474 415 q 468 503 474 478 q 447 536 463 529 q 392 543 431 543 z "},"ẽ":{"ha":774,"x_min":51,"x_max":718,"o":"m 718 299 l 308 299 q 318 217 308 239 q 360 188 328 194 q 481 181 393 181 q 690 192 543 181 l 690 15 q 570 -3 647 4 q 418 -11 493 -11 q 170 24 247 -11 q 72 131 93 60 q 51 353 51 203 q 72 574 51 501 q 163 683 92 647 q 392 719 235 719 q 618 685 550 719 q 702 582 686 651 q 718 353 718 513 l 718 299 m 392 543 q 337 535 353 543 q 315 503 321 528 q 308 415 310 478 l 474 415 q 468 503 474 478 q 447 536 463 529 q 392 543 431 543 m 665 1032 q 658 910 665 951 q 622 846 651 869 q 529 822 593 822 q 428 833 481 822 q 365 846 375 844 q 323 855 357 847 q 268 863 289 863 q 240 851 244 863 q 235 806 235 840 l 110 806 q 117 927 110 886 q 153 992 124 968 q 246 1015 182 1015 q 410 992 307 1015 l 439 986 q 507 976 488 976 q 535 987 531 976 q 540 1032 540 997 l 665 1032 z "},"ə":{"ha":774,"x_min":56,"x_max":722,"o":"m 356 719 q 603 684 526 719 q 701 577 681 649 q 722 356 722 506 q 702 134 722 207 q 610 25 682 61 q 382 -11 539 -11 q 156 23 224 -11 q 72 126 88 57 q 56 356 56 196 l 56 410 l 465 410 q 456 492 465 469 q 413 521 446 514 q 293 528 381 528 q 83 517 231 528 l 83 693 q 203 712 126 704 q 356 719 281 719 m 382 165 q 437 173 421 165 q 458 206 453 181 q 465 293 464 231 l 300 293 q 306 205 300 231 q 327 172 311 179 q 382 165 343 165 z "},"f":{"ha":611,"x_min":26,"x_max":578,"o":"m 149 515 l 26 515 l 26 708 l 149 708 l 149 739 q 180 943 149 885 q 292 1016 211 1001 q 578 1031 374 1031 l 578 856 q 465 851 496 856 q 424 830 433 846 q 415 771 415 814 l 415 708 l 578 708 l 578 515 l 415 515 l 415 0 l 149 0 l 149 515 z "},"g":{"ha":811,"x_min":51,"x_max":739,"o":"m 368 -286 q 228 -281 300 -286 q 111 -267 156 -275 l 111 -92 q 299 -93 169 -93 q 424 -86 390 -93 q 467 -56 458 -79 q 476 33 476 -32 l 476 92 l 464 92 q 387 26 432 43 q 276 8 342 8 q 146 40 194 8 q 74 149 97 71 q 51 365 51 226 q 74 581 51 504 q 144 689 97 658 q 274 719 192 719 q 389 700 340 719 q 467 626 438 681 l 481 626 l 486 708 l 739 708 l 739 78 q 717 -135 739 -62 q 617 -247 696 -208 q 368 -286 538 -286 m 396 218 q 446 226 431 218 q 467 256 461 233 q 476 363 476 285 q 467 467 476 440 q 446 501 461 493 q 396 508 431 508 q 338 501 353 508 q 317 465 322 493 q 313 363 313 438 q 317 260 313 288 q 338 226 322 233 q 396 218 353 218 z "},"ǵ":{"ha":811,"x_min":51,"x_max":739,"o":"m 368 -286 q 228 -281 300 -286 q 111 -267 156 -275 l 111 -92 q 299 -93 169 -93 q 424 -86 390 -93 q 467 -56 458 -79 q 476 33 476 -32 l 476 92 l 464 92 q 387 26 432 43 q 276 8 342 8 q 146 40 194 8 q 74 149 97 71 q 51 365 51 226 q 74 581 51 504 q 144 689 97 658 q 274 719 192 719 q 389 700 340 719 q 467 626 438 681 l 481 626 l 486 708 l 739 708 l 739 78 q 717 -135 739 -62 q 617 -247 696 -208 q 368 -286 538 -286 m 396 218 q 446 226 431 218 q 467 256 461 233 q 476 363 476 285 q 467 467 476 440 q 446 501 461 493 q 396 508 431 508 q 338 501 353 508 q 317 465 322 493 q 313 363 313 438 q 317 260 313 288 q 338 226 322 233 q 396 218 353 218 m 311 828 l 311 835 l 435 1032 l 682 1032 l 682 1025 l 494 828 l 311 828 z "},"ğ":{"ha":811,"x_min":51,"x_max":739,"o":"m 368 -286 q 228 -281 300 -286 q 111 -267 156 -275 l 111 -92 q 299 -93 169 -93 q 424 -86 390 -93 q 467 -56 458 -79 q 476 33 476 -32 l 476 92 l 464 92 q 387 26 432 43 q 276 8 342 8 q 146 40 194 8 q 74 149 97 71 q 51 365 51 226 q 74 581 51 504 q 144 689 97 658 q 274 719 192 719 q 389 700 340 719 q 467 626 438 681 l 481 626 l 486 708 l 739 708 l 739 78 q 717 -135 739 -62 q 617 -247 696 -208 q 368 -286 538 -286 m 396 218 q 446 226 431 218 q 467 256 461 233 q 476 363 476 285 q 467 467 476 440 q 446 501 461 493 q 396 508 431 508 q 338 501 353 508 q 317 465 322 493 q 313 363 313 438 q 317 260 313 288 q 338 226 322 233 q 396 218 353 218 m 622 1032 q 606 919 622 964 q 541 848 589 874 q 403 822 493 822 q 266 848 314 822 q 202 919 218 874 q 186 1032 186 964 l 325 1032 q 328 990 325 1004 q 349 965 332 975 q 403 956 367 956 q 458 965 440 956 q 479 990 475 975 q 483 1032 483 1006 l 622 1032 z "},"ǧ":{"ha":811,"x_min":51,"x_max":739,"o":"m 368 -286 q 228 -281 300 -286 q 111 -267 156 -275 l 111 -92 q 299 -93 169 -93 q 424 -86 390 -93 q 467 -56 458 -79 q 476 33 476 -32 l 476 92 l 464 92 q 387 26 432 43 q 276 8 342 8 q 146 40 194 8 q 74 149 97 71 q 51 365 51 226 q 74 581 51 504 q 144 689 97 658 q 274 719 192 719 q 389 700 340 719 q 467 626 438 681 l 481 626 l 486 708 l 739 708 l 739 78 q 717 -135 739 -62 q 617 -247 696 -208 q 368 -286 538 -286 m 396 218 q 446 226 431 218 q 467 256 461 233 q 476 363 476 285 q 467 467 476 440 q 446 501 461 493 q 396 508 431 508 q 338 501 353 508 q 317 465 322 493 q 313 363 313 438 q 317 260 313 288 q 338 226 322 233 q 396 218 353 218 m 286 828 l 160 1021 l 160 1032 l 326 1032 l 407 926 l 485 1032 l 650 1032 l 650 1021 l 522 828 l 286 828 z "},"ĝ":{"ha":811,"x_min":51,"x_max":739,"o":"m 368 -286 q 228 -281 300 -286 q 111 -267 156 -275 l 111 -92 q 299 -93 169 -93 q 424 -86 390 -93 q 467 -56 458 -79 q 476 33 476 -32 l 476 92 l 464 92 q 387 26 432 43 q 276 8 342 8 q 146 40 194 8 q 74 149 97 71 q 51 365 51 226 q 74 581 51 504 q 144 689 97 658 q 274 719 192 719 q 389 700 340 719 q 467 626 438 681 l 481 626 l 486 708 l 739 708 l 739 78 q 717 -135 739 -62 q 617 -247 696 -208 q 368 -286 538 -286 m 396 218 q 446 226 431 218 q 467 256 461 233 q 476 363 476 285 q 467 467 476 440 q 446 501 461 493 q 396 508 431 508 q 338 501 353 508 q 317 465 322 493 q 313 363 313 438 q 317 260 313 288 q 338 226 322 233 q 396 218 353 218 m 160 828 l 160 838 l 286 1032 l 522 1032 l 650 838 l 650 828 l 485 828 l 404 933 l 326 828 l 160 828 z "},"ģ":{"ha":811,"x_min":51,"x_max":739,"o":"m 368 -286 q 228 -281 300 -286 q 111 -267 156 -275 l 111 -92 q 299 -93 169 -93 q 424 -86 390 -93 q 467 -56 458 -79 q 476 33 476 -32 l 476 92 l 464 92 q 387 26 432 43 q 276 8 342 8 q 146 40 194 8 q 74 149 97 71 q 51 365 51 226 q 74 581 51 504 q 144 689 97 658 q 274 719 192 719 q 389 700 340 719 q 467 626 438 681 l 481 626 l 486 708 l 739 708 l 739 78 q 717 -135 739 -62 q 617 -247 696 -208 q 368 -286 538 -286 m 396 218 q 446 226 431 218 q 467 256 461 233 q 476 363 476 285 q 467 467 476 440 q 446 501 461 493 q 396 508 431 508 q 338 501 353 508 q 317 465 322 493 q 313 363 313 438 q 317 260 313 288 q 338 226 322 233 q 396 218 353 218 m 539 1057 q 477 1052 497 1057 q 450 1037 457 1047 q 443 1006 443 1026 l 443 993 l 533 993 l 533 829 l 278 829 l 278 936 q 295 1070 278 1026 q 367 1132 313 1114 q 539 1150 421 1150 l 539 1057 z "},"ġ":{"ha":811,"x_min":51,"x_max":739,"o":"m 368 -286 q 228 -281 300 -286 q 111 -267 156 -275 l 111 -92 q 299 -93 169 -93 q 424 -86 390 -93 q 467 -56 458 -79 q 476 33 476 -32 l 476 92 l 464 92 q 387 26 432 43 q 276 8 342 8 q 146 40 194 8 q 74 149 97 71 q 51 365 51 226 q 74 581 51 504 q 144 689 97 658 q 274 719 192 719 q 389 700 340 719 q 467 626 438 681 l 481 626 l 486 708 l 739 708 l 739 78 q 717 -135 739 -62 q 617 -247 696 -208 q 368 -286 538 -286 m 396 218 q 446 226 431 218 q 467 256 461 233 q 476 363 476 285 q 467 467 476 440 q 446 501 461 493 q 396 508 431 508 q 338 501 353 508 q 317 465 322 493 q 313 363 313 438 q 317 260 313 288 q 338 226 322 233 q 396 218 353 218 m 301 850 l 301 1014 l 508 1014 l 508 850 l 301 850 z "},"h":{"ha":818,"x_min":72,"x_max":746,"o":"m 483 374 q 479 467 483 442 q 461 500 475 493 q 411 507 447 507 q 359 498 374 507 q 340 463 344 489 q 335 372 335 436 l 335 0 l 72 0 l 72 1032 l 335 1032 l 335 628 l 347 628 q 539 719 406 719 q 672 688 628 719 q 731 599 717 657 q 746 443 746 542 l 746 0 l 483 0 l 483 374 z "},"ħ":{"ha":818,"x_min":-6,"x_max":746,"o":"m 539 719 q 672 688 628 719 q 731 599 717 657 q 746 443 746 542 l 746 0 l 483 0 l 483 374 q 479 467 483 442 q 461 500 475 493 q 411 507 447 507 q 359 498 374 507 q 340 463 344 489 q 335 372 335 436 l 335 0 l 72 0 l 72 778 l -6 778 l -6 956 l 72 956 l 72 1032 l 335 1032 l 335 956 l 501 956 l 501 778 l 335 778 l 335 628 l 347 628 q 539 719 406 719 z "},"ĥ":{"ha":818,"x_min":-42,"x_max":746,"o":"m 483 374 q 479 467 483 442 q 461 500 475 493 q 411 507 447 507 q 359 498 374 507 q 340 463 344 489 q 335 372 335 436 l 335 0 l 72 0 l 72 1032 l 335 1032 l 335 628 l 347 628 q 539 719 406 719 q 672 688 628 719 q 731 599 717 657 q 746 443 746 542 l 746 0 l 483 0 l 483 374 m -42 1075 l -42 1085 l 85 1279 l 321 1279 l 449 1085 l 449 1075 l 283 1075 l 203 1181 l 125 1075 l -42 1075 z "},"ḥ":{"ha":818,"x_min":72,"x_max":746,"o":"m 483 374 q 479 467 483 442 q 461 500 475 493 q 411 507 447 507 q 359 498 374 507 q 340 463 344 489 q 335 372 335 436 l 335 0 l 72 0 l 72 1032 l 335 1032 l 335 628 l 347 628 q 539 719 406 719 q 672 688 628 719 q 731 599 717 657 q 746 443 746 542 l 746 0 l 483 0 l 483 374 m 274 -310 l 274 -86 l 546 -86 l 546 -310 l 274 -310 z "},"i":{"ha":411,"x_min":72,"x_max":340,"o":"m 72 835 l 72 1032 l 340 1032 l 340 835 l 72 835 m 72 0 l 72 708 l 339 708 l 339 0 l 72 0 z "},"ı":{"ha":411,"x_min":72,"x_max":339,"o":"m 72 0 l 72 708 l 339 708 l 339 0 l 72 0 z "},"í":{"ha":411,"x_min":72,"x_max":444,"o":"m 72 0 l 72 708 l 339 708 l 339 0 l 72 0 m 74 828 l 74 835 l 197 1032 l 444 1032 l 444 1025 l 257 828 l 74 828 z "},"ĭ":{"ha":411,"x_min":-14,"x_max":422,"o":"m 72 0 l 72 708 l 339 708 l 339 0 l 72 0 m 422 1032 q 406 919 422 964 q 341 848 389 874 q 203 822 293 822 q 66 848 114 822 q 2 919 18 874 q -14 1032 -14 964 l 125 1032 q 128 990 125 1004 q 149 965 132 975 q 203 956 167 956 q 258 965 240 956 q 279 990 275 975 q 283 1032 283 1006 l 422 1032 z "},"ǐ":{"ha":411,"x_min":-40,"x_max":450,"o":"m 72 0 l 72 708 l 339 708 l 339 0 l 72 0 m 86 828 l -40 1021 l -40 1032 l 126 1032 l 207 926 l 285 1032 l 450 1032 l 450 1021 l 322 828 l 86 828 z "},"î":{"ha":411,"x_min":-40,"x_max":450,"o":"m 72 0 l 72 708 l 339 708 l 339 0 l 72 0 m -40 828 l -40 838 l 86 1032 l 322 1032 l 450 838 l 450 828 l 285 828 l 204 933 l 126 828 l -40 828 z "},"ȉ":{"ha":411,"x_min":-139,"x_max":426,"o":"m 72 0 l 72 708 l 339 708 l 339 0 l 72 0 m 164 847 l 13 847 l -139 1008 l -139 1014 l 61 1014 l 164 854 l 164 847 m 426 847 l 278 847 l 125 1008 l 125 1014 l 326 1014 l 426 854 l 426 847 z "},"ï":{"ha":411,"x_min":-46,"x_max":457,"o":"m 72 0 l 72 708 l 339 708 l 339 0 l 72 0 m -46 850 l -46 1014 l 161 1014 l 161 850 l -46 850 m 250 850 l 250 1014 l 457 1014 l 457 850 l 250 850 z "},"ị":{"ha":411,"x_min":72,"x_max":361,"o":"m 72 835 l 72 1032 l 340 1032 l 340 835 l 72 835 m 72 0 l 72 708 l 339 708 l 339 0 l 72 0 m 89 -310 l 89 -86 l 361 -86 l 361 -310 l 89 -310 z "},"ì":{"ha":411,"x_min":-31,"x_max":340,"o":"m 72 0 l 72 708 l 339 708 l 339 0 l 72 0 m 157 828 l -31 1025 l -31 1032 l 217 1032 l 340 835 l 340 828 l 157 828 z "},"ỉ":{"ha":411,"x_min":11,"x_max":400,"o":"m 72 0 l 72 708 l 339 708 l 339 0 l 72 0 m 103 851 q 115 922 103 903 q 171 950 128 940 l 193 957 q 230 971 222 964 q 238 994 238 978 q 222 1026 238 1019 q 156 1032 207 1032 q 83 1030 122 1032 q 11 1024 43 1028 l 11 1139 q 98 1150 46 1146 q 196 1154 150 1154 q 308 1147 267 1154 q 374 1108 349 1139 q 400 1010 400 1076 q 388 945 400 968 q 356 912 376 922 q 296 890 335 901 l 279 885 q 244 869 253 876 q 236 847 236 863 l 103 847 l 103 851 z "},"ȋ":{"ha":411,"x_min":-14,"x_max":422,"o":"m 72 0 l 72 708 l 339 708 l 339 0 l 72 0 m -14 829 q 3 942 -14 897 q 67 1013 19 988 q 206 1039 115 1039 q 342 1013 294 1039 q 406 942 390 988 q 422 829 422 897 l 283 829 q 280 872 283 857 q 259 896 276 886 q 206 906 242 906 q 151 896 168 906 q 129 871 133 886 q 125 829 125 856 l -14 829 z "},"ĳ":{"ha":822,"x_min":72,"x_max":751,"o":"m 72 835 l 72 1032 l 340 1032 l 340 835 l 72 835 m 72 0 l 72 708 l 339 708 l 339 0 l 72 0 m 483 835 l 483 1032 l 751 1032 l 751 835 l 483 835 m 376 -100 q 449 -92 426 -100 q 477 -71 471 -85 q 483 -28 483 -57 l 483 708 l 750 708 l 750 31 q 722 -176 750 -114 q 619 -258 693 -239 q 376 -276 546 -276 l 376 -100 z "},"ī":{"ha":411,"x_min":7,"x_max":406,"o":"m 72 0 l 72 708 l 339 708 l 339 0 l 72 0 m 7 828 l 7 1032 l 406 1032 l 406 828 l 7 828 z "},"į":{"ha":411,"x_min":42,"x_max":339,"o":"m 308 1014 l 308 850 l 101 850 l 101 1014 l 308 1014 m 339 0 q 276 -43 303 -14 q 250 -103 250 -72 q 315 -146 250 -146 l 339 -144 l 339 -267 q 232 -272 275 -272 q 85 -240 129 -272 q 42 -154 42 -207 q 128 0 42 -76 l 72 0 l 72 708 l 339 708 l 339 0 z "},"ĩ":{"ha":411,"x_min":-72,"x_max":483,"o":"m 72 0 l 72 708 l 339 708 l 339 0 l 72 0 m 483 1032 q 476 910 483 951 q 440 846 469 869 q 347 822 411 822 q 246 833 299 822 q 183 846 193 844 q 141 855 175 847 q 86 863 107 863 q 58 851 63 863 q 53 806 53 840 l -72 806 q -65 927 -72 886 q -29 992 -58 968 q 64 1015 0 1015 q 228 992 125 1015 l 257 986 q 325 976 306 976 q 353 987 349 976 q 358 1032 358 997 l 483 1032 z "},"j":{"ha":411,"x_min":-35,"x_max":340,"o":"m 72 835 l 72 1032 l 340 1032 l 340 835 l 72 835 m -35 -100 q 38 -92 15 -100 q 66 -71 60 -85 q 72 -28 72 -57 l 72 708 l 339 708 l 339 31 q 310 -176 339 -114 q 208 -258 282 -239 q -35 -276 135 -276 l -35 -100 z "},"ȷ":{"ha":411,"x_min":-35,"x_max":339,"o":"m -35 -100 q 38 -92 15 -100 q 66 -71 60 -85 q 72 -28 72 -57 l 72 708 l 339 708 l 339 31 q 310 -176 339 -114 q 208 -258 282 -239 q -35 -276 135 -276 l -35 -100 z "},"ĵ":{"ha":411,"x_min":-40,"x_max":450,"o":"m -35 -100 q 38 -92 15 -100 q 66 -71 60 -85 q 72 -28 72 -57 l 72 708 l 339 708 l 339 31 q 310 -176 339 -114 q 208 -258 282 -239 q -35 -276 135 -276 l -35 -100 m -40 828 l -40 838 l 86 1032 l 322 1032 l 450 838 l 450 828 l 285 828 l 204 933 l 126 828 l -40 828 z "},"k":{"ha":815,"x_min":72,"x_max":807,"o":"m 519 0 l 361 256 l 335 256 l 335 0 l 72 0 l 72 1032 l 335 1032 l 335 447 l 361 447 l 526 708 l 803 708 l 578 372 l 807 0 l 519 0 z "},"ķ":{"ha":815,"x_min":72,"x_max":807,"o":"m 519 0 l 361 256 l 335 256 l 335 0 l 72 0 l 72 1032 l 335 1032 l 335 447 l 361 447 l 526 708 l 803 708 l 578 372 l 807 0 l 519 0 m 276 -308 q 338 -304 318 -308 q 365 -289 358 -300 q 372 -257 372 -278 l 372 -246 l 282 -246 l 282 -81 l 538 -81 l 538 -187 q 520 -322 538 -278 q 449 -383 503 -365 q 276 -401 394 -401 l 276 -308 z "},"ĸ":{"ha":815,"x_min":72,"x_max":807,"o":"m 519 0 l 361 256 l 335 256 l 335 0 l 72 0 l 72 708 l 335 708 l 335 447 l 361 447 l 526 708 l 803 708 l 578 372 l 807 0 l 519 0 z "},"l":{"ha":411,"x_min":72,"x_max":339,"o":"m 72 0 l 72 1032 l 339 1032 l 339 0 l 72 0 z "},"ĺ":{"ha":411,"x_min":72,"x_max":482,"o":"m 72 0 l 72 1032 l 339 1032 l 339 0 l 72 0 m 111 1075 l 111 1082 l 235 1279 l 482 1279 l 482 1272 l 294 1075 l 111 1075 z "},"ľ":{"ha":547,"x_min":72,"x_max":626,"o":"m 72 0 l 72 1032 l 339 1032 l 339 0 l 72 0 m 382 589 l 397 886 l 397 956 l 626 956 l 626 886 l 558 589 l 382 589 z "},"ļ":{"ha":411,"x_min":72,"x_max":339,"o":"m 72 0 l 72 1032 l 339 1032 l 339 0 l 72 0 m 74 -308 q 135 -304 115 -308 q 163 -289 156 -300 q 169 -257 169 -278 l 169 -246 l 79 -246 l 79 -81 l 335 -81 l 335 -187 q 317 -322 335 -278 q 246 -383 300 -365 q 74 -401 192 -401 l 74 -308 z "},"ŀ":{"ha":586,"x_min":72,"x_max":617,"o":"m 72 0 l 72 1032 l 339 1032 l 339 0 l 72 0 m 385 304 l 385 528 l 617 528 l 617 304 l 385 304 z "},"ǉ":{"ha":822,"x_min":72,"x_max":751,"o":"m 72 0 l 72 1032 l 339 1032 l 339 0 l 72 0 m 483 835 l 483 1032 l 751 1032 l 751 835 l 483 835 m 376 -100 q 449 -92 426 -100 q 477 -71 471 -85 q 483 -28 483 -57 l 483 708 l 750 708 l 750 31 q 722 -176 750 -114 q 619 -258 693 -239 q 376 -276 546 -276 l 376 -100 z "},"ł":{"ha":449,"x_min":14,"x_max":433,"o":"m 90 0 l 90 394 l 14 367 l 14 547 l 90 575 l 90 1032 l 357 1032 l 357 665 l 433 693 l 433 511 l 357 483 l 357 0 l 90 0 z "},"m":{"ha":1203,"x_min":72,"x_max":1131,"o":"m 868 374 q 864 467 868 442 q 847 500 860 493 q 803 507 835 507 q 754 499 768 507 q 736 464 740 490 q 732 372 732 438 l 732 0 l 471 0 l 471 374 q 467 467 471 442 q 450 500 463 493 q 406 507 438 507 q 357 499 371 507 q 339 464 343 490 q 335 372 335 438 l 335 0 l 72 0 l 72 708 l 325 708 l 331 626 l 343 626 q 535 719 399 719 q 657 697 614 719 q 719 626 700 675 l 733 626 q 926 719 789 719 q 1056 688 1011 719 q 1115 599 1100 657 q 1131 443 1131 540 l 1131 0 l 868 0 l 868 374 z "},"n":{"ha":818,"x_min":72,"x_max":746,"o":"m 483 374 q 479 467 483 442 q 461 500 475 493 q 411 507 447 507 q 359 498 374 507 q 340 463 344 489 q 335 372 335 436 l 335 0 l 72 0 l 72 708 l 325 708 l 331 626 l 343 626 q 538 719 399 719 q 672 688 626 719 q 731 599 717 657 q 746 443 746 542 l 746 0 l 483 0 l 483 374 z "},"ń":{"ha":818,"x_min":72,"x_max":746,"o":"m 483 374 q 479 467 483 442 q 461 500 475 493 q 411 507 447 507 q 359 498 374 507 q 340 463 344 489 q 335 372 335 436 l 335 0 l 72 0 l 72 708 l 325 708 l 331 626 l 343 626 q 538 719 399 719 q 672 688 626 719 q 731 599 717 657 q 746 443 746 542 l 746 0 l 483 0 l 483 374 m 315 828 l 315 835 l 439 1032 l 686 1032 l 686 1025 l 499 828 l 315 828 z "},"ŉ":{"ha":1047,"x_min":29,"x_max":975,"o":"m 29 753 q 91 760 71 753 q 118 787 111 768 q 125 843 125 806 l 125 863 l 35 863 l 35 1032 l 290 1032 l 290 911 q 273 753 290 804 q 201 680 256 701 q 29 658 146 658 l 29 753 m 713 374 q 708 467 713 442 q 690 500 704 493 q 640 507 676 507 q 588 498 603 507 q 569 463 574 489 q 564 372 564 436 l 564 0 l 301 0 l 301 708 l 554 708 l 560 626 l 572 626 q 767 719 628 719 q 901 688 856 719 q 960 599 946 657 q 975 443 975 542 l 975 0 l 713 0 l 713 374 z "},"ň":{"ha":818,"x_min":72,"x_max":746,"o":"m 483 374 q 479 467 483 442 q 461 500 475 493 q 411 507 447 507 q 359 498 374 507 q 340 463 344 489 q 335 372 335 436 l 335 0 l 72 0 l 72 708 l 325 708 l 331 626 l 343 626 q 538 719 399 719 q 672 688 626 719 q 731 599 717 657 q 746 443 746 542 l 746 0 l 483 0 l 483 374 m 290 828 l 164 1021 l 164 1032 l 331 1032 l 411 926 l 489 1032 l 654 1032 l 654 1021 l 526 828 l 290 828 z "},"ņ":{"ha":818,"x_min":72,"x_max":746,"o":"m 483 374 q 479 467 483 442 q 461 500 475 493 q 411 507 447 507 q 359 498 374 507 q 340 463 344 489 q 335 372 335 436 l 335 0 l 72 0 l 72 708 l 325 708 l 331 626 l 343 626 q 538 719 399 719 q 672 688 626 719 q 731 599 717 657 q 746 443 746 542 l 746 0 l 483 0 l 483 374 m 278 -308 q 340 -304 319 -308 q 367 -289 360 -300 q 374 -257 374 -278 l 374 -246 l 283 -246 l 283 -81 l 539 -81 l 539 -187 q 522 -322 539 -278 q 450 -383 504 -365 q 278 -401 396 -401 l 278 -308 z "},"ṅ":{"ha":818,"x_min":72,"x_max":746,"o":"m 483 374 q 479 467 483 442 q 461 500 475 493 q 411 507 447 507 q 359 498 374 507 q 340 463 344 489 q 335 372 335 436 l 335 0 l 72 0 l 72 708 l 325 708 l 331 626 l 343 626 q 538 719 399 719 q 672 688 626 719 q 731 599 717 657 q 746 443 746 542 l 746 0 l 483 0 l 483 374 m 306 850 l 306 1014 l 513 1014 l 513 850 l 306 850 z "},"ŋ":{"ha":818,"x_min":72,"x_max":746,"o":"m 538 719 q 672 688 626 719 q 731 599 717 657 q 746 443 746 542 l 746 31 q 718 -176 746 -114 q 617 -258 690 -239 q 376 -276 544 -276 l 376 -100 q 449 -92 426 -100 q 477 -71 471 -85 q 483 -28 483 -57 l 483 374 q 479 467 483 442 q 461 500 475 493 q 411 507 447 507 q 359 498 374 507 q 340 463 344 489 q 335 372 335 436 l 335 0 l 72 0 l 72 708 l 325 708 l 331 626 l 343 626 q 538 719 399 719 z "},"ɲ":{"ha":818,"x_min":-35,"x_max":746,"o":"m -35 -100 q 38 -92 15 -100 q 66 -71 60 -85 q 72 -28 72 -57 l 72 708 l 325 708 l 331 626 l 343 626 q 538 719 399 719 q 672 688 626 719 q 731 599 717 657 q 746 443 746 542 l 746 0 l 483 0 l 483 374 q 479 467 483 442 q 461 500 475 493 q 411 507 447 507 q 359 498 374 507 q 340 463 344 489 q 335 372 335 436 l 335 31 q 307 -176 335 -114 q 206 -258 279 -239 q -35 -276 133 -276 l -35 -100 z "},"ǌ":{"ha":1228,"x_min":72,"x_max":1158,"o":"m 483 374 q 479 467 483 442 q 461 500 475 493 q 411 507 447 507 q 359 498 374 507 q 340 463 344 489 q 335 372 335 436 l 335 0 l 72 0 l 72 708 l 325 708 l 331 626 l 343 626 q 538 719 399 719 q 672 688 626 719 q 731 599 717 657 q 746 443 746 542 l 746 0 l 483 0 l 483 374 m 890 835 l 890 1032 l 1158 1032 l 1158 835 l 890 835 m 783 -100 q 856 -92 833 -100 q 884 -71 878 -85 q 890 -28 890 -57 l 890 708 l 1157 708 l 1157 31 q 1128 -176 1157 -114 q 1026 -258 1100 -239 q 783 -276 953 -276 l 783 -100 z "},"ñ":{"ha":818,"x_min":72,"x_max":746,"o":"m 483 374 q 479 467 483 442 q 461 500 475 493 q 411 507 447 507 q 359 498 374 507 q 340 463 344 489 q 335 372 335 436 l 335 0 l 72 0 l 72 708 l 325 708 l 331 626 l 343 626 q 538 719 399 719 q 672 688 626 719 q 731 599 717 657 q 746 443 746 542 l 746 0 l 483 0 l 483 374 m 692 1032 q 685 910 692 951 q 649 846 678 869 q 556 822 619 822 q 454 833 507 822 q 392 846 401 844 q 349 855 383 847 q 294 863 315 863 q 266 851 271 863 q 261 806 261 840 l 136 806 q 143 927 136 886 q 179 992 150 968 q 272 1015 208 1015 q 436 992 333 1015 l 465 986 q 533 976 514 976 q 562 987 557 976 q 567 1032 567 997 l 692 1032 z "},"o":{"ha":793,"x_min":51,"x_max":743,"o":"m 396 -11 q 160 20 232 -11 q 70 122 89 51 q 51 354 51 193 q 70 586 51 515 q 160 688 89 657 q 396 719 232 719 q 633 688 561 719 q 724 586 704 657 q 743 354 743 515 q 724 122 743 193 q 633 20 704 51 q 396 -11 561 -11 m 396 182 q 456 192 440 182 q 476 233 472 201 q 481 354 481 265 q 476 475 481 443 q 456 517 472 507 q 396 526 440 526 q 335 517 351 526 q 316 476 319 507 q 313 354 313 444 q 316 233 313 264 q 335 192 319 201 q 396 182 351 182 z "},"ó":{"ha":793,"x_min":51,"x_max":743,"o":"m 396 -11 q 160 20 232 -11 q 70 122 89 51 q 51 354 51 193 q 70 586 51 515 q 160 688 89 657 q 396 719 232 719 q 633 688 561 719 q 724 586 704 657 q 743 354 743 515 q 724 122 743 193 q 633 20 704 51 q 396 -11 561 -11 m 396 182 q 456 192 440 182 q 476 233 472 201 q 481 354 481 265 q 476 475 481 443 q 456 517 472 507 q 396 526 440 526 q 335 517 351 526 q 316 476 319 507 q 313 354 313 444 q 316 233 313 264 q 335 192 319 201 q 396 182 351 182 m 290 828 l 290 835 l 414 1032 l 661 1032 l 661 1025 l 474 828 l 290 828 z "},"ŏ":{"ha":793,"x_min":51,"x_max":743,"o":"m 396 -11 q 160 20 232 -11 q 70 122 89 51 q 51 354 51 193 q 70 586 51 515 q 160 688 89 657 q 396 719 232 719 q 633 688 561 719 q 724 586 704 657 q 743 354 743 515 q 724 122 743 193 q 633 20 704 51 q 396 -11 561 -11 m 396 182 q 456 192 440 182 q 476 233 472 201 q 481 354 481 265 q 476 475 481 443 q 456 517 472 507 q 396 526 440 526 q 335 517 351 526 q 316 476 319 507 q 313 354 313 444 q 316 233 313 264 q 335 192 319 201 q 396 182 351 182 m 614 1032 q 597 919 614 964 q 533 848 581 874 q 394 822 485 822 q 258 848 306 822 q 194 919 210 874 q 178 1032 178 964 l 317 1032 q 320 990 317 1004 q 341 965 324 975 q 394 956 358 956 q 449 965 432 956 q 471 990 467 975 q 475 1032 475 1006 l 614 1032 z "},"ǒ":{"ha":793,"x_min":51,"x_max":743,"o":"m 396 -11 q 160 20 232 -11 q 70 122 89 51 q 51 354 51 193 q 70 586 51 515 q 160 688 89 657 q 396 719 232 719 q 633 688 561 719 q 724 586 704 657 q 743 354 743 515 q 724 122 743 193 q 633 20 704 51 q 396 -11 561 -11 m 396 182 q 456 192 440 182 q 476 233 472 201 q 481 354 481 265 q 476 475 481 443 q 456 517 472 507 q 396 526 440 526 q 335 517 351 526 q 316 476 319 507 q 313 354 313 444 q 316 233 313 264 q 335 192 319 201 q 396 182 351 182 m 278 828 l 151 1021 l 151 1032 l 318 1032 l 399 926 l 476 1032 l 642 1032 l 642 1021 l 514 828 l 278 828 z "},"ô":{"ha":793,"x_min":51,"x_max":743,"o":"m 396 -11 q 160 20 232 -11 q 70 122 89 51 q 51 354 51 193 q 70 586 51 515 q 160 688 89 657 q 396 719 232 719 q 633 688 561 719 q 724 586 704 657 q 743 354 743 515 q 724 122 743 193 q 633 20 704 51 q 396 -11 561 -11 m 396 182 q 456 192 440 182 q 476 233 472 201 q 481 354 481 265 q 476 475 481 443 q 456 517 472 507 q 396 526 440 526 q 335 517 351 526 q 316 476 319 507 q 313 354 313 444 q 316 233 313 264 q 335 192 319 201 q 396 182 351 182 m 154 828 l 154 838 l 281 1032 l 517 1032 l 644 838 l 644 828 l 479 828 l 399 933 l 321 828 l 154 828 z "},"ố":{"ha":793,"x_min":51,"x_max":776,"o":"m 406 1067 l 406 1074 l 529 1271 l 776 1271 l 776 1264 l 589 1067 l 406 1067 m 150 826 l 150 836 l 276 1031 l 513 1031 l 640 836 l 640 826 l 475 826 l 394 932 l 317 826 l 150 826 m 396 -11 q 160 20 232 -11 q 70 122 89 51 q 51 354 51 193 q 70 586 51 515 q 160 688 89 657 q 396 719 232 719 q 633 688 561 719 q 724 586 704 657 q 743 354 743 515 q 724 122 743 193 q 633 20 704 51 q 396 -11 561 -11 m 396 182 q 456 192 440 182 q 476 233 472 201 q 481 354 481 265 q 476 475 481 443 q 456 517 472 507 q 396 526 440 526 q 335 517 351 526 q 316 476 319 507 q 313 354 313 444 q 316 233 313 264 q 335 192 319 201 q 396 182 351 182 z "},"ộ":{"ha":793,"x_min":51,"x_max":743,"o":"m 396 -11 q 160 20 232 -11 q 70 122 89 51 q 51 354 51 193 q 70 586 51 515 q 160 688 89 657 q 396 719 232 719 q 633 688 561 719 q 724 586 704 657 q 743 354 743 515 q 724 122 743 193 q 633 20 704 51 q 396 -11 561 -11 m 396 182 q 456 192 440 182 q 476 233 472 201 q 481 354 481 265 q 476 475 481 443 q 456 517 472 507 q 396 526 440 526 q 335 517 351 526 q 316 476 319 507 q 313 354 313 444 q 316 233 313 264 q 335 192 319 201 q 396 182 351 182 m 261 -310 l 261 -86 l 533 -86 l 533 -310 l 261 -310 m 151 828 l 151 838 l 278 1032 l 514 1032 l 642 838 l 642 828 l 476 828 l 396 933 l 318 828 l 151 828 z "},"ồ":{"ha":793,"x_min":51,"x_max":743,"o":"m 468 1067 l 281 1264 l 281 1271 l 528 1271 l 651 1074 l 651 1067 l 468 1067 m 139 826 l 139 836 l 265 1031 l 501 1031 l 629 836 l 629 826 l 464 826 l 383 932 l 306 826 l 139 826 m 396 -11 q 160 20 232 -11 q 70 122 89 51 q 51 354 51 193 q 70 586 51 515 q 160 688 89 657 q 396 719 232 719 q 633 688 561 719 q 724 586 704 657 q 743 354 743 515 q 724 122 743 193 q 633 20 704 51 q 396 -11 561 -11 m 396 182 q 456 192 440 182 q 476 233 472 201 q 481 354 481 265 q 476 475 481 443 q 456 517 472 507 q 396 526 440 526 q 335 517 351 526 q 316 476 319 507 q 313 354 313 444 q 316 233 313 264 q 335 192 319 201 q 396 182 351 182 z "},"ổ":{"ha":793,"x_min":51,"x_max":763,"o":"m 465 1063 q 478 1133 465 1114 q 533 1161 490 1151 l 556 1168 q 592 1182 585 1175 q 600 1206 600 1189 q 585 1237 600 1231 q 518 1243 569 1243 q 445 1241 485 1243 q 374 1235 406 1239 l 374 1350 q 460 1361 408 1357 q 558 1365 513 1365 q 670 1358 629 1365 q 737 1319 711 1350 q 763 1221 763 1288 q 751 1156 763 1179 q 718 1123 739 1133 q 658 1101 697 1113 l 642 1096 q 607 1081 615 1088 q 599 1058 599 1074 l 465 1058 l 465 1063 m 151 826 l 151 836 l 278 1031 l 514 1031 l 642 836 l 642 826 l 476 826 l 396 932 l 318 826 l 151 826 m 396 -11 q 160 20 232 -11 q 70 122 89 51 q 51 354 51 193 q 70 586 51 515 q 160 688 89 657 q 396 719 232 719 q 633 688 561 719 q 724 586 704 657 q 743 354 743 515 q 724 122 743 193 q 633 20 704 51 q 396 -11 561 -11 m 396 182 q 456 192 440 182 q 476 233 472 201 q 481 354 481 265 q 476 475 481 443 q 456 517 472 507 q 396 526 440 526 q 335 517 351 526 q 316 476 319 507 q 313 354 313 444 q 316 233 313 264 q 335 192 319 201 q 396 182 351 182 z "},"ỗ":{"ha":793,"x_min":51,"x_max":743,"o":"m 674 1271 q 667 1149 674 1190 q 631 1085 660 1108 q 539 1061 603 1061 q 438 1072 490 1061 q 375 1085 385 1083 q 333 1094 367 1086 q 278 1101 299 1101 q 249 1090 254 1101 q 244 1044 244 1079 l 119 1044 q 126 1166 119 1125 q 163 1231 133 1207 q 256 1254 192 1254 q 419 1231 317 1254 l 449 1225 q 517 1215 497 1215 q 545 1226 540 1215 q 550 1271 550 1236 l 674 1271 m 149 826 l 149 836 l 275 1031 l 511 1031 l 639 836 l 639 826 l 474 826 l 393 932 l 315 826 l 149 826 m 396 -11 q 160 20 232 -11 q 70 122 89 51 q 51 354 51 193 q 70 586 51 515 q 160 688 89 657 q 396 719 232 719 q 633 688 561 719 q 724 586 704 657 q 743 354 743 515 q 724 122 743 193 q 633 20 704 51 q 396 -11 561 -11 m 396 182 q 456 192 440 182 q 476 233 472 201 q 481 354 481 265 q 476 475 481 443 q 456 517 472 507 q 396 526 440 526 q 335 517 351 526 q 316 476 319 507 q 313 354 313 444 q 316 233 313 264 q 335 192 319 201 q 396 182 351 182 z "},"ȍ":{"ha":793,"x_min":51,"x_max":743,"o":"m 396 -11 q 160 20 232 -11 q 70 122 89 51 q 51 354 51 193 q 70 586 51 515 q 160 688 89 657 q 396 719 232 719 q 633 688 561 719 q 724 586 704 657 q 743 354 743 515 q 724 122 743 193 q 633 20 704 51 q 396 -11 561 -11 m 396 182 q 456 192 440 182 q 476 233 472 201 q 481 354 481 265 q 476 475 481 443 q 456 517 472 507 q 396 526 440 526 q 335 517 351 526 q 316 476 319 507 q 313 354 313 444 q 316 233 313 264 q 335 192 319 201 q 396 182 351 182 m 356 847 l 204 847 l 53 1008 l 53 1014 l 253 1014 l 356 854 l 356 847 m 618 847 l 469 847 l 317 1008 l 317 1014 l 518 1014 l 618 854 l 618 847 z "},"ö":{"ha":793,"x_min":51,"x_max":743,"o":"m 396 -11 q 160 20 232 -11 q 70 122 89 51 q 51 354 51 193 q 70 586 51 515 q 160 688 89 657 q 396 719 232 719 q 633 688 561 719 q 724 586 704 657 q 743 354 743 515 q 724 122 743 193 q 633 20 704 51 q 396 -11 561 -11 m 396 182 q 456 192 440 182 q 476 233 472 201 q 481 354 481 265 q 476 475 481 443 q 456 517 472 507 q 396 526 440 526 q 335 517 351 526 q 316 476 319 507 q 313 354 313 444 q 316 233 313 264 q 335 192 319 201 q 396 182 351 182 m 149 850 l 149 1014 l 356 1014 l 356 850 l 149 850 m 444 850 l 444 1014 l 651 1014 l 651 850 l 444 850 z "},"ọ":{"ha":793,"x_min":51,"x_max":743,"o":"m 396 -11 q 160 20 232 -11 q 70 122 89 51 q 51 354 51 193 q 70 586 51 515 q 160 688 89 657 q 396 719 232 719 q 633 688 561 719 q 724 586 704 657 q 743 354 743 515 q 724 122 743 193 q 633 20 704 51 q 396 -11 561 -11 m 396 182 q 456 192 440 182 q 476 233 472 201 q 481 354 481 265 q 476 475 481 443 q 456 517 472 507 q 396 526 440 526 q 335 517 351 526 q 316 476 319 507 q 313 354 313 444 q 316 233 313 264 q 335 192 319 201 q 396 182 351 182 m 261 -310 l 261 -86 l 533 -86 l 533 -310 l 261 -310 z "},"ò":{"ha":793,"x_min":51,"x_max":743,"o":"m 396 -11 q 160 20 232 -11 q 70 122 89 51 q 51 354 51 193 q 70 586 51 515 q 160 688 89 657 q 396 719 232 719 q 633 688 561 719 q 724 586 704 657 q 743 354 743 515 q 724 122 743 193 q 633 20 704 51 q 396 -11 561 -11 m 396 182 q 456 192 440 182 q 476 233 472 201 q 481 354 481 265 q 476 475 481 443 q 456 517 472 507 q 396 526 440 526 q 335 517 351 526 q 316 476 319 507 q 313 354 313 444 q 316 233 313 264 q 335 192 319 201 q 396 182 351 182 m 317 828 l 129 1025 l 129 1032 l 376 1032 l 500 835 l 500 828 l 317 828 z "},"ỏ":{"ha":793,"x_min":51,"x_max":743,"o":"m 396 -11 q 160 20 232 -11 q 70 122 89 51 q 51 354 51 193 q 70 586 51 515 q 160 688 89 657 q 396 719 232 719 q 633 688 561 719 q 724 586 704 657 q 743 354 743 515 q 724 122 743 193 q 633 20 704 51 q 396 -11 561 -11 m 396 182 q 456 192 440 182 q 476 233 472 201 q 481 354 481 265 q 476 475 481 443 q 456 517 472 507 q 396 526 440 526 q 335 517 351 526 q 316 476 319 507 q 313 354 313 444 q 316 233 313 264 q 335 192 319 201 q 396 182 351 182 m 294 851 q 307 922 294 903 q 363 950 319 940 l 385 957 q 422 971 414 964 q 429 994 429 978 q 414 1026 429 1019 q 347 1032 399 1032 q 274 1030 314 1032 q 203 1024 235 1028 l 203 1139 q 290 1150 238 1146 q 388 1154 342 1154 q 499 1147 458 1154 q 566 1108 540 1139 q 592 1010 592 1076 q 580 945 592 968 q 547 912 568 922 q 488 890 526 901 l 471 885 q 436 869 444 876 q 428 847 428 863 l 294 847 l 294 851 z "},"ơ":{"ha":793,"x_min":51,"x_max":831,"o":"m 831 832 l 831 811 q 822 713 831 749 q 786 655 813 676 q 707 625 760 633 q 736 524 729 585 q 743 354 743 463 q 724 122 743 193 q 633 20 704 51 q 396 -11 561 -11 q 160 20 232 -11 q 70 122 89 51 q 51 354 51 193 q 70 586 51 515 q 160 688 89 657 q 396 719 232 719 q 561 708 504 719 l 569 708 q 631 717 611 708 q 658 743 651 725 q 664 799 664 761 l 664 832 l 831 832 m 396 182 q 456 192 440 182 q 476 233 472 201 q 481 354 481 265 q 476 475 481 443 q 456 517 472 507 q 396 526 440 526 q 335 517 351 526 q 316 476 319 507 q 313 354 313 444 q 316 233 313 264 q 335 192 319 201 q 396 182 351 182 z "},"ớ":{"ha":793,"x_min":51,"x_max":831,"o":"m 831 832 l 831 811 q 822 713 831 749 q 786 655 813 676 q 707 625 760 633 q 736 524 729 585 q 743 354 743 463 q 724 122 743 193 q 633 20 704 51 q 396 -11 561 -11 q 160 20 232 -11 q 70 122 89 51 q 51 354 51 193 q 70 586 51 515 q 160 688 89 657 q 396 719 232 719 q 561 708 504 719 l 569 708 q 631 717 611 708 q 658 743 651 725 q 664 799 664 761 l 664 832 l 831 832 m 396 182 q 456 192 440 182 q 476 233 472 201 q 481 354 481 265 q 476 475 481 443 q 456 517 472 507 q 396 526 440 526 q 335 517 351 526 q 316 476 319 507 q 313 354 313 444 q 316 233 313 264 q 335 192 319 201 q 396 182 351 182 m 303 828 l 303 835 l 426 1032 l 674 1032 l 674 1025 l 486 828 l 303 828 z "},"ợ":{"ha":793,"x_min":51,"x_max":831,"o":"m 831 832 l 831 811 q 822 713 831 749 q 786 655 813 676 q 707 625 760 633 q 736 524 729 585 q 743 354 743 463 q 724 122 743 193 q 633 20 704 51 q 396 -11 561 -11 q 160 20 232 -11 q 70 122 89 51 q 51 354 51 193 q 70 586 51 515 q 160 688 89 657 q 396 719 232 719 q 561 708 504 719 l 569 708 q 631 717 611 708 q 658 743 651 725 q 664 799 664 761 l 664 832 l 831 832 m 396 182 q 456 192 440 182 q 476 233 472 201 q 481 354 481 265 q 476 475 481 443 q 456 517 472 507 q 396 526 440 526 q 335 517 351 526 q 316 476 319 507 q 313 354 313 444 q 316 233 313 264 q 335 192 319 201 q 396 182 351 182 m 261 -310 l 261 -86 l 533 -86 l 533 -310 l 261 -310 z "},"ờ":{"ha":793,"x_min":51,"x_max":831,"o":"m 831 832 l 831 811 q 822 713 831 749 q 786 655 813 676 q 707 625 760 633 q 736 524 729 585 q 743 354 743 463 q 724 122 743 193 q 633 20 704 51 q 396 -11 561 -11 q 160 20 232 -11 q 70 122 89 51 q 51 354 51 193 q 70 586 51 515 q 160 688 89 657 q 396 719 232 719 q 561 708 504 719 l 569 708 q 631 717 611 708 q 658 743 651 725 q 664 799 664 761 l 664 832 l 831 832 m 396 182 q 456 192 440 182 q 476 233 472 201 q 481 354 481 265 q 476 475 481 443 q 456 517 472 507 q 396 526 440 526 q 335 517 351 526 q 316 476 319 507 q 313 354 313 444 q 316 233 313 264 q 335 192 319 201 q 396 182 351 182 m 313 828 l 125 1025 l 125 1032 l 372 1032 l 496 835 l 496 828 l 313 828 z "},"ở":{"ha":793,"x_min":51,"x_max":831,"o":"m 831 832 l 831 811 q 822 713 831 749 q 786 655 813 676 q 707 625 760 633 q 736 524 729 585 q 743 354 743 463 q 724 122 743 193 q 633 20 704 51 q 396 -11 561 -11 q 160 20 232 -11 q 70 122 89 51 q 51 354 51 193 q 70 586 51 515 q 160 688 89 657 q 396 719 232 719 q 561 708 504 719 l 569 708 q 631 717 611 708 q 658 743 651 725 q 664 799 664 761 l 664 832 l 831 832 m 396 182 q 456 192 440 182 q 476 233 472 201 q 481 354 481 265 q 476 475 481 443 q 456 517 472 507 q 396 526 440 526 q 335 517 351 526 q 316 476 319 507 q 313 354 313 444 q 316 233 313 264 q 335 192 319 201 q 396 182 351 182 m 294 851 q 307 922 294 903 q 363 950 319 940 l 385 957 q 422 971 414 964 q 429 994 429 978 q 414 1026 429 1019 q 347 1032 399 1032 q 274 1030 314 1032 q 203 1024 235 1028 l 203 1139 q 290 1150 238 1146 q 388 1154 342 1154 q 499 1147 458 1154 q 566 1108 540 1139 q 592 1010 592 1076 q 580 945 592 968 q 547 912 568 922 q 488 890 526 901 l 471 885 q 436 869 444 876 q 428 847 428 863 l 294 847 l 294 851 z "},"ỡ":{"ha":793,"x_min":51,"x_max":831,"o":"m 831 832 l 831 811 q 822 713 831 749 q 786 655 813 676 q 707 625 760 633 q 736 524 729 585 q 743 354 743 463 q 724 122 743 193 q 633 20 704 51 q 396 -11 561 -11 q 160 20 232 -11 q 70 122 89 51 q 51 354 51 193 q 70 586 51 515 q 160 688 89 657 q 396 719 232 719 q 561 708 504 719 l 569 708 q 631 717 611 708 q 658 743 651 725 q 664 799 664 761 l 664 832 l 831 832 m 396 182 q 456 192 440 182 q 476 233 472 201 q 481 354 481 265 q 476 475 481 443 q 456 517 472 507 q 396 526 440 526 q 335 517 351 526 q 316 476 319 507 q 313 354 313 444 q 316 233 313 264 q 335 192 319 201 q 396 182 351 182 m 675 1032 q 668 910 675 951 q 632 846 661 869 q 539 822 603 822 q 438 833 490 822 q 375 846 385 844 q 333 855 367 847 q 278 863 299 863 q 249 851 254 863 q 244 806 244 840 l 119 806 q 126 927 119 886 q 163 992 133 968 q 256 1015 192 1015 q 419 992 317 1015 l 449 986 q 517 976 497 976 q 545 987 540 976 q 550 1032 550 997 l 675 1032 z "},"ő":{"ha":793,"x_min":51,"x_max":757,"o":"m 396 -11 q 160 20 232 -11 q 70 122 89 51 q 51 354 51 193 q 70 586 51 515 q 160 688 89 657 q 396 719 232 719 q 633 688 561 719 q 724 586 704 657 q 743 354 743 515 q 724 122 743 193 q 633 20 704 51 q 396 -11 561 -11 m 396 182 q 456 192 440 182 q 476 233 472 201 q 481 354 481 265 q 476 475 481 443 q 456 517 472 507 q 396 526 440 526 q 335 517 351 526 q 316 476 319 507 q 313 354 313 444 q 316 233 313 264 q 335 192 319 201 q 396 182 351 182 m 192 847 l 192 854 l 292 1014 l 493 1014 l 493 1008 l 340 847 l 192 847 m 454 847 l 454 854 l 557 1014 l 757 1014 l 757 1008 l 606 847 l 454 847 z "},"ȏ":{"ha":793,"x_min":51,"x_max":743,"o":"m 396 -11 q 160 20 232 -11 q 70 122 89 51 q 51 354 51 193 q 70 586 51 515 q 160 688 89 657 q 396 719 232 719 q 633 688 561 719 q 724 586 704 657 q 743 354 743 515 q 724 122 743 193 q 633 20 704 51 q 396 -11 561 -11 m 396 182 q 456 192 440 182 q 476 233 472 201 q 481 354 481 265 q 476 475 481 443 q 456 517 472 507 q 396 526 440 526 q 335 517 351 526 q 316 476 319 507 q 313 354 313 444 q 316 233 313 264 q 335 192 319 201 q 396 182 351 182 m 178 829 q 194 942 178 897 q 259 1013 211 988 q 397 1039 307 1039 q 534 1013 486 1039 q 598 942 582 988 q 614 829 614 897 l 475 829 q 472 872 475 857 q 451 896 468 886 q 397 906 433 906 q 342 896 360 906 q 321 871 325 886 q 317 829 317 856 l 178 829 z "},"ō":{"ha":793,"x_min":51,"x_max":743,"o":"m 396 -11 q 160 20 232 -11 q 70 122 89 51 q 51 354 51 193 q 70 586 51 515 q 160 688 89 657 q 396 719 232 719 q 633 688 561 719 q 724 586 704 657 q 743 354 743 515 q 724 122 743 193 q 633 20 704 51 q 396 -11 561 -11 m 396 182 q 456 192 440 182 q 476 233 472 201 q 481 354 481 265 q 476 475 481 443 q 456 517 472 507 q 396 526 440 526 q 335 517 351 526 q 316 476 319 507 q 313 354 313 444 q 316 233 313 264 q 335 192 319 201 q 396 182 351 182 m 199 828 l 199 1032 l 597 1032 l 597 828 l 199 828 z "},"ǫ":{"ha":793,"x_min":51,"x_max":743,"o":"m 396 719 q 633 688 561 719 q 724 586 704 657 q 743 354 743 515 q 737 188 743 247 q 709 89 731 128 q 643 25 688 50 q 550 -97 550 -24 q 564 -133 550 -121 q 615 -146 578 -146 l 639 -144 l 639 -267 q 532 -272 592 -272 q 342 -151 342 -272 q 400 -11 342 -83 l 389 -11 q 158 22 226 -8 q 70 122 89 51 q 51 354 51 192 q 70 586 51 515 q 160 688 89 657 q 396 719 232 719 m 313 354 q 316 233 313 264 q 335 192 319 201 q 396 182 351 182 q 456 192 440 182 q 476 233 472 201 q 481 354 481 265 q 476 475 481 443 q 456 517 472 507 q 396 526 440 526 q 335 517 351 526 q 316 476 319 507 q 313 354 313 444 z "},"ø":{"ha":793,"x_min":51,"x_max":743,"o":"m 119 44 q 63 148 75 81 q 51 354 51 215 q 70 586 51 515 q 160 688 89 657 q 396 719 232 719 q 493 715 451 719 l 531 785 l 743 785 l 674 663 q 731 558 718 626 q 743 354 743 490 q 724 122 743 193 q 633 20 704 51 q 396 -11 561 -11 q 301 -7 328 -11 l 263 -76 l 53 -76 l 119 44 m 396 182 q 456 192 440 182 q 476 233 472 201 q 481 354 481 265 q 476 475 481 443 q 456 517 472 507 q 396 526 440 526 q 335 517 351 526 q 316 476 319 507 q 313 354 313 444 q 316 233 313 264 q 335 192 319 201 q 396 182 351 182 z "},"ǿ":{"ha":793,"x_min":51,"x_max":743,"o":"m 119 44 q 63 148 75 81 q 51 354 51 215 q 70 586 51 515 q 160 688 89 657 q 396 719 232 719 q 493 715 451 719 l 531 785 l 743 785 l 674 663 q 731 558 718 626 q 743 354 743 490 q 724 122 743 193 q 633 20 704 51 q 396 -11 561 -11 q 301 -7 328 -11 l 263 -76 l 53 -76 l 119 44 m 396 182 q 456 192 440 182 q 476 233 472 201 q 481 354 481 265 q 476 475 481 443 q 456 517 472 507 q 396 526 440 526 q 335 517 351 526 q 316 476 319 507 q 313 354 313 444 q 316 233 313 264 q 335 192 319 201 q 396 182 351 182 m 303 828 l 303 835 l 426 1032 l 674 1032 l 674 1025 l 486 828 l 303 828 z "},"õ":{"ha":793,"x_min":51,"x_max":743,"o":"m 396 -11 q 160 20 232 -11 q 70 122 89 51 q 51 354 51 193 q 70 586 51 515 q 160 688 89 657 q 396 719 232 719 q 633 688 561 719 q 724 586 704 657 q 743 354 743 515 q 724 122 743 193 q 633 20 704 51 q 396 -11 561 -11 m 396 182 q 456 192 440 182 q 476 233 472 201 q 481 354 481 265 q 476 475 481 443 q 456 517 472 507 q 396 526 440 526 q 335 517 351 526 q 316 476 319 507 q 313 354 313 444 q 316 233 313 264 q 335 192 319 201 q 396 182 351 182 m 678 1032 q 671 910 678 951 q 635 846 664 869 q 542 822 606 822 q 440 833 493 822 q 378 846 388 844 q 335 855 369 847 q 281 863 301 863 q 252 851 257 863 q 247 806 247 840 l 122 806 q 129 927 122 886 q 165 992 136 968 q 258 1015 194 1015 q 422 992 319 1015 l 451 986 q 519 976 500 976 q 548 987 543 976 q 553 1032 553 997 l 678 1032 z "},"œ":{"ha":1208,"x_min":51,"x_max":1151,"o":"m 1151 299 l 743 299 q 753 217 743 239 q 795 188 763 194 q 915 181 828 181 q 1124 192 979 181 l 1124 15 q 1011 -3 1083 4 q 869 -11 939 -11 q 619 47 701 -11 q 388 -11 544 -11 q 158 20 228 -11 q 70 122 89 51 q 51 354 51 193 q 70 586 51 515 q 158 688 89 657 q 388 719 228 719 q 523 706 467 719 q 615 661 579 692 q 843 719 693 719 q 1057 685 993 719 q 1136 582 1121 651 q 1151 353 1151 513 l 1151 299 m 825 543 q 770 535 786 543 q 749 503 754 528 q 743 415 743 478 l 908 415 q 902 503 908 478 q 880 536 896 529 q 825 543 864 543 m 396 182 q 456 192 440 182 q 476 233 472 201 q 481 354 481 265 q 476 475 481 443 q 456 517 472 507 q 396 526 440 526 q 335 517 351 526 q 316 476 319 507 q 313 354 313 444 q 316 233 313 264 q 335 192 319 201 q 396 182 351 182 z "},"p":{"ha":811,"x_min":72,"x_max":760,"o":"m 72 708 l 325 708 l 331 626 l 344 626 q 422 700 374 681 q 538 719 471 719 q 666 688 618 719 q 737 578 714 657 q 760 357 760 500 q 737 135 760 214 q 666 23 714 56 q 536 -10 618 -10 q 425 7 471 -10 q 347 72 379 24 l 335 72 l 335 -276 l 72 -276 l 72 708 m 415 200 q 474 208 458 200 q 493 245 489 217 q 497 354 497 274 q 493 463 497 435 q 474 500 489 492 q 415 508 458 508 q 366 501 382 508 q 343 469 350 493 q 335 354 335 439 q 342 240 335 267 q 366 208 350 215 q 415 200 382 200 z "},"þ":{"ha":811,"x_min":72,"x_max":760,"o":"m 72 1032 l 335 1032 l 335 628 l 349 628 q 425 700 378 681 q 538 719 472 719 q 666 688 618 719 q 737 578 714 657 q 760 357 760 500 q 737 135 760 214 q 666 23 714 56 q 536 -10 618 -10 q 425 7 471 -10 q 347 72 379 24 l 335 72 l 335 -262 l 72 -262 l 72 1032 m 415 200 q 474 208 458 200 q 493 245 489 217 q 497 354 497 274 q 493 463 497 435 q 474 500 489 492 q 415 508 458 508 q 365 500 381 508 q 343 465 350 492 q 335 354 335 435 q 342 244 335 267 q 365 208 349 217 q 415 200 381 200 z "},"q":{"ha":811,"x_min":51,"x_max":739,"o":"m 476 72 l 464 72 q 386 7 432 24 q 275 -10 340 -10 q 145 23 193 -10 q 74 135 97 56 q 51 356 51 214 q 74 578 51 499 q 144 688 97 657 q 274 719 192 719 q 389 700 340 719 q 467 626 438 681 l 481 626 l 486 708 l 739 708 l 739 -276 l 476 -276 l 476 72 m 396 200 q 443 207 428 200 q 467 235 458 214 q 474 275 472 247 q 476 354 476 303 q 474 432 476 404 q 465 478 472 460 q 442 502 457 496 q 396 508 426 508 q 338 500 353 508 q 317 463 322 492 q 313 354 313 433 q 317 246 313 275 q 338 208 322 217 q 396 200 353 200 z "},"r":{"ha":589,"x_min":72,"x_max":560,"o":"m 72 708 l 325 708 l 331 589 l 343 589 q 422 691 372 663 q 560 719 472 719 l 560 483 q 424 464 471 483 q 356 394 376 444 q 335 249 335 344 l 335 0 l 72 0 l 72 708 z "},"ŕ":{"ha":589,"x_min":72,"x_max":571,"o":"m 72 708 l 325 708 l 331 589 l 343 589 q 422 691 372 663 q 560 719 472 719 l 560 483 q 424 464 471 483 q 356 394 376 444 q 335 249 335 344 l 335 0 l 72 0 l 72 708 m 200 828 l 200 835 l 324 1032 l 571 1032 l 571 1025 l 383 828 l 200 828 z "},"ř":{"ha":589,"x_min":49,"x_max":560,"o":"m 72 708 l 325 708 l 331 589 l 343 589 q 422 691 372 663 q 560 719 472 719 l 560 483 q 424 464 471 483 q 356 394 376 444 q 335 249 335 344 l 335 0 l 72 0 l 72 708 m 175 828 l 49 1021 l 49 1032 l 215 1032 l 296 926 l 374 1032 l 539 1032 l 539 1021 l 411 828 l 175 828 z "},"ŗ":{"ha":589,"x_min":72,"x_max":560,"o":"m 72 708 l 325 708 l 331 589 l 343 589 q 422 691 372 663 q 560 719 472 719 l 560 483 q 424 464 471 483 q 356 394 376 444 q 335 249 335 344 l 335 0 l 72 0 l 72 708 m 72 -308 q 134 -304 114 -308 q 161 -289 154 -300 q 168 -257 168 -278 l 168 -246 l 78 -246 l 78 -81 l 333 -81 l 333 -187 q 316 -322 333 -278 q 244 -383 299 -365 q 72 -401 190 -401 l 72 -308 z "},"ȑ":{"ha":589,"x_min":-50,"x_max":560,"o":"m 72 708 l 325 708 l 331 589 l 343 589 q 422 691 372 663 q 560 719 472 719 l 560 483 q 424 464 471 483 q 356 394 376 444 q 335 249 335 344 l 335 0 l 72 0 l 72 708 m 253 847 l 101 847 l -50 1008 l -50 1014 l 150 1014 l 253 854 l 253 847 m 515 847 l 367 847 l 214 1008 l 214 1014 l 415 1014 l 515 854 l 515 847 z "},"ṛ":{"ha":589,"x_min":68,"x_max":560,"o":"m 72 708 l 325 708 l 331 589 l 343 589 q 422 691 372 663 q 560 719 472 719 l 560 483 q 424 464 471 483 q 356 394 376 444 q 335 249 335 344 l 335 0 l 72 0 l 72 708 m 68 -310 l 68 -86 l 340 -86 l 340 -310 l 68 -310 z "},"ȓ":{"ha":589,"x_min":72,"x_max":560,"o":"m 72 708 l 325 708 l 331 589 l 343 589 q 422 691 372 663 q 560 719 472 719 l 560 483 q 424 464 471 483 q 356 394 376 444 q 335 249 335 344 l 335 0 l 72 0 l 72 708 m 75 829 q 92 942 75 897 q 156 1013 108 988 q 294 1039 204 1039 q 431 1013 383 1039 q 495 942 479 988 q 511 829 511 897 l 372 829 q 369 872 372 857 q 348 896 365 886 q 294 906 331 906 q 240 896 257 906 q 218 871 222 886 q 214 829 214 856 l 75 829 z "},"s":{"ha":696,"x_min":44,"x_max":651,"o":"m 364 -11 q 210 -6 293 -11 q 67 8 126 0 l 67 185 q 272 174 194 174 q 369 176 342 174 q 403 188 396 179 q 410 217 410 196 q 406 238 410 232 q 388 248 401 244 q 339 256 375 251 l 174 276 q 69 341 94 288 q 44 503 44 394 q 83 643 44 596 q 184 705 121 690 q 347 719 247 719 q 493 714 418 719 q 613 700 568 708 l 613 524 q 418 535 493 535 q 328 533 354 535 q 294 523 303 531 q 286 497 286 515 q 289 474 286 481 q 304 465 292 468 q 347 457 317 461 l 500 439 q 584 415 553 432 q 633 352 615 397 q 651 222 651 307 q 615 69 651 119 q 520 3 579 18 q 364 -11 461 -11 z "},"ś":{"ha":696,"x_min":44,"x_max":651,"o":"m 364 -11 q 210 -6 293 -11 q 67 8 126 0 l 67 185 q 272 174 194 174 q 369 176 342 174 q 403 188 396 179 q 410 217 410 196 q 406 238 410 232 q 388 248 401 244 q 339 256 375 251 l 174 276 q 69 341 94 288 q 44 503 44 394 q 83 643 44 596 q 184 705 121 690 q 347 719 247 719 q 493 714 418 719 q 613 700 568 708 l 613 524 q 418 535 493 535 q 328 533 354 535 q 294 523 303 531 q 286 497 286 515 q 289 474 286 481 q 304 465 292 468 q 347 457 317 461 l 500 439 q 584 415 553 432 q 633 352 615 397 q 651 222 651 307 q 615 69 651 119 q 520 3 579 18 q 364 -11 461 -11 m 253 828 l 253 835 l 376 1032 l 624 1032 l 624 1025 l 436 828 l 253 828 z "},"ꞌ":{"ha":321,"x_min":46,"x_max":275,"o":"m 46 367 l 46 1032 l 275 1032 l 275 721 l 222 367 l 46 367 z "},"š":{"ha":696,"x_min":44,"x_max":651,"o":"m 364 -11 q 210 -6 293 -11 q 67 8 126 0 l 67 185 q 272 174 194 174 q 369 176 342 174 q 403 188 396 179 q 410 217 410 196 q 406 238 410 232 q 388 248 401 244 q 339 256 375 251 l 174 276 q 69 341 94 288 q 44 503 44 394 q 83 643 44 596 q 184 705 121 690 q 347 719 247 719 q 493 714 418 719 q 613 700 568 708 l 613 524 q 418 535 493 535 q 328 533 354 535 q 294 523 303 531 q 286 497 286 515 q 289 474 286 481 q 304 465 292 468 q 347 457 317 461 l 500 439 q 584 415 553 432 q 633 352 615 397 q 651 222 651 307 q 615 69 651 119 q 520 3 579 18 q 364 -11 461 -11 m 233 828 l 107 1021 l 107 1032 l 274 1032 l 354 926 l 432 1032 l 597 1032 l 597 1021 l 469 828 l 233 828 z "},"ş":{"ha":696,"x_min":44,"x_max":651,"o":"m 651 222 q 624 83 651 132 q 550 14 597 33 q 431 -10 503 -6 l 386 -262 l 153 -262 l 153 -256 l 256 -8 q 67 8 136 -1 l 67 185 q 272 174 194 174 q 369 176 342 174 q 403 188 396 179 q 410 217 410 196 q 406 238 410 232 q 388 248 401 244 q 339 256 375 251 l 174 276 q 69 341 94 288 q 44 503 44 394 q 83 643 44 596 q 184 705 121 690 q 347 719 247 719 q 493 714 418 719 q 613 700 568 708 l 613 524 q 418 535 493 535 q 328 533 354 535 q 294 523 303 531 q 286 497 286 515 q 289 474 286 481 q 304 465 292 468 q 347 457 317 461 l 500 439 q 584 415 553 432 q 633 352 615 397 q 651 222 651 307 z "},"ŝ":{"ha":696,"x_min":44,"x_max":651,"o":"m 364 -11 q 210 -6 293 -11 q 67 8 126 0 l 67 185 q 272 174 194 174 q 369 176 342 174 q 403 188 396 179 q 410 217 410 196 q 406 238 410 232 q 388 248 401 244 q 339 256 375 251 l 174 276 q 69 341 94 288 q 44 503 44 394 q 83 643 44 596 q 184 705 121 690 q 347 719 247 719 q 493 714 418 719 q 613 700 568 708 l 613 524 q 418 535 493 535 q 328 533 354 535 q 294 523 303 531 q 286 497 286 515 q 289 474 286 481 q 304 465 292 468 q 347 457 317 461 l 500 439 q 584 415 553 432 q 633 352 615 397 q 651 222 651 307 q 615 69 651 119 q 520 3 579 18 q 364 -11 461 -11 m 101 828 l 101 838 l 228 1032 l 464 1032 l 592 838 l 592 828 l 426 828 l 346 933 l 268 828 l 101 828 z "},"ș":{"ha":696,"x_min":44,"x_max":651,"o":"m 364 -11 q 210 -6 293 -11 q 67 8 126 0 l 67 185 q 272 174 194 174 q 369 176 342 174 q 403 188 396 179 q 410 217 410 196 q 406 238 410 232 q 388 248 401 244 q 339 256 375 251 l 174 276 q 69 341 94 288 q 44 503 44 394 q 83 643 44 596 q 184 705 121 690 q 347 719 247 719 q 493 714 418 719 q 613 700 568 708 l 613 524 q 418 535 493 535 q 328 533 354 535 q 294 523 303 531 q 286 497 286 515 q 289 474 286 481 q 304 465 292 468 q 347 457 317 461 l 500 439 q 584 415 553 432 q 633 352 615 397 q 651 222 651 307 q 615 69 651 119 q 520 3 579 18 q 364 -11 461 -11 m 215 -308 q 277 -304 257 -308 q 304 -289 297 -300 q 311 -257 311 -278 l 311 -246 l 221 -246 l 221 -81 l 476 -81 l 476 -187 q 459 -322 476 -278 q 388 -383 442 -365 q 215 -401 333 -401 l 215 -308 z "},"ṣ":{"ha":696,"x_min":44,"x_max":651,"o":"m 364 -11 q 210 -6 293 -11 q 67 8 126 0 l 67 185 q 272 174 194 174 q 369 176 342 174 q 403 188 396 179 q 410 217 410 196 q 406 238 410 232 q 388 248 401 244 q 339 256 375 251 l 174 276 q 69 341 94 288 q 44 503 44 394 q 83 643 44 596 q 184 705 121 690 q 347 719 247 719 q 493 714 418 719 q 613 700 568 708 l 613 524 q 418 535 493 535 q 328 533 354 535 q 294 523 303 531 q 286 497 286 515 q 289 474 286 481 q 304 465 292 468 q 347 457 317 461 l 500 439 q 584 415 553 432 q 633 352 615 397 q 651 222 651 307 q 615 69 651 119 q 520 3 579 18 q 364 -11 461 -11 m 211 -310 l 211 -86 l 483 -86 l 483 -310 l 211 -310 z "},"ß":{"ha":840,"x_min":72,"x_max":789,"o":"m 407 0 l 407 192 l 425 192 q 492 199 474 192 q 518 237 511 207 q 525 343 525 267 q 517 449 525 418 q 490 487 510 479 q 424 494 471 494 l 407 494 l 407 688 l 424 688 q 482 692 465 688 q 504 713 499 697 q 510 767 510 729 q 503 822 510 804 q 479 844 496 839 q 426 850 463 850 q 369 844 388 850 q 343 817 351 838 q 335 751 335 797 l 335 0 l 72 0 l 72 775 q 105 926 72 868 q 215 1013 138 985 q 424 1042 292 1042 q 638 1014 561 1042 q 746 933 715 986 q 776 800 776 881 q 738 662 776 708 q 615 601 699 615 l 615 596 q 747 519 704 579 q 789 331 789 460 q 763 132 789 201 q 665 31 736 63 q 453 0 593 0 l 407 0 z "},"ſ":{"ha":585,"x_min":26,"x_max":578,"o":"m 149 515 l 26 515 l 26 708 l 149 708 l 149 739 q 180 943 149 885 q 292 1016 211 1001 q 578 1031 374 1031 l 578 856 q 465 851 496 856 q 424 830 433 846 q 415 771 415 814 l 415 0 l 149 0 l 149 515 z "},"t":{"ha":588,"x_min":25,"x_max":563,"o":"m 147 0 l 147 515 l 25 515 l 25 708 l 147 708 l 147 914 l 414 914 l 414 708 l 563 708 l 563 515 l 414 515 l 414 0 l 147 0 z "},"ŧ":{"ha":588,"x_min":25,"x_max":563,"o":"m 563 515 l 414 515 l 414 393 l 560 393 l 560 215 l 414 215 l 414 0 l 147 0 l 147 215 l 28 215 l 28 393 l 147 393 l 147 515 l 25 515 l 25 708 l 147 708 l 147 914 l 414 914 l 414 708 l 563 708 l 563 515 z "},"ť":{"ha":763,"x_min":25,"x_max":846,"o":"m 147 0 l 147 515 l 25 515 l 25 708 l 147 708 l 147 914 l 414 914 l 414 708 l 563 708 l 563 515 l 414 515 l 414 0 l 147 0 m 601 589 l 617 886 l 617 956 l 846 956 l 846 886 l 778 589 l 601 589 z "},"ţ":{"ha":588,"x_min":25,"x_max":563,"o":"m 414 708 l 563 708 l 563 515 l 414 515 l 414 0 l 365 0 l 319 -262 l 86 -262 l 86 -256 l 193 0 l 147 0 l 147 515 l 25 515 l 25 708 l 147 708 l 147 914 l 414 914 l 414 708 z "},"ț":{"ha":588,"x_min":25,"x_max":563,"o":"m 147 0 l 147 515 l 25 515 l 25 708 l 147 708 l 147 914 l 414 914 l 414 708 l 563 708 l 563 515 l 414 515 l 414 0 l 147 0 m 149 -308 q 210 -304 190 -308 q 238 -289 231 -300 q 244 -257 244 -278 l 244 -246 l 154 -246 l 154 -81 l 410 -81 l 410 -187 q 392 -322 410 -278 q 321 -383 375 -365 q 149 -401 267 -401 l 149 -308 z "},"ṭ":{"ha":588,"x_min":25,"x_max":563,"o":"m 147 0 l 147 515 l 25 515 l 25 708 l 147 708 l 147 914 l 414 914 l 414 708 l 563 708 l 563 515 l 414 515 l 414 0 l 147 0 m 144 -310 l 144 -86 l 417 -86 l 417 -310 l 144 -310 z "},"u":{"ha":818,"x_min":72,"x_max":746,"o":"m 489 82 l 475 82 q 281 -11 419 -11 q 147 20 192 -11 q 87 109 101 51 q 72 265 72 167 l 72 708 l 335 708 l 335 335 q 339 241 335 267 q 357 208 343 215 q 407 201 371 201 q 459 210 444 201 q 478 246 474 219 q 483 336 483 272 l 483 708 l 746 708 l 746 0 l 494 0 l 489 82 z "},"ú":{"ha":818,"x_min":72,"x_max":746,"o":"m 489 82 l 475 82 q 281 -11 419 -11 q 147 20 192 -11 q 87 109 101 51 q 72 265 72 167 l 72 708 l 335 708 l 335 335 q 339 241 335 267 q 357 208 343 215 q 407 201 371 201 q 459 210 444 201 q 478 246 474 219 q 483 336 483 272 l 483 708 l 746 708 l 746 0 l 494 0 l 489 82 m 322 828 l 322 835 l 446 1032 l 693 1032 l 693 1025 l 506 828 l 322 828 z "},"ŭ":{"ha":818,"x_min":72,"x_max":746,"o":"m 489 82 l 475 82 q 281 -11 419 -11 q 147 20 192 -11 q 87 109 101 51 q 72 265 72 167 l 72 708 l 335 708 l 335 335 q 339 241 335 267 q 357 208 343 215 q 407 201 371 201 q 459 210 444 201 q 478 246 474 219 q 483 336 483 272 l 483 708 l 746 708 l 746 0 l 494 0 l 489 82 m 626 1032 q 610 919 626 964 q 545 848 593 874 q 407 822 497 822 q 270 848 318 822 q 206 919 222 874 q 190 1032 190 964 l 329 1032 q 333 990 329 1004 q 353 965 336 975 q 407 956 371 956 q 462 965 444 956 q 483 990 479 975 q 488 1032 488 1006 l 626 1032 z "},"ǔ":{"ha":818,"x_min":72,"x_max":746,"o":"m 489 82 l 475 82 q 281 -11 419 -11 q 147 20 192 -11 q 87 109 101 51 q 72 265 72 167 l 72 708 l 335 708 l 335 335 q 339 241 335 267 q 357 208 343 215 q 407 201 371 201 q 459 210 444 201 q 478 246 474 219 q 483 336 483 272 l 483 708 l 746 708 l 746 0 l 494 0 l 489 82 m 290 828 l 164 1021 l 164 1032 l 331 1032 l 411 926 l 489 1032 l 654 1032 l 654 1021 l 526 828 l 290 828 z "},"û":{"ha":818,"x_min":72,"x_max":746,"o":"m 489 82 l 475 82 q 281 -11 419 -11 q 147 20 192 -11 q 87 109 101 51 q 72 265 72 167 l 72 708 l 335 708 l 335 335 q 339 241 335 267 q 357 208 343 215 q 407 201 371 201 q 459 210 444 201 q 478 246 474 219 q 483 336 483 272 l 483 708 l 746 708 l 746 0 l 494 0 l 489 82 m 164 828 l 164 838 l 290 1032 l 526 1032 l 654 838 l 654 828 l 489 828 l 408 933 l 331 828 l 164 828 z "},"ȕ":{"ha":818,"x_min":65,"x_max":746,"o":"m 489 82 l 475 82 q 281 -11 419 -11 q 147 20 192 -11 q 87 109 101 51 q 72 265 72 167 l 72 708 l 335 708 l 335 335 q 339 241 335 267 q 357 208 343 215 q 407 201 371 201 q 459 210 444 201 q 478 246 474 219 q 483 336 483 272 l 483 708 l 746 708 l 746 0 l 494 0 l 489 82 m 368 847 l 217 847 l 65 1008 l 65 1014 l 265 1014 l 368 854 l 368 847 m 631 847 l 482 847 l 329 1008 l 329 1014 l 531 1014 l 631 854 l 631 847 z "},"ü":{"ha":818,"x_min":72,"x_max":746,"o":"m 489 82 l 475 82 q 281 -11 419 -11 q 147 20 192 -11 q 87 109 101 51 q 72 265 72 167 l 72 708 l 335 708 l 335 335 q 339 241 335 267 q 357 208 343 215 q 407 201 371 201 q 459 210 444 201 q 478 246 474 219 q 483 336 483 272 l 483 708 l 746 708 l 746 0 l 494 0 l 489 82 m 158 850 l 158 1014 l 365 1014 l 365 850 l 158 850 m 454 850 l 454 1014 l 661 1014 l 661 850 l 454 850 z "},"ǘ":{"ha":818,"x_min":72,"x_max":746,"o":"m 489 82 l 475 82 q 281 -11 419 -11 q 147 20 192 -11 q 87 109 101 51 q 72 265 72 167 l 72 708 l 335 708 l 335 335 q 339 241 335 267 q 357 208 343 215 q 407 201 371 201 q 459 210 444 201 q 478 246 474 219 q 483 336 483 272 l 483 708 l 746 708 l 746 0 l 494 0 l 489 82 m 158 850 l 158 1014 l 365 1014 l 365 850 l 158 850 m 454 850 l 454 1014 l 661 1014 l 661 850 l 454 850 m 318 1050 l 318 1057 l 442 1254 l 689 1254 l 689 1247 l 501 1050 l 318 1050 z "},"ǚ":{"ha":818,"x_min":72,"x_max":746,"o":"m 489 82 l 475 82 q 281 -11 419 -11 q 147 20 192 -11 q 87 109 101 51 q 72 265 72 167 l 72 708 l 335 708 l 335 335 q 339 241 335 267 q 357 208 343 215 q 407 201 371 201 q 459 210 444 201 q 478 246 474 219 q 483 336 483 272 l 483 708 l 746 708 l 746 0 l 494 0 l 489 82 m 158 850 l 158 1014 l 365 1014 l 365 850 l 158 850 m 454 850 l 454 1014 l 661 1014 l 661 850 l 454 850 m 293 1050 l 167 1243 l 167 1254 l 333 1254 l 414 1149 l 492 1254 l 657 1254 l 657 1243 l 529 1050 l 293 1050 z "},"ǜ":{"ha":818,"x_min":72,"x_max":746,"o":"m 489 82 l 475 82 q 281 -11 419 -11 q 147 20 192 -11 q 87 109 101 51 q 72 265 72 167 l 72 708 l 335 708 l 335 335 q 339 241 335 267 q 357 208 343 215 q 407 201 371 201 q 459 210 444 201 q 478 246 474 219 q 483 336 483 272 l 483 708 l 746 708 l 746 0 l 494 0 l 489 82 m 158 850 l 158 1014 l 365 1014 l 365 850 l 158 850 m 454 850 l 454 1014 l 661 1014 l 661 850 l 454 850 m 328 1050 l 140 1247 l 140 1254 l 388 1254 l 511 1057 l 511 1050 l 328 1050 z "},"ǖ":{"ha":818,"x_min":72,"x_max":746,"o":"m 489 82 l 475 82 q 281 -11 419 -11 q 147 20 192 -11 q 87 109 101 51 q 72 265 72 167 l 72 708 l 335 708 l 335 335 q 339 241 335 267 q 357 208 343 215 q 407 201 371 201 q 459 210 444 201 q 478 246 474 219 q 483 336 483 272 l 483 708 l 746 708 l 746 0 l 494 0 l 489 82 m 158 850 l 158 1014 l 365 1014 l 365 850 l 158 850 m 454 850 l 454 1014 l 661 1014 l 661 850 l 454 850 m 214 1050 l 214 1254 l 613 1254 l 613 1050 l 214 1050 z "},"ụ":{"ha":818,"x_min":72,"x_max":746,"o":"m 489 82 l 475 82 q 281 -11 419 -11 q 147 20 192 -11 q 87 109 101 51 q 72 265 72 167 l 72 708 l 335 708 l 335 335 q 339 241 335 267 q 357 208 343 215 q 407 201 371 201 q 459 210 444 201 q 478 246 474 219 q 483 336 483 272 l 483 708 l 746 708 l 746 0 l 494 0 l 489 82 m 251 -310 l 251 -86 l 524 -86 l 524 -310 l 251 -310 z "},"ù":{"ha":818,"x_min":72,"x_max":746,"o":"m 489 82 l 475 82 q 281 -11 419 -11 q 147 20 192 -11 q 87 109 101 51 q 72 265 72 167 l 72 708 l 335 708 l 335 335 q 339 241 335 267 q 357 208 343 215 q 407 201 371 201 q 459 210 444 201 q 478 246 474 219 q 483 336 483 272 l 483 708 l 746 708 l 746 0 l 494 0 l 489 82 m 325 828 l 138 1025 l 138 1032 l 385 1032 l 508 835 l 508 828 l 325 828 z "},"ủ":{"ha":818,"x_min":72,"x_max":746,"o":"m 489 82 l 475 82 q 281 -11 419 -11 q 147 20 192 -11 q 87 109 101 51 q 72 265 72 167 l 72 708 l 335 708 l 335 335 q 339 241 335 267 q 357 208 343 215 q 407 201 371 201 q 459 210 444 201 q 478 246 474 219 q 483 336 483 272 l 483 708 l 746 708 l 746 0 l 494 0 l 489 82 m 307 851 q 319 922 307 903 q 375 950 332 940 l 397 957 q 434 971 426 964 q 442 994 442 978 q 426 1026 442 1019 q 360 1032 411 1032 q 287 1030 326 1032 q 215 1024 247 1028 l 215 1139 q 302 1150 250 1146 q 400 1154 354 1154 q 512 1147 471 1154 q 578 1108 553 1139 q 604 1010 604 1076 q 592 945 604 968 q 560 912 581 922 q 500 890 539 901 l 483 885 q 449 869 457 876 q 440 847 440 863 l 307 847 l 307 851 z "},"ư":{"ha":818,"x_min":72,"x_max":856,"o":"m 856 832 l 856 811 q 834 683 856 724 q 746 628 813 643 l 746 0 l 494 0 l 489 82 l 475 82 q 281 -11 419 -11 q 147 20 192 -11 q 87 109 101 51 q 72 265 72 167 l 72 708 l 335 708 l 335 335 q 339 241 335 267 q 357 208 343 215 q 407 201 371 201 q 459 210 444 201 q 478 246 474 219 q 483 336 483 272 l 483 708 l 594 708 q 656 717 636 708 q 683 743 676 725 q 689 799 689 761 l 689 832 l 856 832 z "}}}
